<svg class=" animate-icon-color" version="1.0" id="Layer_1" xmlns="http://www.w3.org/2000/svg" xmlns:xlink="http://www.w3.org/1999/xlink" x="0px" y="0px"
viewBox="0 0 512 512" style="enable-background:new 0 0 512 512;" xml:space="preserve">
<path class="st0" d="M0,329.1c0.2-85.4,58-158.8,140.3-178.5c5.9-1.4,8.6-3.3,10.1-9.6C166.8,69.7,225.8,14.7,298.2,2.5
c93.9-15.8,185,43.7,208.2,136.1c23.4,93-28.6,188-119.8,218.7c-6,2-12.3,3.6-18.5,4.9c-3.5,0.8-5.1,2.4-5.8,5.9
c-7.9,36.4-25.4,67.6-52.4,93.2c-30.4,28.8-66.6,45.4-108.4,49.7c-93.2,9.5-178.5-53.7-197.6-145.1C1.2,353.5-0.2,341,0,329.1z
M183.4,452c50,0.2,94.7-29.7,114.3-76.6c4.2-10,4.2-10-6.4-12.3c-73.1-15.4-129.9-73.4-143.2-146.2c-1.2-6.4-1.2-6.4-7.4-4.2
c-55.5,20.1-89.8,79.7-78.9,137.4C72.9,409.8,123.1,451.8,183.4,452z M324.6,60.1c-4.8-0.1-13.1,0.5-21.2,2.4
c-44.5,10.5-74.9,37.1-91.3,79.7c-1.2,3-1.7,4.9,2.7,5.7c75.3,12.8,134.8,71.7,149,147c1.3,6.6,1.3,6.6,7.7,4.3
c55.3-20.2,89.2-79.2,78.7-137.1C439.4,102.6,388.5,60.1,324.6,60.1z M349.6,327.6c0.5-6.2-0.3-13.6-1.4-21
c-8.3-53.8-35.8-94.8-82.8-122.5c-16.6-9.8-34.6-15.8-53.4-19.3c-3.7-0.7-6.1-0.6-6.3,4.4c-0.3,5-0.4,10-0.9,15
c-0.3,4.2,1.2,5.6,5.2,6.3c74.5,13.9,124.6,85.7,112.3,160.8c-13.3,81.7-94.1,134.8-174.5,113.4c-51.7-13.8-86-47.7-100.1-99.5
c-13.8-50.7-1.1-96,34.7-134.4c16.1-17.3,36-29.1,58.5-36.3c1.9-0.6,4.7-0.4,4.2-4c-0.8-5.7-0.2-11.4,0.3-17.1
c0.5-6.5,0.4-6.5-5.9-4.8c-83,22-136.1,107-119.5,191.6c17.7,90,104.8,149.2,194.4,131.9C292.7,476.9,349.6,408.2,349.6,327.6z
M162.3,184.5c-0.1,10.1,1.2,21.1,3.2,32c12,64,65.9,118,130,130c12.7,2.4,9.5,2.7,11.2-8.8c0.7-4.7,2-10.4-0.5-14.2
c-2-3-7.7-2.1-11.6-3.1c-0.5-0.1-1-0.4-1.5-0.5c-70.2-18.1-116.8-88.8-102.8-162.7C207.4,66.4,308.1,16,390.9,57.4
c53.3,26.6,83.6,81.9,77.3,141.7c-3.8,36-19.9,65.9-46.8,90c-14.8,13.2-31.8,22.7-50.7,28.7c-2,0.6-4.6,0.6-4,4.2
c0.9,5.7,0.1,11.4-0.3,17.1c-0.5,6.3-0.4,6.3,5.6,4.7c87.2-22.9,140.7-114.9,117.4-202C466.7,56.7,384.2,4.3,297.8,20.1
C220,34.3,162.1,104.1,162.3,184.5z M207.4,207.6c9.4,51.7,53.5,90.1,96.8,96.7C297.2,260.1,258.2,216.7,207.4,207.6z"/></svg>