<?xml version="1.0" encoding="utf-8"?>
<!-- Generator: Adobe Illustrator 26.0.0, SVG Export Plug-In . SVG Version: 6.00 Build 0)  -->
<svg version="1.1" id="Capa_1" xmlns="http://www.w3.org/2000/svg" xmlns:xlink="http://www.w3.org/1999/xlink" x="0px" y="0px"
	 viewBox="0 0 1080 1080" style="enable-background:new 0 0 1080 1080;" xml:space="preserve">
<g>
	<path d="M624.14,438.45c0.73-36.29-7.43-68.89-29.43-97.03c-22.05-28.2-50.73-44.81-86.65-48.86
		c-57.53-6.49-108.91,9.06-153.84,44.48c-31.7,24.99-54.7,56.86-65.06,96.68c-3.9,15-5.54,30.22-1.47,45.44
		c4.49,16.77,14.98,29.07,30.16,37.05c5.91,3.11,8.24,7,7.71,13.41c-0.37,4.54-0.06,9.14-0.06,13.71c0,9.89-4.1,13.44-13.96,12.11
		c-9.64-1.3-16.82-6.69-22.9-13.83c-24.91-29.27-31.25-63.13-23.24-99.81c13.92-63.74,51.1-110.1,107.73-141.58
		c43.31-24.08,90.15-33.35,139.03-31.39c38.85,1.56,76.07,10.05,108.35,34.06c33.34,24.81,54.73,56.89,59.95,98.29
		c7.39,58.58-9.47,110.45-46.01,156.39c-36.99,46.5-86.19,69.52-144.26,76.06c-25.32,2.85-50.44,0.19-75.6-1.67
		c-28.45-2.11-56.93-2.09-85.43-1.89c-2.15,0.02-4.35,0.31-6.44-0.03c-3.3-0.53-9.18,1.96-8.83-3.66c0.3-4.83,1.77-11.07,8.36-12.38
		c4.73-0.94,9.59-1.23,14.4-1.74c7.23-0.78,14.45-1.43,20.65-5.93c3.75-2.72,8.2-2.08,12.49-2.09c25.94,0,41.52-25.77,26.86-47.3
		c-8.83-12.97-8.24-24.13-3.96-37.41c4.03-12.52,7.24-25.32,10.2-38.14c1.81-7.82,5.44-13.62,12.47-17.72
		c11.66-6.8,23.6-12.83,36.63-16.54c5.81-1.65,8.35,0.25,6.91,6.41c-11.33,48.72-22.86,97.39-45.04,142.67
		c-6.97,14.23-7.13,14.35,8.94,16.59c46.06,6.42,89.59-0.31,128.84-26.48c28.43-18.96,47.15-45.83,59.76-77.2
		C620.61,486.1,624.97,462.18,624.14,438.45z"/>
	<path d="M731.14,491.72c-14.92,16.81-26.9,34.96-39.74,52.47c-24.97,34.04-48.2,69.23-69.72,105.51
		c-19.19,32.35-37.51,65.21-56.19,97.86c-3.87,6.76-7.61,13.6-11.49,20.36c-0.89,1.55-1.61,3.95-3.88,3.41
		c-2.27-0.55-1.79-3.03-1.93-4.83c-1.62-20.61-3.27-41.22-4.76-61.85c-1.42-19.82-2.45-39.68-4.11-59.48
		c-0.46-5.52,1.04-8.44,6.23-10.4c9.3-3.51,18.37-7.62,27.55-11.44c7.18-2.98,8.49-2.18,9.04,5.44c0.6,8.31,1.12,16.62,1.76,24.92
		c0.18,2.3-0.77,5.62,1.98,6.43c2.89,0.85,3.71-2.58,4.88-4.48c11.37-18.56,22.28-37.41,33.98-55.76
		c35.43-55.57,72.78-109.74,117.54-158.42c18.22-19.82,37.11-38.88,60.19-53.17c2.08-1.29,4.37-4.41,7.03-2.16
		c2.15,1.82,0.08,4.56-0.68,6.73c-20.31,58.19-35.63,117.8-50.78,177.46c-13.43,52.87-27.67,105.53-39.24,158.86
		c-3.1,14.28-3.31,14.48,11.38,17.05c15.74,2.75,31.56,2.12,47.4,0.56c3.52-0.35,8.44-3.54,10.54,1.76
		c2.22,5.6-3.47,15.88-8.82,16.81c-11.7,2.05-23.45,2.44-35.33,1.21c-15.49-1.6-30.89-4.1-46.54-4.21
		c-11.38-0.08-22.65,0.42-33.49,3.9c-7.83,2.51-7.68-1.04-5.74-6.49c6.22-17.48,11.94-35.11,17-52.97
		c11.22-39.58,20.79-79.58,30.97-119.43c7.65-29.94,14.35-60.14,24.53-89.38C731.29,496.27,732.28,494.53,731.14,491.72z"/>
	<path d="M525.57,472.39c-3.97,23.7-7.11,45.21-11.29,66.52c-3.31,16.86-7.76,33.51-11.98,50.18c-1.66,6.57-18.02,13.14-23.66,9.83
		c-3.26-1.91-1.66-4.8-1.07-7.21c2.52-10.17,5.48-20.24,7.88-30.44c9.66-41.12,16.9-82.65,20.49-124.78
		c0.51-5.99-0.3-10.06-7.8-9.61c-43.72,2.64-83.64,14.41-114.58,47.61c-11.98,12.85-19.05,28.17-18.44,45.93
		c0.41,11.92,6.87,21.88,13.8,31.27c3.36,4.55,6.79,9.02,8.49,14.54c3.04,9.87,0.84,17.94-6.13,22.21
		c-7.99,4.9-18.39,3.82-25.21-3.04c-10.46-10.52-16.16-23.49-17.5-38.09c-3.19-34.83,8.78-64.31,32.42-89.56
		c27.93-29.84,64.22-41.87,102.96-48.93c22.61-4.12,45.6-2.05,68.29-4.68c5.87-0.68,11.79-1.16,17.56-2.35
		c5.68-1.18,8.07,0.49,7.89,6.38c-0.72,23.67,0.61,47.25,3.01,70.82c1.74,17.09,1.07,34.52,4.06,51.34
		c2.34,13.13-2.15,21.87-10.95,29.75c-6.4,5.73-13.07,11.21-20.03,16.22c-7.04,5.07-9.49,3.46-10.1-5.41
		c-2.16-31.34-4.43-62.68-6.69-94.01C526.95,476.12,526.55,475.4,525.57,472.39z"/>
	<path d="M341.77,781.9c-7.63,0.17-15.05-0.3-22.04-3.85c-10.73-5.46-15.9-15.26-13.33-25.71c2.33-9.47,13.16-16.58,24.56-15.6
		c6.14,0.53,12.45,1.12,18.27,2.97c28.58,9.09,49.68-3,67.75-23.5c15.76-17.88,27.87-38.12,37.52-59.88
		c3.37-7.6,17.34-12.01,24.77-8.04c3.5,1.87,2.05,4.69,1.09,7.01c-10.05,24.42-21.68,47.96-38.2,68.83
		c-12.93,16.32-26.88,31.45-45.25,41.84C379.79,775.66,361.57,781.54,341.77,781.9z"/>
	<path d="M422.74,403.91c3.51-15.63,6.98-29.97,9.9-44.42c2.55-12.58,0.63-15-12.05-16.71c-3.38-0.46-5.76-1.35-5.27-5.37
		c0.57-4.72,1.35-8.72,7.57-9.51c13.29-1.68,26.52-3.91,39.73-6.19c8.72-1.5,17.38-3.39,26.03-5.27c5.48-1.19,7.44,1.2,5.61,6
		c-8.63,22.61-14.81,45.94-20.83,69.32c-0.9,3.5-3.33,5.19-6.89,5.82c-12.69,2.27-25.17,5.42-37.45,9.37
		C425.14,408.22,421.88,408.55,422.74,403.91z"/>
</g>
</svg>
