<svg version="1.2" xmlns="http://www.w3.org/2000/svg" viewBox="0 0 1080 1080" width="1080" height="1080"><style></style><path  d="m705.2 376.1c1.4-68.4-14-129.8-55.4-182.8-41.6-53.2-95.6-84.5-163.3-92.1-108.5-12.2-205.3 17.1-290 83.8-59.7 47.1-103.1 107.2-122.6 182.2-7.3 28.3-10.4 57-2.7 85.7 8.4 31.6 28.2 54.8 56.8 69.8 11.1 5.9 15.5 13.2 14.5 25.3-0.7 8.5-0.1 17.2-0.1 25.8 0 18.6-7.7 25.3-26.3 22.8-18.2-2.4-31.7-12.6-43.2-26-46.9-55.2-58.9-119-43.8-188.1 26.3-120.2 96.3-207.5 203.1-266.9 81.6-45.3 169.9-62.8 262-59.1 73.2 2.9 143.4 18.9 204.2 64.2 62.8 46.7 103.1 107.2 113 185.2 13.9 110.4-17.9 208.2-86.7 294.7-69.7 87.7-162.5 131.1-271.9 143.4-47.7 5.4-95.1 0.3-142.5-3.2-53.6-3.9-107.3-3.9-161-3.5-4 0-8.2 0.6-12.1-0.1-6.2-1-17.3 3.7-16.7-6.9 0.6-9.1 3.4-20.8 15.8-23.3 8.9-1.8 18.1-2.3 27.1-3.3 13.6-1.5 27.3-2.7 38.9-11.2 7.1-5.1 15.5-3.9 23.6-3.9 48.9 0 78.2-48.6 50.6-89.1-16.6-24.5-15.5-45.5-7.5-70.6 7.6-23.5 13.7-47.7 19.3-71.8 3.4-14.8 10.2-25.7 23.5-33.4 21.9-12.8 44.4-24.2 69-31.2 10.9-3.1 15.7 0.5 13 12.1-21.3 91.8-43.1 183.5-84.9 268.9-13.1 26.8-13.4 27 16.9 31.2 86.8 12.1 168.8-0.6 242.8-49.9 53.6-35.7 88.9-86.4 112.6-145.5 17.4-43.4 25.6-88.4 24-133.2z"/><path  d="m906.9 476.5c-28.1 31.7-50.7 65.9-74.9 98.9-47.1 64.2-90.8 130.5-131.4 198.9-36.2 60.9-70.7 122.9-105.9 184.4-7.3 12.7-14.3 25.6-21.7 38.4-1.6 2.9-3 7.4-7.3 6.4-4.2-1-3.3-5.7-3.6-9.1-3.1-38.9-6.2-77.7-9-116.6-2.7-37.3-4.6-74.8-7.7-112.1-0.9-10.4 1.9-15.9 11.7-19.6 17.5-6.6 34.6-14.3 51.9-21.5 13.6-5.6 16-4.1 17.1 10.2 1.1 15.7 2.1 31.3 3.3 47 0.3 4.3-1.5 10.6 3.7 12.1 5.5 1.6 7-4.9 9.2-8.4 21.5-35 42-70.5 64.1-105.1 66.7-104.8 137.1-206.8 221.5-298.6 34.3-37.3 69.9-73.3 113.4-100.2 3.9-2.4 8.3-8.3 13.3-4.1 4 3.5 0.1 8.6-1.3 12.7-38.3 109.7-67.2 222-95.7 334.5-25.3 99.6-52.2 198.9-74 299.4-5.8 26.9-6.2 27.2 21.5 32.1 29.6 5.2 59.5 4 89.3 1 6.6-0.6 15.9-6.6 19.9 3.4 4.2 10.5-6.6 29.9-16.7 31.6-22 3.9-44.1 4.6-66.5 2.3-29.2-3-58.3-7.7-87.7-7.9-21.5-0.2-42.7 0.8-63.2 7.3-14.7 4.8-14.4-1.9-10.8-12.2 11.7-32.9 22.5-66.2 32.1-99.8 21.1-74.6 39.1-150 58.3-225.1 14.4-56.4 27.1-113.3 46.3-168.4 1.1-3.3 2.9-6.6 0.8-11.9z"/><path  d="m519.5 440.1c-7.5 44.7-13.4 85.2-21.3 125.4-6.3 31.7-14.6 63.1-22.6 94.5-3.1 12.4-34 24.8-44.6 18.6-6.1-3.6-3.1-9.1-2-13.6 4.8-19.2 10.3-38.2 14.9-57.4 18.2-77.5 31.8-155.8 38.6-235.2 0.9-11.2-0.6-18.9-14.7-18.1-82.4 5-157.7 27.2-216 89.8-22.5 24.2-35.9 53.1-34.7 86.5 0.8 22.5 12.9 41.3 26 59 6.3 8.5 12.8 17 16 27.4 5.7 18.6 1.6 33.8-11.6 41.8-15 9.3-34.6 7.2-47.5-5.7-19.7-19.8-30.4-44.3-33-71.8-6-65.6 16.6-121.2 61.1-168.8 52.7-56.2 121.1-78.9 194.1-92.2 42.6-7.8 85.9-3.9 128.7-8.8 11-1.3 22.2-2.2 33.1-4.4 10.7-2.3 15.2 0.9 14.8 12-1.3 44.6 1.2 89 5.7 133.4 3.3 32.3 2 65.1 7.7 96.8 4.4 24.7-4.1 41.2-20.7 56.1-12 10.8-24.6 21.1-37.7 30.5-13.3 9.6-17.9 6.6-19.1-10.2-4-59-8.3-118.1-12.6-177.1 0-1.5-0.8-2.8-2.6-8.5z"/><path  d="m173.1 1023.4c-14.4 0.3-28.4-0.6-41.6-7.2-20.2-10.3-29.9-28.8-25.1-48.5 4.4-17.8 24.8-31.2 46.3-29.4 11.6 1 23.5 2.1 34.4 5.6 53.9 17.1 93.7-5.7 127.7-44.3 29.7-33.7 52.5-71.8 70.7-112.8 6.4-14.4 32.7-22.7 46.7-15.2 6.6 3.5 3.9 8.8 2.1 13.2-19 46-40.9 90.4-72 129.7-24.4 30.8-50.7 59.3-85.3 78.9-32.3 18.3-66.6 29.3-103.9 30z"/><path  d="m325.7 311c6.6-29.4 13.1-56.4 18.6-83.7 4.8-23.7 1.2-28.2-22.7-31.5-6.4-0.8-10.8-2.5-9.9-10.1 1.1-8.9 2.5-16.4 14.3-17.9 25-3.2 49.9-7.4 74.8-11.7 16.5-2.8 32.8-6.4 49.1-9.9 10.3-2.2 14 2.3 10.6 11.3-16.3 42.6-28 86.6-39.3 130.6-1.7 6.6-6.3 9.8-13 11-23.9 4.3-47.4 10.2-70.6 17.7-7.4 2.4-13.6 3-11.9-5.8z"/></svg>