<svg version="1.2" xmlns="http://www.w3.org/2000/svg" viewBox="0 0 794 1123" width="794" height="1123">
	<title>flor-svg</title>
	<defs>
		<clipPath clipPathUnits="userSpaceOnUse" id="cp1">
			<path d="m0 0h794v1123h-794z"/>
		</clipPath>
		<clipPath clipPathUnits="userSpaceOnUse" id="cp2">
			<path d="m64.84 30.81h664v1060.87h-664z"/>
		</clipPath>
	</defs>
	<style>
		.s0 { fill: #004aad } 
	</style>
	<g id="g8">
		<g id="g10">
		</g>
		<g id="g22">
			<g id="Clip-Path: g24" clip-path="url(#cp1)">
				<g id="g24">
					<g id="g30">
					</g>
				</g>
			</g>
		</g>
		<g id="g34">
			<g id="Clip-Path: g36" clip-path="url(#cp2)">
				<g id="g36">
					<g id="g42">
						<path id="path44" fill-rule="evenodd" class="s0" d="m713.1 224.9c-13.2 4.5-26.8 3.8-39.5-1.5-9.6-3.8-17.3-7-27.9-6.6-9.4 0.2-18.3 2.2-27.4 3.4-8.5 1.1-16.6-0.2-25.4 0-8 0.3-15.9 2-24 1.5-9.8-0.4-21-3.2-25.7-12.5-1.1-0.2-2.1-0.7-3.2-1.1-4.5 4.7-9.4 8.7-14 13.2-0.5 0.4-0.7 0.4-1.1 0.4 0 0 0 0-0.2 0-1.9 0.2-3.8 0.5-5.6 0.7-0.4 8.3-5.7 17-12.3 22.1-0.2 0.2-0.4 0.2-0.8 0.2 0 0.2 0 0.2-0.3 0.4-7.6 13-12.9 26.4-16.3 40.4 0 0.7-0.2 1.1-0.2 1.7 0 0.5-0.3 0.7-0.5 0.9q-0.6 3.2-1.2 6.4c2.3-3 4.6-5.8 7.4-8.3-0.2-0.7-0.4-1.3 0-1.9 3.6-8.6 9.6-12.8 17.9-16.2q4.1-1.9 7.6-4.5 0-1.2 1.3-1.9c0.9-0.4 1.5-0.6 2.3-0.8 5.4-4.3 10-9.2 16.4-12.6 19.4-10.6 43.8-14.7 65.7-15.7 37.7-1.7 88.3 16.6 90.2 61.2 0 0.7-0.4 0.9-1 0.9 0 0.4-0.7 0.8-1.1 0.4q-0.3-0.3-0.6-0.6c-0.3 0.2-0.5 0.2-0.9 0-1.3-0.7-2.1-1.5-3.2-2.2-5.3-2.1-11.7-1.9-17-4.4-6.4-3-12.1-7-18.1-10.2-18.3-10-35.5-13.2-56.1-10-15.3 2.3-29.6 5.5-45.1 3.6-8.3-1.1-16.6-2.8-24.9-2.1-11.3 0.8-19.1 6.8-27 14.2-0.7 0.6-1.3 0.6-1.9 0.6 0 0 0 0.3-0.2 0.3 0 0.2 0 0.4-0.3 0.8l-0.2 0.2c-0.2 0.2-0.4 0.7-0.4 0.9-0.4 0.6-0.8 0.8-1.3 1-4.4 4.9-8.3 10.5-10.8 16.6-0.2 0.2-0.2 0.7-0.4 0.9-0.9 6.6-1.3 13.2-1.5 19.8 7.8-5.6 15.7-11.1 22.9-17.1 9.6-8 18.5-21.7 30.4-25.9 2.2-0.6 3 2.5 0.9 3.2-7.2 2.5-13 10.6-18.7 15.7-5.3 4.9-10.9 10-16.4 14.7-10.4 8.7-22.1 16.2-32.7 24.7-6 4.9-11.5 10.4-16.4 16.1-0.2 0.5-0.4 1.1-0.9 1.5-0.2 0.5-0.6 0.7-1 0.9q-5.5 6.7-10.2 14c-6.4 9.8-13 19.6-16 30.6 6.4-13.1 13.6-26.1 22.8-37.6 11.5-14.3 27.2-24.9 41.9-35.7 0.4-0.5 1 0.4 0.6 0.8-14.5 11.9-30.6 22.6-41.9 37.7-7 9.3-12.3 20-17.2 30.4 7.8-8.5 18-16 27.6-22.8 0.9-1.7 2.1-3.4 3.2-5.1 1.7-2.8 3.4-5.3 4.9-8.1 0.4-0.8 1.5 0 1.1 0.7-1.3 2.9-2.8 5.9-4.3 8.7 2.1-1.7 4.5-3.2 6.4-4.9 3.4-2.8 7-5.3 10.6-8.1 4.1-5.5 7.3-10.8 9.4-17.2 0.2-0.9 1.5-0.4 1.3 0.4-1.3 4.5-3 8.7-5.4 12.8 7.5-5.8 14.5-11.7 20.7-18.5 0-0.2 0-0.7 0.2-0.9 4.2-7.9 7.9-15.9 10-24.7 0.2-0.8 1.3-0.4 1.3 0.5-1.1 5.5-2.4 11-4.5 16.3h0.2c1.7-2.5 3.4-5.3 4.7-8 0.2-0.5 0.4-0.5 0.6-0.5 0.7-1.5 1.5-2.7 2.4-4.2 6.3-10.4 12.5-19.4 16.6-31.3 0.2-0.4 0.8-0.4 0.8 0.2-0.2 12.4-9.1 22.4-15.1 32.4-7.4 12.7-9.4 27.2-14.5 40.8-4.2 11.5-11.7 17.9-19.7 26.6-5.1 5.7-8.1 11.7-13.9 15.1 2.6 0.4 5.1 0.6 7.7 1h0.2c4-5.3 8.9-12.3 14.9-15.3 4.3-2.1 8.9-2.5 13-4.9 3.4-2.1 6.6-4.6 9.1-7.8-0.4-0.5-0.6-1.1-0.2-1.5 0 0 0.2 0 0.2-0.2-0.4-0.5-0.4-1.1-0.2-1.5-1.3-7.3-1.3-15.5 1.5-22.1 0-0.2 0.2-0.2 0.2-0.5-1.5-2.3-0.4-5.9 2.6-6.6 0.6-0.2 1.2 0 1.7 0h0.2c2.9 0.7 4.4 3.9 2.7 6.4-1.2 1.9-3.8 2.6-5.7 1.7-1.1 4.3-1.9 8.3-1.9 12.8 0 2.5 0.4 5.3 0.8 7.9 0.7-0.7 1.5-1.1 2.2-2 1.9-1.9 2.5-4.4 3.4-7 1.2-4 2.9-7.8 4.9-11.7 0.2-0.2 0.4-0.4 0.6-0.4-1.5-2.3 0-6 3-6.2 1.9 0 3.4 1.7 3.6 3.4 0.6 0.9 0.6 2 0 3-1.1 1.9-3.6 2.1-5.3 1.1v0.2c-1.1 1.9-1.7 3.6-2.6 5.5 3-0.2 6-0.8 8.9-0.6 0.3 0 0.5 0.2 0.7 0.4v-0.2c0.4-2.8 3.6-4.7 5.9-3 1.5 0.9 2.4 3 2 4.7q0 0.6 0 1.3c-0.5 1.5-2 2.1-3.4 2.1-2.4 0-4.3-1.5-4.5-3.8 0 0.2-0.2 0.2-0.4 0.2-3 0.8-6.4 0.8-9.4 1.3-0.2 0-0.4 0-0.6-0.3-0.9 2.6-2 5.1-3 7.7-0.9 1.9-2.1 3.4-3.6 4.7q6 0.9 12.1-1.3c-1.1-2.5-0.2-5.5 2.8-6.2 3.8-0.8 6.6 3 5.7 6.6-0.2 0.7-0.6 1.1-1.1 1.3-0.4 0.6-0.8 1.1-1.7 1.3-1.7 0.6-3.4 0-4.4-1.3-4.3 2.1-9.6 2.8-14.5 1.7 7.9 6.4 17 8.3 25.7 1.9h0.3c0-0.2-0.3-0.4-0.3-0.8-0.8-3.9 3-7 6.6-6 1.5 0.4 2.6 1.7 3 3 1.1 1.9 0.2 4.2-1.3 5.5-2.3 2.2-5.9 1.5-7.6-0.8-8.3 6.6-20.9 7.2-28.3-0.7-0.4 0.2-0.6 0-1.1-0.2-3.6 4.5-7.6 8.1-12.9 10.4-5.1 2.4-10.3 3.4-14.1 7.9-3 3.6-5.7 7.7-8.7 11.3-0.2 0.2-0.4 0.4-0.6 0.4-1.1 7-2 14-1.7 21.1 0 0.8-1.1 0.8-1.3 0-0.9-7.7-1.1-15.1 0-22.8-3.6 0-7.5-0.2-11.1-0.4-1 18.9 5.3 37.2 4.7 56.4 0 0.8-1.3 0.8-1.3 0 0.2-18.6-9.5-37.3-6.4-55.6-17.2 14.3 3 25.1 4.1 39.6 0.4 5.7-2.4 10.2 0.6 16.2 1.7 3.6 3.4 5.7 3.8 10 0 0.6 0 1.2 0 2.1 2.2 17.6-11.9 32.1-13.6 49.3 1.3-0.2 3 0.5 3.4 1.7 2.8 5.8-3.6 11.9-1.4 18.1 0.4-0.2 0.6-0.6 1-0.8 0.2-0.3 0.4-0.3 0.7-0.3 0-0.6 0.4-1.2 1-1.2 2.1-0.5 4.1-0.5 6.2-0.2-1.1-5.1 0.6-12 2.7-16.4 2.2-4.5 6.4-11.3 12-11.3 1.2 0 2.3 1.1 2.3 2.3 0.4 4.7-4 7.9-6.8 11.1-1.9 2.3-4 4.7-5.3 7.2-1.1 2-1.1 4.1-1.5 6.4 1.3-0.2 2.8-0.2 4 0.2 0.5-1.9 1.1-3.6 1.7-5.5 0.9-2.3 1.3-4.7 1.5-7.2 0-0.9 1.3-0.9 1.3 0-0.4 4.4-0.2 9.5-1.9 13.8 0.8 0.6 1.5 1.3 1.9 2.3 0.6 0 1.1 0 1.7 0.2 4.9-2.9 5.5-10 5.9-15.3 0.5-4 7.1-5.7 7.7-1 0.6 4.6-0.2 9.5-3.4 13.4-1.9 2.3-4.9 3.8-7.6 4.6 0.6 0.7 1 1.5 1.2 2.4 0 0 0 0 0.2 0 0.5 0.2 0.5 0.4 0.7 0.6 0-0.2 0.2-0.2 0.4-0.2 12.5-8.1 13.8-30.8 22.8-42.9 8.7-11.7 23.4-15.8 35.7-22.6 5.9-3.4 12.1-8.5 18.7-12.8-1.1-10-3.2-24.4-9.1-31.9-1.9-2.3-4.3-3.2-6.6-4-1.3 8.9-3.4 18.5-7.9 26.2-5.7 10-14.7 17.2-18.1 28.5-0.2 0.4-0.8 0.4-0.8-0.3 1-8.7 6.1-15.1 11.2-22.1 7.7-10.4 9.8-21.5 13-33.6-0.8-0.4-1.9-0.8-2.8-1.5-4.2 22.8-19.9 41.5-27.6 63.2-0.2 0.6-1.3 0.4-1.1-0.2 7.1-22.6 20.7-42.1 26.2-65.3-6.4-7.2-10.8-15.1-18.7-21.5-1.5-1-2.8-2.1-4.1-2.8-0.4 8.1-5.5 16.6-9.1 23.4-0.4 0.7-1.5 0.3-1.3-0.6 1.7-4.2 3.2-8.7 4.5-13 1-3.6 1.7-7.4 2.8-11.2-1.3-0.5-2.4-0.7-3.7-0.9-3.2 17.7-10.6 32.3-17.6 48.7-8.3 19.2-11.1 39.8-13 60.2 0 0.6-1.3 0.6-1.1 0 1.3-18.7 3-37.4 9-55.5 3-8.7 7.4-16.8 11-25.3 4.1-9.2 6.4-18.7 9.4-28.3-6.6 0-13.4 2.8-20.9 4.5-2.5 0.6-3.6-3.2-1-3.9 8.3-2.7 20.2-8 28.9-4.4 7.9 3.2 14.9 10.8 20.6 18 3.9-4.8 8.8-9.1 13.7-12.9 3.2-2.6 6.8-4.7 10.2-7.5 1.9-1.5 3.4-3.4 5.3-4.9 0.6-0.6 1-1 1.7-1.7-2.1-31.7 18.3-57 41.9-75.9 1-0.8 2.5 0 2.5 1.1 0.5 0 1.1 0.2 1.3 0.6 4.1 15.3-3.2 30.6-11.5 43.2-5.5 8.1-12.1 16.8-19.5 24 8-6.2 15.7-12.5 22.5-20.4 7.7-8.5 15.5-15.3 26-20.2 12.7-6.2 40.2-14.9 52.5-4.5 1.3 1.1-0.4 3.2-1.7 2.4-8.9-5.8-24.9-1.9-34.3 0.2q-7 1.6-14 4.4c3-1 6-2.1 8.9-2.9 0.9-0.2 1.3 1 0.5 1.5-13.9 4.4-25.6 11.7-36 21.4-1 1.1-2.1 2.4-3.2 3.4 23.2-13.6 52.6-16.8 77-27.4 0.9-0.4 1.5 0.6 0.9 1.3 0.4 0.4 0.6 0.8 0 1.3-13.4 12.3-25.8 27.6-44.3 32.3-10.6 2.7-21.7 2.7-32.3 5.3-9.6 2.3-18.3 6.4-27 10.6 21-1.5 45.9 1.1 62.1 13.9 19.8 15.5 17.4 44.4 20.2 67 0.2 1.4-2.1 1.4-2.3 0-0.5-3-0.7-6.2-0.9-9.2-0.4 0.2-1.1 0.2-1.5-0.2-1-1.7-2.1-3.2-3.6-4.7q1.6 4.5 1.9 9.6c0.9 2.5 1.5 5.3 3.4 6.4 0.5 0.2 0.2 1-0.4 0.8-3.2-1-1.3-0.6-3.4-3.2-4.3-4.6-5.7-10-11.9-13.4-8.9-4.6-17.2-9.3-24.9-16.1-8.1-7.3-14.7-15.6-20.6-24.5-8.8-13.6-19.6-17.9-35.1-16.2-1.1 0.9-2.4 1.5-3.2 2.2-6.8 4.4-14.1 7.6-19.4 14.2 0.9 1.3 1.9 2.4 2.8 3.4 3 3.9 4.7 6 8.5 7.7 0.9 0.4 2.1 0.2 3.2 0.4 2.8 1.1 4.7 3.6 6.2 6.2 5.7 9.3 7.4 21.2 8.3 32.1 5.7-3.6 11.9-6.4 18-6.4 12.4-0.2 23.2 10.6 31.3 18.5 1.7 1.5-0.4 4.1-2.3 3-1.3-0.6-2.6-1.5-3.7-2.3h-0.2c-25.7 3.4-44.8 16.3-62.1 35-10.8 11.7-21.2 23.7-34.9 32 0.3 0.6 0.3 1.2 0.3 1.9-0.3 1.4-1.5 2.9-3 4.2 8.7-5.3 16.1-12.7 24.7-19.8 10.2-8.5 21.2-17.6 32.9-23.6 22.8-11.5 49.6-6.8 72.1 3-0.4-2.1-1.5-4.5-4.2-7.4-6.4-6.8-15.3-9.8-18.7-19.2-0.5-1.5 1.7-2.1 2.3-1 7.4 12.7 24 15.3 25.5 31.4 0.4 5.4 1.3 9.2 3.4 14.5 0.9 2.3 2.1 3.2 2.4 5.7 0.4 7.1-4.7 13.2-4.9 20.7-0.5 13.8 0.8 28.9-9.2 39.7-7.8 8.5-19.8 11.1-30.6 8.1 0.4 8.5-0.9 17.3-3.4 24.9-1.7 5.3-4.9 10.4-6.4 15.8-0.6 2.5 0.7 8.2-1.5 10.4-3.2 3.2-7.2 1-11.2 0.2-2-0.4-1.5-3.8 0.4-3.6 1 0.2 4.4 0.8 6.4 0.2-8.8-13-17.1-25.1-30.5-34.1-13.4-8.9-27.2-11.9-42.9-12.7 3 1.9 7.2 3 10.4 5.3 1.7 1.3 0.2 4.1-1.7 3-3.6-1.9-7.7-2.8-11.3-4.3-4.2 2.6-9.5 2.8-14.4 3.9q-6.1 0.9-11.5 2.5c5.7 0.2 11.5 1.1 17 3.8 7.6 3.9 12.5 9.6 18.1 16.2 6.8 8.1 14 11.9 23.6 16.4 1 0.4 0.6 2.3-0.7 2.3-6.8-0.6-12.3-3.4-17.2-7.2-5.9 7.9-13.6 14.5-21.5 20.8 0 0.2-0.2 0.2-0.4 0.2-3.2 2.6-6.2 4.9-9.3 7.5-11.7 9.3-26 18.3-33 31.9 0.6 0.6 1 1.7 0.4 2.8-3.4 6.5-7.2 12.9-11.3 19.1 1.1-0.9 2.2-1.7 3-2.6 5.8-4.8 10.6-10 17.2-14 0.3-0.2 0.7-0.2 0.9-0.2 9.1-10 18.3-17.7 32.5-19.6 18.5-2.5 30 0 46.2 8.1 11.3 5.8 22.1 12.1 35.1 13 9.8 0.6 19.8-1.1 29.5-1.1 17.3 0 34.9 4.7 49.2 14.5 1 0.6 0.2 2.1-0.9 1.7-0.2 0-0.4-0.2-0.4-0.2 0 0 0 0-0.2 0-1.5-0.2-2.8-0.2-4.1-0.2 0.3 0.8-0.2 1.9-1.4 1.7-3.2-0.5-6.2-0.7-9.2-0.9-13.2 2.8-23.2 10.9-36.6 17.4-12.1 6-25.1 5.8-37.6 1.8-15.3-4.7-27.9-14.3-41.5-22.6-4-2.5-8.9-5.5-13.6-6.6-4.9-1-10.6-0.2-15.5-0.6-10.5-0.9-19.2-2.6-29.8-1.5-6.4 4.5-13.4 7.9-19.4 12.8-3.8 3.1-7.2 7-10.8 10.4-0.6 0.8-1.3 1.5-1.7 2.3 8.7-4.5 16.8-10 26.6-11.3 10.8-1.4 21.9 1.5 31.7 5.6 20.4 8.5 35.3 18.7 45.9 38.3 5.7 10.4 13 21.4 16.8 32.9 3.8 11.3-0.2 22.8 0.2 34.5 0.7 14.4 9.4 26.6 10.2 40.8 0.5 5.5-0.6 9.8-5.1 13.2-1 0.9-2.1-0.2-2.1-1.3-0.2 0-0.4 0-0.9-0.2-13.1-6.8-24-22.1-34-32.7-11.5-12.2-19.8-24.5-27.2-39.4-4-8.1-9.8-15.3-13.4-23.8-3-6.8-4.7-13.8-8.3-20.4-10.6-19-33.8-29.6-54.2-19.8q-3.9 4.1-7.7 8.3c-8.3 8.7-18.3 17.4-24.9 27.6-4.9 7.5-7.4 16.4-11.2 24.5-3.2 6.8-7.5 10.8-12 16.6-2.3 3.2-2.3 2.1-1.7 6.2 1.1 8 3.9 16.1 6.2 23.8 7.7 25.5 16.6 50.8 25.3 75.9 8.1 23.6 16.6 47 24.5 70.6 7 21.5 13.6 45.7 27.6 64 0.4 0.7 0.2 1.3 0 1.9-0.8 1.7-5.9 10.7-2.9 13.2 1.6 1.5-0.3 3.7-2 3.2-6.8-1-11.2-13.2-13.6-18.3-6.8-14-12.3-28.5-17.4-43.1-15.3-42.2-29.4-84.9-40.2-128.5-3.8-15.5-7.9-31.3-11.7-46.8-1.3-5.1-2.1-10.8-4.1-15.9-1-2.6-2.5-4.7-4-6.6-4.5-1.3-7-4.5-11.1-7.3-5.9-4-12.9-6.8-19.9-8.9-13.4-4.5-27.9-8.5-42.2-7.2-14.6 1-27.6 7.4-38.9 16.8 0.2 0 0.2 0.2 0.2 0.4-2.1 8.5-1 17.2-3.2 25.5 0.5 0.2 0.7 0.2 0.9 0.7 1 0.8 1.3 2.5 0.8 3.8-0.6 2.5-3.4 4.4-6.1 3.6-2.8-0.9-4.3-4-2.8-6.6 0.6-1.3 1.9-2.3 3.6-2.3 0.7 0 1.3 0.2 1.9 0.4 1.5-8.3 1.1-16.8 3.6-25.1-0.6 0.6-1.4 1.3-2.1 1.9-9.8 8.9-20.2 18.1-28.9 27.9 0.2 0.8 0.4 1.7 0.2 2.5 0 0.7 0 1.1-0.2 1.7-0.6 1.5-2.3 2.6-3.8 3-4.3 0.6-6-4-4.9-7.4 1-3.9 5.9-3.7 8.1-1.1 5.1-4.5 10-9.4 14.9-14-3.9 0.6-8.8 0.4-12.4-0.7-4-1-7.4-4.2-10.4-6.8-1.1 1.7-3.4 2.3-5.3 1.5-3-1.3-4.1-5.3-1.7-7.7 1.2-1.2 2.9-1.7 4.4-1 1.5 0.4 2.8 1.9 3 3.6 0.2 0.4 0.2 1.1 0.2 1.7 0 0.4-0.2 0.6-0.2 1.1 3.4 1.4 6.6 3.8 10.2 4.6-0.2-2.3 0-4.6-0.2-6.8-0.2-3.6-0.8-7-1.7-10.4-1.3 0.2-2.8 0.2-4-0.6-3.2-1.7-3.6-6.4-0.5-8.3 1.5-0.9 3.2-0.9 4.7-0.2 0.4 0.2 0.9 0.6 1.3 0.8 1.7 0.9 2.8 3 2.1 5.1q-0.6 1.6-1.9 2.6c1.1 3.4 1.7 6.8 2.1 10.4 0.3 2.5 0.7 5.3 0 7.9 3.9 0.4 7.9-0.3 11.7 1.2 0.3 0 0.3 0.3 0.5 0.5 4-4.1 7.8-8.1 12.1-11.7-3.8-0.9-6.8-2.4-8.3-6.4-1.1-2.6-1.7-5.3-2.4-8.1-0.4-2.1-1-4.2-1.2-6.4-1.9 1.1-4.3 0.9-5.8-1.5-2.1-2.9-0.6-7.4 3.2-8.3 4.1-0.8 7.3 3.7 5.1 7.1-0.2 0.4-0.4 0.6-0.8 0.8-0.2 0.4-0.5 0.6-0.9 0.9 0.9 4 1.7 8 3.4 11.9 0.9 1.9 1.9 4.2 3.6 5.3 1.7 1 3.9 1.3 5.8 1.5 0.4 0 0.6 0.2 0.8 0.4 10.7-9.1 22.4-16.4 37.9-18.3 14-1.7 28.1 1.7 41.7 4.9 6.4 1.5 12.5 3.2 18.5 6.2 3.2 1.5 6.4 4.2 9.6 6.6-6.6-12.2-11.9-24.7-19.2-36.6-3.8-6.4-7.4-12.8-10.8-19.4-0.2 0-0.5-0.2-0.7-0.4-11-8.9-27-8.5-39.7-14.5 0 0 0 0-0.3 0.3-4.8 2.1-9.1 2.3-14.4 2.1-3.4-0.2-7-0.9-10.4-0.7-6.8 0.2-9.6 3.4-15.3 6-9.2 4-22.4 5.5-32.4 3.8-16.6-2.7-32.1-17.6-49.1-10.8-5.8 2.3-12.8 9.8-18.7 6.4l-0.2 0.2c-1.3 1-2.8-0.7-1.7-1.7-0.3-0.5 0-0.9 0.4-0.9q-0.3-0.6 0-1.3c9.3-16.1 24.7-29.7 41.9-36.8 8.5-3.4 16.4-2.9 25.3-3.4 12.3-0.4 19.3-7.2 29.8-11.2-1.9-3.9-3.9-7.7-5.6-11.5-6.8-14.7-18.7-26-29.5-37.9-0.7-0.6-0.2-1.5 0.4-1.7-0.2-1 0.6-2.1 2.1-1.9 14.5 2.1 31.5 5.8 44.9 11.7 6 2.6 10.9 7 16.8 9.8 4 1.9 8.5 3.2 12.1 5.9 10 7.9 14.7 22.6 20.2 33.4 1.5 2.8 3.4 5.8 5.4 8.5q-8.7-27.4-13.4-55.5c-0.7 0-1.3-0.4-1.7-1-4.7-7.5-14.3-9-21.7-12.8-7.1-3.6-12.8-9.6-19.8-13-13.6-6.8-30.4-4.2-44.5-10.4-12.1-5.3-17.2-19.6-26.4-28.3-7.2-6.8-16.7-14.6-17.6-25.3 0-0.6 0.9-0.8 1.1-0.2 3.8 7 7.4 12.6 13.4 17.9 5.7 5.1 11.9 9.8 16.6 15.9 2.3 3.2 4.2 6 6.3 8.7 0 0 0-0.2 0.2-0.2 5.4-3.2 12.4-6.3 18.8-8.1-1.3-0.4-2.8-1-4.1-1.4-0.2 0.2-0.2 0.2-0.4 0.2-6 1-11.9 2.3-17.9 3.2-0.8 0.2-1.2-1.3-0.4-1.7 4.3-2 9.1-2.8 13.8-3.4-2.9-1.1-5.9-2-8.9-3.2-0.4 0-0.9 0.2-1.1 0.2-1.2 0.4-2.7 0.4-4 0.8-0.9 0.2-1.1-1-0.4-1.2 0.8-0.3 1.7-0.7 2.5-1.1-4.4-1.9-8.9-4.1-12.7-7.2-8.5-6.6-14.9-15.6-20.9-24.3 0 0 0 0 0-0.2-1.3 1.1-3.2-1.7-1-2.3 4.2-1.5 5.5-0.3 8.5 2.7 3.1 3.2 4.6 8.1 8.2 11.3 4.3 4 10.3 7.9 16 9.4 17.9 4.2 33.4-13 51.7-3.4 1.5 0.8 0.8 3.4-0.9 3.1-1.4-0.2-2.9-0.2-4.4-0.4 1.9 10.6 4.2 21.1 9.8 30.4v0.2c1.2 0.7 2.3 1.5 3.6 2.2-3-8.1-1.9-17.3-0.7-25.6-1-1.4-2.3-2.9-3.4-4.2-1-1.3 0.7-3 1.7-1.7 15.6 17 26.8 36.8 38.1 56.8-0.2-1.3-0.6-2.6-0.9-3.9-7.8-11.4-12.1-25-16.5-38-5.4-15.1-10.9-30.2-16.2-45.1-12.3-5.1-25.3-8.5-35.7-17.4-10.5-9.2-18.1-21.3-24.3-33.7-6.8-13.6-11.9-27.4-14-42.5-2.6-19.1-1.9-41.5-14.5-57.4-0.6-0.9-0.4-1.7 0-2.4 0.2-0.4 0.7-0.8 1.3-0.6 0.2 0 0.6 0.2 0.8 0.4 15.4 6.8 31.9 16 45.8 25.6 12.1 8.2 20.6 20.2 28.5 32.5 8.7 13.6 15.7 26.6 18.1 42.7 2.3 16.4 1 34.1-2.8 50-0.2 0.7-0.4 0.9-1.1 1.1 0 0.2 0 0.2 0 0.4 7.7 12.4 13.6 24.7 17.7 38.9 3.4 11.7 5.7 23.2 10.4 34.1-1.9-11.9-3.2-24.1-4.3-36.2-1.2-17-1.9-34.9 2.2-51.7 4-15.7 13.4-27.8 22.1-41 5.5-8.5 10.4-17.5 11.5-27.7 0.8-8.1 0.2-15.3 3-23.2 0.4-1.2 2.3-1 2.3 0.3 0.8-0.3 1.7 0.2 1.7 1.2q0 6.7 0 13.4c0.6 5.4 0.8 10.5 0.6 15.6 0 0.2 0 0.6 0 0.8 1.1 9.4 3.9 18.3 5.8 27.5 3 14.6 2.3 29.9-1.1 44.4 0 0.2-0.2 0.6-0.2 0.8 13.2 3.7 27.2-2.5 40 4.3 11 6 17.4 17.4 23.6 27.7 10.8 17.6 24.9 43.1 7.6 60.8 0.5 0.8 0.7 1.5 1.1 2.3 0.7 1.3 1.9 1.9 2.8 3 0.2 0.2 0.2 0.4 0.4 0.6q1-0.9 1.9-1.9c1.3-4 2.8-8.3 4.3-12.5 0.4-4.5 1.5-9 1.9-13.2 0.4-5.8 0.2-11.5 0.4-17.2-1.9-2.4-3.6-5.1-4.9-7.9 0 0 0 0-0.2 0-0.4-0.4-0.6-0.9-0.4-1.5q-0.3-1-0.7-1.9c-0.6-1.9 2.4-2.6 2.8-0.9 0.2 0.9 0.6 1.9 1.1 2.8 6.1 3.6 10.2 10.6 18.3 10.2 0.6 0 0.8 1.1 0.2 1.3-3.4 1-6.8 0-10-1.7-1.5-0.9-2.8-1.9-4.1-2.8 3 3.6 6.8 6.4 10.9 8.1 7.9 2.8 14.9-0.6 22.5-1.5 1.7-0.2 1.9 2.1 0.9 3-8.1 5.3-17 5.3-24.7 1.9v0.2c-5.7 7.5-8.3 17.9-11.3 27.5 0.9-0.9 2-1.5 3-2.4 1.3-1.1 2.8 0.9 2.1 2.1-0.2 0.5-0.6 0.9-0.8 1.3-1.5 10.4-2.6 22.6-5.3 33.8 5.5-7.4 11.5-14.6 17.2-21.9 6.2-7.6 12.3-15.1 16-24.2 2.5-6.2 4-12.8 5.9-19.4 0.2-0.8 1.7-0.8 1.7 0.2-3.2 30.9-25.1 55.8-44 79-0.7 0.8-1.5 1-2.4 0.8-2.7 5.5-6.3 10.6-11.2 14.5 0.2 0.4 0.2 1-0.2 1.4-5.4 10-7.9 21.5-11.7 32.2-3.7 9.5-7.7 19.1-11.1 28.9-6.6 18.9-2.1 37-3.8 55.9 1-0.8 2.5-1.5 3.4-2.3 3.8-3.6 6.1-8.1 8.5-12.6 4-8.5 6.6-17.8 11.9-25.7 5.7-8.7 13.8-16.2 21.1-23.8 17-18.3 31.9-37.2 43.3-59.4 0-0.2 0-0.6 0-0.8 9.4-30.2 18.5-62.5 37.9-88.1-12.8-3.8-26.4-0.2-41.1-1-0.8 0-1.2-0.7-1.2-1.3-1.1 0-1.9-0.9-1.3-1.9 1.5-2.6 3.8-4.7 6-7-0.3-0.5 0-1.1 0.6-1.3 0.2 0 0.4-0.2 0.6-0.2 0.2-0.4 0.5-0.7 0.7-1.1 1.2-1.9 2.3-4 3.2-6.2-0.5-4 1.7-8 2.5-12.1 0.9-5.1 0.6-10 0.6-15.1-1.4 0-2.9-0.6-4.2-1-2.8 4.6-5.3 8.3-9.8 11.7-3 2.3-9.4 6.3-12.5 2.1-3.2-4.1 3.1-6.4 6.1-7.2 5.1-1.5 10.2-4.1 13.9-8.1-0.5-0.2-0.9-0.7-1.1-0.9 0 0.2-0.2 0.4-0.4 0.7-0.5 0.4-1.1 0.8-1.7 1.2 0 0.2 0 0.5-0.3 0.5-0.2 0-0.2 0-0.4 0-4.9 3.2-12.3 4.9-16.1-0.3-2-0.4-3.9-1-5.8-1.7-9.1-3.8-16.1-10.4-25.9-12.5-0.5 4.7-0.7 9.4-0.5 14 17.3 8.3 29 31.5 51.1 20.4 0.4-0.2 0.8 0.5 0.4 0.7-19.8 13-34.9-8.5-51.2-17.7 0.2 4.9 0.6 9.6 1.2 14.5 6.6 2.1 11.7 6 17.5 9.8 10 7 17.8 8.7 29.7 5.1 0.7-0.2 1.1 0.8 0.5 1.1-7 3.1-13.9 5.1-21.3 2.3-9.6-3.4-16.4-11.3-25.7-14.7 0 0.7 0 1.1 0.2 1.5 0.2 1.5-2.4 1.9-2.8 0.4-2.3-11.2-3.6-23.4-2.1-34.9 1.7-13.3 5.9-25.7 4.5-39.3-2.4-18.9-13.9-34.2-21.3-51 1.7 12.3 4.5 24.4 5.9 36.8 1.1 8.9 0.9 17.8 2.2 26.8 1 9.1 4.9 16.1 7.6 24.6 0.2 0.9-0.8 1.5-1.5 0.9-10.2-10.9-10-30.4-11.2-44.7-1.5-18.5-6.2-36.6-7-55.1-0.7-2.1-1.3-4.2-1.8-6.6-0.2-1.2 0.9-1.9 2-1.7 0.4-0.2 0.8-0.2 1.5 0.2 4.2 3.4 9.3 4.1 14.4 4.1-3-6.6-5.7-13.2-8.7-19.8-0.4 0-1.1 0-1.5-0.4-16.2-11.3-36.4-16.4-55.9-17q-3.5 7.3-10.9 14c-0.2 0.2-0.4 0.2-0.6 0.4 0.4 1.1 0.4 2.4-0.2 3.2-1.3 1.9-4.7 3-6.4 1.1-1.7-1.7-1.1-4.7 1.1-5.8 0.8-0.4 1.7-0.4 2.5-0.2 0.2 0 0.2 0 0.4 0 0.2 0 0.2 0 0.5 0 0-0.4 0.2-0.6 0.4-1 0.8-0.9 1.9-1.7 2.7-2.8-5.7 1.1-11.7 1.9-17.2 2.1 0 0 0 0-0.2 0 0.2 0.4 0.2 1.1 0 1.7-0.6 2.4-3.6 3.4-5.5 2.4-2.1-1.3-3-4.1-1.9-6.4 1-2.1 3.4-2.8 5.5-2.1 1.5 0.4 2.1 1.7 1.7 3.1 6.2-2.1 13.8-2.9 20.4-3.6 1.7-1.9 3.2-4 4.5-6.1-1.7-0.5-3.9-0.9-5.8-1.7-5.7 0.8-12.1 0-17.8 0-0.5 0-0.7-0.3-0.9-0.5 0 0.2 0 0.2-0.2 0.5-1.3 2.1-4.3 2.1-6 0.4-1.9-1.9-1-5.3 1.3-6.2 2.4-0.8 5.3 1.1 4.9 3.6 0 0.2 0 0.2 0 0.5 0.2-0.3 0.4-0.3 0.7-0.3 4.2 0 8.7-0.4 13.1-0.2-0.4-0.2-0.6-0.4-1-0.8-2.8-2.1-4.5-5.6-7-7.9v0.2c-1.7 2.8-5.6 1.1-6.2-1.7-0.6-3.2 3.4-5.7 5.7-3.4 0.9 0.9 1.1 1.9 0.9 3v0.2h0.2c3.2 0.7 4.7 3.8 6.8 6 2.3 2.1 5.5 2.9 8.5 4-0.4-1.5-0.6-2.8-0.6-4.5-0.5-5.5-0.9-10.6-1.9-16.1-0.7 0-1.1 0.2-1.7 0h-0.3c-3.8 0.8-5.7-3.9-2.7-6.2 2.5-1.9 7.4-1.5 7.4 2.6 0 1.2-0.4 2.1-1 2.7 2.1 7 1 16.2 4.8 22.6q0.7-1.6 1.3-3.2c2.2-7.5 1.1-15.3-0.2-22.8 0-0.2 0-0.2 0-0.2-0.6-0.2-1.3-0.6-1.7-1.3-0.2-0.4-0.4-0.6-0.4-1-0.9-2.2 0-4.9 2.5-5.6 2.8-0.6 5.4 2 4.3 4.5 0 0.4-0.2 1.1-0.4 1.5-0.2 0.2-0.2 0.4-0.5 0.4-0.2 0.4-0.6 0.9-1 1.1 2.5 10.2 2.3 18.9-0.7 27 16.4-0.4 38.5 1.7 52.6 11.9-5.6-11.7-11.5-23-19.6-33.8-14.4-19.8-32.3-35.5-51.7-50.2-0.2 0.4-0.4 0.6-0.8 0.8-4.9 2.4-9.8 0.3-14.1-2.5-4.6-2.8-10.2-6-13.6-10.2q-0.3 0.3-0.6 0.6c-17.2 9.6-34.9 19.4-55.3 16.8-13.8-1.7-27.7-8.9-40.2 0.2-10 7.3-16.2 19.6-23.4 29.4-0.6 0.8-2.3 0-1.7-0.9 9.1-14.6 20-36.5 39.6-37.8 12.9-0.9 24.8 5.3 38 3.8 14.3-1.5 28.5-8.1 41.3-14.5 1.1-0.6 2.1 0.3 2.5 1.1 0.2-0.2 0.7-0.4 0.9-0.2 7 2.8 11.9 7.7 18.7 9.8-0.4-0.5-0.8-0.7-1.3-1.1-2.1-1.7-4.2-3.4-6.1-4.9-0.7-0.6 0.2-1.7 1-1.3 2.6 1.5 5.1 2.8 7.5 4.3 0.4 0.2 1 0.6 1.5 0.9-1.3-1.3-2.6-2.6-3.7-3.9-2.5-2.3-4.9-4.7-7.4-7-0.6-0.6 0.2-1.7 0.8-1.3 2.6 1.9 5.4 3.9 7.9 6 1.9 1.5 3.8 3 5.5 4.7v-0.2c-1.4-2.4-3.4-4.5-5.3-6.2-3.2-3-7.6-5.8-10-9.4-1.9 2.8-4.4 5.6-6.8 8.1-1 1.1-2.5-0.4-1.5-1.5 8.3-8.9 11.7-16.6 11.5-28.7 0-8.1-0.2-15.9 1.3-23.8 1.1-7 3.4-14.3 7.4-20.2 3.2-4.9 18.8-14.9 13.9-21.5-1.3-1.7 1.7-4 2.9-2.3 3 3.8 3.5 7.6 0.9 11.9-1.3 2.1-3.4 4-5.3 5.7 1.5 3.2 1.5 6.8 1.5 10.2q0 1.6 0 3.2c7-14.7 10-30.4 6.1-48.3-4-19.1-17.4-36.6-15.3-56.1-1.9 5.5-7.6 7-9.3 14 0.8 10.4 0.8 20.2 5.1 30.2 0.2 0.7-0.9 1.1-1.1 0.4-2.3-5.3-4.7-11.2-5.9-17.4-0.3 1.1-0.5 2.1-0.5 3.2-1.7 10 5.8 17.9 10 26.6 2.6 5.1 4.1 10.2 4.5 15.7 0.8 0 1.9-0.2 2.8 0 2.3 0 2.3 3.4 0 3.6-1.1 0-2 0.2-3 0.5-2.4 2.5-1.3 5.5-1.9 8.9-0.3 0.6-1.3 0.6-1.3-0.2 0.2-2.4-0.9-5.3-0.7-7.9-0.2 0-0.6 0.2-0.8 0.4-0.6 1.3-1.5 2.4-1.9 3.6-0.7 2.6 0 5.2 0.6 7.7 0.2 0.6-0.8 1.1-1 0.2-0.7-2.3-2-6.4-1.7-9.8-1.3 1.1-2.6 1.9-3.2 3.9-0.7 2.3-0.9 4.9-1.1 7.2 0 0.6-1.1 0.6-1.1 0 0-1.7-0.4-3.4-0.4-5.1-1.1 1.7-2.5 3.2-3.2 4.9-1.5 3.8-1.5 8.3-1.2 12.3 0 0.9-1.3 0.9-1.3 0-0.7-4.4-1.3-8.9-0.5-13.4-4.8 5.3-9.3 11.3-14.6 15.8-0.9 0.8-1.9 1.4-2.8 2.1 1.5 0.6 2.8 2.1 3.8 3.4 1.3 1.5 2.4 3.2 3.2 4.9 0.5 0.6-0.6 1.3-1 0.6-0.9-1.7-2-3-3.2-4.2-1.3-1.1-3-1.7-4.3-3-0.2-0.2-0.2-0.2-0.2-0.4-1.1 0.8-2.1 1.5-3.2 2.3 3.6 3 6.8 6.6 9.8 10.4 3 3.9 6.8 9 6.4 14.1 0 0.2-0.4 0.4-0.7 0-1.7-10-10-17.5-18-22.6 0 0 0 0-0.3-0.2-0.2 0.2-0.4 0.2-0.6 0.4 1.3 1.1 2.4 2.4 3.4 3.4 1.7 1.7 3 3.6 4.3 5.6 0.4 0.6-0.7 1-0.9 0.4-1.3-1.9-2.5-3.6-4.2-5.1-1.5-1.3-3-2.1-4.5-3.2-1.3 0.6-2.3 1.5-3.6 2.1 6.8 3.4 12.3 9.6 16.6 15.8 0.4 0.4-0.5 0.8-0.9 0.4-5.1-6.6-11.9-10.4-18.9-14.3-0.2 0.2-0.4 0.2-0.6 0.5 1.4 0.8 2.9 2.3 4 3.4 2.1 1.9 4.5 3.8 6.2 6.1 0.4 0.7-0.5 1.1-0.9 0.7-2.1-1.9-4-4.1-6.6-5.8-1.7-1-4-1.5-5.5-3-2.1 1.1-4.5 2.2-6.6 3.2-3.2 1.5-6.4 2.6-9.4 3.4 9.8 4.1 18.5 14.1 24.3 21.7 0.4 0.5-0.2 1.3-0.7 0.7-4.8-4.9-9.5-10-15.1-13.8-4.4-3.2-9.3-4.7-14-6.9h-0.2c3.4 1.7 6.8 4.1 9.8 6.4 0.6 0.5 0 1.5-0.7 1.1-4.2-2.8-8.9-4.3-13.6-6.2-1 0.2-1.9 0.4-2.9 0.7 4 1.2 7.8 3.4 11.2 5.7 4.7 3.2 9.6 6.4 12.8 11.1 0.2 0.4-0.4 0.8-0.7 0.6-8.3-8.5-18.2-12.5-29.7-15.3-0.5 0-0.7-0.2-0.9-0.4-3.4 0.6-6.6 1.4-10 2.5-0.4 0.2-0.8 0.2-1.3 0.4 17.7 0.3 35.8 11.5 45.1 25.3 0.2 0.5-0.4 0.9-0.6 0.5-14-17.7-31.5-22.2-53-21.7-0.6 0.4-1.2 0.8-1.9 1.5 10.7-1.5 23.2 3.4 31.5 8.7 0.6 0.4 0 1.3-0.4 0.8-6.4-3.8-13-6.1-20.4-6.3-5.1-0.3-9.8 1-14.9 1.4-1.1 1.5-2.2 3.2-3 5.1-1.3 2.8-2.3 5.6-4.1 7.9 10.9 1.1 21.3 6 28.6 14.3 0.4 0.4-0.3 0.8-0.7 0.6-7.9-7.2-17-11.1-27.2-11.5 5.1 1.5 10.2 3.6 14.9 6.2 0.6 0.4 0 1.3-0.7 0.8-6.6-2.9-13.4-4-20.4-4.9-0.4 0-0.8 0-1.3-0.2h-0.2c-1.9-0.2-2.1-3.2-0.4-3.4 0.2-0.2 0.4-0.6 0.6-0.8 0-0.2 0.3-0.4 0.3-0.7-19.6-8.9-41.5-12.5-62.8-9.5-10.8 1.5-21.3 4.7-31 9.3-4.5 2.2-11.3 5.1-14.3 9.2-1.3 1.7-1.7 3.4-1.9 5.1 7-3 13.6-8.5 20.2-11.9 6-3.2 11.9-5.8 18.3-7.9 13.4-4.2 27.2-5.1 41-2.3 0.7 0 0.3 0.8-0.2 0.8-17.4-3.2-34.6 0.9-50.6 8.3-9.6 4.5-18.5 13-28.5 16.4 0.2 1.5 0.9 3 1.3 4.5 15.5-8.3 28.7-17.3 46.1-21.7 16.6-4.3 35.1-8.6 51.5-2 0.4 0.3 0.2 0.9-0.2 0.9-18.1-6-38.5 0-56.2 5.5-9.1 3-18 6.8-26.1 11.9-4.7 3-8.9 6.2-13.8 8.3 0.4 0.9 0.6 1.5 0.8 2.2 0.9 2.5-3.2 4-4.2 1.7-2-4.3-4.1-7.7-4.9-11.1-0.2-0.4-0.2-0.9-0.2-1.3-0.7-3.2 0-6.4 2.9-9.8-3.8-1.7-7.2-4.2-9.3-8-3.4-6.2-1.1-10.9-1.5-17.5-0.7-7.6-4.1-6.8-1.3-13 2.3-5.1 6-8.3 7.2-14.2 1.1-4.7 1.1-9.4 1.3-14.3 0.2-5.3 0.9-10.6 2.4-15.7-0.3-0.6-0.3-1.3 0.4-1.7 1.9-5.3 4.9-10 10-13.6 9.3-6.4 20.2-5.5 29.3 0 1.5-5.5 3-11.1 1.5-17.2-3.2-13.2-8.5-34.5 8.1-41.3 4.3-1.7 8.9-1.7 13.4-2.3 9.4-1.5 14.7-5.1 23-9 5.9-2.7 11-3.2 16.6 0 2.1 1.3 0.2 4.3-2 3.2-10.6-5.5-19.3 5.8-28.9 8.3-3.4 0.9-6.8 0.9-10.4 0.9 24.7 14.2 44 38.2 62.1 59.5 0.4 0.4-0.2 1.3-0.6 0.6-21.3-21.2-39.6-45.9-66.8-59.9-0.9 0-1.7 0.2-2.6 0.4 5.6 3.2 10.2 7.9 14.7 12.3 0.4 0.5-0.2 1.1-0.6 0.7-5.3-4.9-11.5-8.1-17.5-11.7-14.2 6.6-9.5 21.2-6.4 34.4 19.4 23.6 43.2 41.9 73.2 49.6 0.6 0.2 0.4 1.3-0.2 1.1-27.9-6.6-53-22-71.3-43.9 0.5 2.6 0.7 4.9 0.5 7.3 3.4 6.4 10.2 9.7 15.5 14.4 0.4 0.2-0.2 0.9-0.4 0.7-5.3-3.9-11.3-7-15.6-11.9-2.1 9.3-5.9 17.8-0.2 27 7.7 11.7 20 10.4 31.9 8.9 12.6-1.7 22.2 1.5 33.2 6.6-1.5-1.9-1.9-4.3-0.8-6.6 0.4-1.3 2.5-1.7 3.6-1.1 1.3 1.1 1.9 2.2 2.7 3.7 1.1 1.4 2.8 2.5 4.1 3.8 2.8 2.3 5.5 4.2 8.7 6.2 0-1.1 0-2.2 0.2-3 0.4-2.2 1.5-3.4 3-3.8h-0.2c-2.8-1.3-4.9-3-7.2-4.9-2.4-2.2-4.7-4.5-5.4-7.7-0.6-4 5.6-6 6.4-1.7 0.4 2.3 0.4 4.7 1.5 6.8 0.9 1.9 2.8 3.4 4.7 4.3 0.2-2 1-4.1 2.7-4.9 2.2-1.3 4.9-0.9 6.2 1.2 0.2 0.5-0.2 0.9-0.6 0.5-1.3-1.1-3.2-0.7-4.3 0.4-1.7 1.5-0.8 3.4 0 4.9 0.2 0.2 0.2 0.4 0.5 0.8q0.3 0 0.6 0c0.8 0.3 0.6 1.5-0.2 1.3 0 0 0 0-0.2 0 0 0.6-0.2 1.3-1.1 1.7 0.6 0 1.3 0.6 0.9 1.5-3.5 6.8-4.7 16 0.8 22.1 3-1 5.7-2.1 8.9-2.7-3.2-1.1-5.9-5.6-7.4-8.3-2.1-3.9-2.6-7.9-1.7-12.2 0.2-0.6 1.3-0.6 1.3 0.2 0 4.5 0.8 8.6 3.4 12.2 1.7 2.3 4.6 4 5.7 6.8 0.2 0.2 0 0.6-0.2 0.8 3.4-0.8 7-1.5 10.6-2.3-4.6-8.1-11.9-13-18.5-19.6-0.2-0.2-0.2-0.4-0.2-0.6-0.4-0.9 0-2.1 1.3-2.1l-0.2-0.3c-0.7-2.1 0-4.2 1.3-5.9-0.3 0-0.3-0.2-0.5-0.2-1.2-1.7-2.1-3.6-3.6-5.1-1.3-1.5-2.8-1.9-4.5-2.8-3.1-1.9-7.4-3.8-9.5-6.8-1.5-1.9 0.4-4.5 2.5-4.7 4.1 0 8.5 3.8 10.7 7 1.2 1.7 1.9 4.1 3.2 5.8 1 1.7 2.3 3.4 2.9 5.3 0.9-0.6 1.7-1.1 2.6-1.5 1.3-0.4 2.5-0.6 4-0.4-1.5-3.2-2.7-6-5.7-8.3-1.5-1.1-2.8-2.1-4.3-3-1.5-0.8-2.5-1.7-2.9-3.4-0.5-1.9 0.8-3.2 2.5-3.4 3.6-0.4 6.8 4.5 8.3 7.2 1.9 3.4 4.5 6.8 5.1 10.9v0.2c2.1 0.6 4 1.7 5.3 3.2 1.9 0.2 3.9 0.8 5.6 1.5-1.5-3-3.7-5.8-5.8-8.5-2.1-2.8-5.3-5.3-6.4-8.8-0.8-2.5 2.2-4.2 4.3-3.1 1.3 0.6 2.3 1.5 3.2 2.7-4.9-13.6-10.7-25.9-22.8-36.3-3 0.8-6.2 1.4-9.3 1.4-21.7 0.7-23.2-23.8-22.6-40.4 0-1 1.7-1 1.7 0 0.2 7.7 0.7 20.2 5.1 27.3 6.2 10 16.6 9.3 26.6 6.5 4.3-1.2 8.5-2.5 12.8-2.9-2.8-1.1-5.4-2.2-8.3-2.8-6-1.3-13-1.3-18.5-4-10.9-5.6-10.9-20-19.6-27.7-1.3-1 0.6-3 1.7-1.7 3.8 3.6 6 7.9 8.3 12.4 1.3 2.5 2.5 5.5 4.2 7.8 5.2 7 11.1 7.5 19 8.7 1.3 0.3 2.5 0.5 3.6 0.7-6-12.1-7-21.3 0.2-33 3.2-5.3 3.6-12.1 7-17 3.4-4.9 10-6.4 14.3-10.4 0.8-0.9 1.7-1.7 2.3-2.6 0-0.8 0.6-1.5 1.5-1.7 4.9-5.5 8.5-9.8 17.7-5.3 5.1 2.6 8.3 6.6 14.4 7.5 4.7 0.6 9-1.8 13.6-1.5 4.7 0.2 8.1 1 11.3 4.8 1.7 2-1.1 4.9-2.8 2.8-0.2-0.2-0.6-0.4-0.8-0.8 0.6 18.9 0.4 38 2.5 57 1.7 16.3 10.9 30.8 13 47.2 2.8-1.9 5.8-3.6 8.9-4.5-1.2-15.5-17.4-29.3-15.5-44.6 0.2-1.3 1.7-2.2 2.2-3.4 2.3-6.2 1.4-7.7 2.9-13.2 0-0.2 0-0.2 0-0.5 0-0.4 0.2-0.8 0.2-1 0-0.5 0.2-0.7 0.7-0.9 2.5-4.7 8.3-6.6 9.8-12.1 0.2-1.1 1.4-0.9 1.9-0.2 0.2-1.1 0.4-1.9 0.6-3-0.6 0.4-1.3-0.2-1.3-0.6 0-5.1 2.2-10.9-1.2-15.3-3.4-4.7-11.1-3.2-16.4-2.4-4.1 7-1.9 17.9-2.4 25.8 0 0.6-0.8 0.6-1 0-0.2-5.6 0-11.1 0-16.6 0-4.3-1.1-7.7 1.5-11.3 0.8-1.1 2.3-0.6 2.5 0.4 6-1 13.6-3 17.9 2.4 2.1 2.7 3.8 9.7 2.5 14.4 0.5 0.2 0.7 0.7 0.7 1.1-4.9 17.4 3.8 31.9 10.2 47.4 4.7 11.3 7.2 22.8 6.8 34.9-0.6 24.9-13.2 45.7-29.6 63.8q-0.6 0.6-1.2 0.6c0 4.1-0.3 8.1-1.1 12.2-0.7 3.8-2.1 7-4 10.2 4.8 1.7 9.7 6.4 13.1 9.8 2.6 2.5 6.6 6.8 6.8 10.8 19 12.8 35.4 30 49 48.1 14.4 19.5 28.9 43.4 34 67.4 0 0.2 0 0.2 0 0.2q1 0 1.9 0c-1.9-7.6 3.2-17.9 5.7-24.9 0.3-0.8 0.7-1.7 0.9-2.5v-0.2c-0.4-7.9 0-15.8-0.4-23.7-0.5-7.8 1-19.3-2.8-26.5-0.2 0-0.4 0.2-0.6 0.2-15.1-0.2-27-9-35.6-20.9-8.9-12.5-19.5-32.7-19.1-48.7 0-1.7 0.2-3.4 0.6-4.9 2.2-3.6 3.7-7.6 4.5-11.9-0.2-3.8-0.6-7.4-1.5-11.3-1-7.4-0.6-12.9 1.7-20.2 3.2-10 4.7-18.7 5.3-29.1 0.5-7.7 1.5-14 5.8-20.6 0.6-0.9 2.1-0.2 1.5 0.8 7.2 15.1 11.5 31.5 17.2 47.2 6 16.8 14.7 32.4 22.5 48.3 9.6 19.4 22.4 53 1.5 70-0.4 0.2-0.6 0.4-1 0.4 3.4 6.2 4.2 14.7 5.3 21.1 0.2 2.1 0.6 4 0.6 6.1 2.4-9.9 7.9-19.1 13.2-28 4.1-6.8 8.3-13.4 13-19.8 0-3.4 1.3-6.8 2.1-10 0.9-3.4 1.3-6.6 1.3-10-0.6-0.2-1.1-0.6-1.5-1.3-5.5-17-10.4-35.7-13.2-53.4-1.3-9.1-0.4-18.2 1.7-27.4 0-0.2 0-0.4 0.2-0.6 1.9-8.5 4.9-16.8 7.9-24.7 0.4-1.1 1.7-0.9 1.9 0 0.4-0.4 0.9-0.4 1.1 0.2 15.7 33.6 21 72.1 5.3 107-0.2 0.6-0.6 0.8-1.1 1.1 0 3.4-0.2 6.5-0.2 9.9q0 1.3 0 2.6c3-3.4 6-6.6 9.2-9.6 5.3-4.7 11-9.1 16.8-13.2-0.7-7.4-0.7-14.6 0-21.9-0.5-0.6-0.5-1.2 0.2-2.1 0 0 0-0.2 0.2-0.2 0.6-5.8 1.7-11.5 3-17.2 0.2-17.7-0.9-33.6-6.4-50.9 0 0 0-0.2-0.2-0.2-9.4-2.1-20.9-1.7-26-11 0 0 0 0-0.2 0.2-1.3 0.8-2.7 0.6-4 0-1.1-0.2-1.9-0.7-2.6-1.7-2.1-3.4 1.5-6.8 4.9-6 2.8 0.7 4.1 3.4 3.2 5.8 2.3 1.9 4 4 6.2 5.5 0.2-0.9 0.4-1.7 0.4-2.8 0-1.5-0.4-3.2-1.1-4.7-1-2.9-2.9-5.7-4.6-8.3-0.7 0.3-1.3 0.3-1.7 0-1.5-0.4-2.2-1.9-2.4-3.4-0.2-3.1 3.6-6.1 6.2-3.6 1.5 1.5 1.3 3.6 0.2 4.9 0 0.2-0.2 0.7-0.2 0.9-0.2 0.2-0.2 0.4-0.4 0.4 3.8 4.9 8 11.5 5.9 18.1 0.9 0.4 1.9 0.8 3 1 3.6 0.9 7.4 1.1 11.3 1.5-0.3-0.4-0.3-0.8-0.7-1-0.6-0.9-1.3-1.7-2.1-2.6-1.5-1.5-3-3-4.3-4.7-0.8 0.5-1.7 0.5-2.7 0.2-2.8-0.8-3.9-4.2-1.9-6.3 1-1.3 2.5-1.5 4-1.1h0.4c1.5 0.4 2.8 1.7 2.6 3.6 0 1.3-0.7 2.1-1.5 3 1.9 1.3 3.6 2.6 5.3 4.3 1.1 1 2.6 2.5 3.4 4.2 0.4-0.6 0.7-1.5 1.1-2.1-0.4-0.2-0.7-0.7-0.7-1.1 0-4-2.3-7.6-3.6-11.5-0.2 0-0.4-0.2-0.6-0.4-1.7-2.3-3.2-4.3-5.5-6.2-2.2-1.7-4.5-3.6-5.8-5.9 0 0 0 0 0-0.2-1.7 0.8-3.8 0.4-4.9-1.5-1.3-2.6 0.4-6.4 3.4-6.4 1.5 0 2.8 0.8 3.4 1.9 0.7 1.3 0.5 2.6-0.2 3.6 0 0.2-0.2 0.7-0.4 0.9 0 0.2-0.2 0.2-0.4 0.4h0.2c2.7 2.1 4.7 5.1 7.6 7 0.7 0.4 1.5 0.9 2.2 1.5-0.3-2.1-0.3-4.2 0.2-6.6 0.2-1 1.9-0.8 1.7 0.2-0.5 5.1 0.4 9.6 2.7 14.3 1.1 1.9 2 3.6 2.4 5.5 0.6-1.9 1.5-3.6 2.5-5.3-2.3-1.9-2.3-5.7 0.2-7.5 1.3-0.8 3-0.8 4.5-0.2 1.3 0.7 2.1 1.7 2.4 3.2 0.4 0.7 0.4 1.5 0.2 2.6-0.7 2.3-3.4 3.4-5.6 3-2.3 4.2-2.7 10.6-6.1 14.2 4.9 11.1 8 23.6 8.9 36.2 3.2-9.2 7.4-17.9 12.3-26.2 0 0 0 0 0-0.2-1.2-2.4-0.2-6.8 0-8.9 0.5-3.7 0.9-8.3 2.8-11.7-1.1 0-2.1-0.3-3-0.3-1-0.2-2.1-0.8-1.9-1.9 0-3.6 0-7.4 0.2-11-8.3 0.2-15.1-3-20.4-8.5-0.4 1-1.3 1.9-2.6 2.1-1.9 0.4-3.6-0.6-4.2-2.3-0.2-0.9-0.2-1.7 0.2-2.4 0.2-0.4 0.4-0.6 0.6-0.8 0-0.3 0-0.3 0-0.5 0.3-0.8 0.9-1.2 1.5-1.2q-2.5-3.9-4.4-8.3c-9.2-21.5-17.5-40.7-36-56-0.4-0.4-0.4-1-0.2-1.5-7.2-6.1-12.8-14.8-14-24.2-0.2-1.7 2.5-1.9 3-0.4 4.8 15.3 12.3 22.1 27.2 27.8 7.4 2.8 13.8 6.6 18.9 12.8 12.8 15.5 10 67 40.4 55.9-3.6-5.9-10-8.5-14.9-13.4-4.2-4-7-8.7-9.3-14-5.8-13.4-6.6-28.5-13.2-41.5-11.5-21.9-35.3-34.2-43.4-58-2.1 3.8-3.6 7.6-3.8 11.2-0.2 5.6 2.3 8.5 0.2 13.6-1.1 2.4-4.5 0.7-4.1-1.7 1.1-5.9-3.2-10-1.2-16.1 2.1-6.6 7.2-13.6 11.7-20 0-0.7 0.4-1.3 1-1.5 1.1-1.5 2.1-3 3-4.5 3-5.1 6.2-11.7 11.7-14.4 4.9-2.4 10.4-1.7 15.5-1.9 0.4-0.3 0.9-0.3 1.5 0 3-0.3 6-0.9 8.7-2.8 0.7-0.4 1.3 0.2 1.3 0.8 0.4 0 0.9 0 1.3 0.7 13.8 24.2 26.8 48.7 31.2 76.5 0.3 0.9-1 1.1-1.2 0.5-4.7-27.7-18.5-51.7-32.4-75.7-0.2-0.3-0.2-0.5-0.2-0.7-2.1 1.5-4 2.3-6.3 2.8 10.4 10.8 15.7 25.3 21.6 38.7 6.4 14.4 14.1 28.9 15.4 44.9 0 0.4-0.9 0.6-0.9 0.2-2.5-16.2-10.8-30.7-17.6-45.3-6.2-13.2-11.5-27.5-22.4-37.7h-0.2c-7.6 0.9-11.7-0.2-17.9 7.3-2.3 2.9-4.2 7.2-6.1 10.4-0.7 1-1.5 2.3-2.1 3.4 9.3 12.1 15.7 26.6 26.5 37.8 0.5 0.5-0.2 1.3-0.8 0.9-11.5-10-18.7-23.6-27.7-35.7-1.2 1.7-2.3 3.6-3.6 5.3 0 0.2 0.2 0.2 0.2 0.4 7.9 26.4 35.6 39.3 46 64.2 5.5 13.4 6.1 28.5 13.2 41.3 5.3 9.6 16.1 14.2 21 23.6 0.2 0 0.2 0 0.4-0.2 1.5-0.6 2.6 1.7 1.5 2.8-1 1-2.1 1.9-3.4 2.5-0.2 0.6-0.6 1.3-1.5 1.5-1.7 0.4-3.4 0.8-4.9 1.1 0.3 3.2 0.3 6.3 0.3 9.5 6.1 0.5 12.5 0.9 18.7 1.1 0.2-0.2 0.4-0.6 0.6-0.9 4.1-2.3 7.9-5.5 11.3-8.9-0.2 0.2-0.7 0.4-0.9 0.4-2.5 1.5-4.9 3.2-7.2 4.7-0.6 0.4-1.3-0.6-0.8-1 2.1-2 4.4-3.7 6.5-5.6 1.7-1.5 3.9-3.6 6-4.2 0 0 0 0 0.2 0 0.4-0.5 1.1-0.7 1.9-0.5 3.9 0.9 7.3 1.3 10.7 1.5q0.9-0.9 1.9-1.9c1.5-1.5 3-2.7 4.2-4.2 0.5-0.7 1.5 0.2 1.1 0.8-1.3 1.9-2.8 3.8-4.3 5.5 10.5 0.3 19.6-1.7 30.9-4.8 12.5-3.5 24.9-3.2 37.6-2 0.7 0 0.9 1.1 0 1.1-9.3 0.4-19.3 0.6-28.5 2.3-6.1 1.3-11.5 3.7-17.4 5.6 11.5 2.9 21.9-1.5 33.4-3.6q12.4-2.3 24.9-0.7c19.7 2.4 38.9 11.9 56.8 20.7 6.3 0.8 12.9 0.8 20.6-1.1 3 3.4 3.4 5.1 2.3 5.5zm-107.2 399.9c1.5-4.5 2.4-8.5 2.8-12.6-0.4 0-0.9-0.2-1.1-0.8-9.8-14.7-26.3-17.5-42.9-17.7-15.1-0.2-30 0.4-44.9 3.4q0 0.3 0 0.7c0.2 2.1 1.1 3.6 2.1 4.6 30.2-4.8 61.9 17.1 76.2 43.2 0.4-2.1 0.8-3.8 0.6-3.4 0.2-0.8 0.4-1.7 0.8-2.5-4.2-3.9-7.2-9.2-11-13.4-3.8-4.3-8.3-8.1-12.3-12.2-0.5-0.4 0.2-1 0.6-0.8 5.1 3 9.3 7 13.6 11.3 3.6 3.6 8.1 7.4 10.6 11.9 1.7-3.9 3.6-7.7 4.9-11.7zm-81.6-416.9c-0.5 0.4 0.2 1.3 0.6 0.6 1.1-0.8 2.1-1.7 3.2-2.7 1-0.9 1.9-1.5 2.7-2.6 1.1-0.8 1.5-2.7-0.2-3.4-2.7-1.5-5.5-3-8-4.9-0.9-1.7-1.5-3.4-1.7-5.1-0.5-2.7-0.3-5.7-0.3-8.5 0-0.6-0.8-0.6-1 0-0.2 3.2-1.1 7.2-0.9 11.1-7.8-6.2-14.4-14.1-18.7-23.2-5.1-11.1-6-23.4-7.6-35.5 1 1.9 2.3 3.4 3.6 4.6-0.9 5.4 0.6 12 2.5 16.6 0.2 0.9 1.5 0.5 1.3-0.4-0.9-3-1.5-5.9-1.7-9.1-0.2-1.9 0-3.6 0.2-5.3 1.1 0.6 2.3 1 3.6 1.2 0.9 0 1.1-1 0.7-1.5-1.5-1.7-3.7-2.7-5.4-4.4-2.1-2.2-3.6-4.7-4.6-7.5-0.5-1-0.9-2.3-0.7-3.6-0.6-2.3 0.9-3.4 4.5-3.4q0.3 0.6 0.6 1.3c1.9 3 2.2 7.9 1.5 11.3-0.2 1 1.5 1.7 1.7 0.4 1.1-4.7 0.9-10.2-2.3-14.3-2.1-2.5-5.5-2.5-7.2 0.5-0.7 1-0.9 2.5-1.1 4-0.2 0.2-0.4 0.4-0.4 0.6-0.3 15.4 0.6 37.9 8.7 51.7 4.9 8.3 12.1 17.7 20.8 23.2-1.5 1.7-3 3.6-4.2 5.5-1.9 2.6-3.9 5.1-5.6 7.9-0.4 0.6 0.5 1.1 0.9 0.4 1.9-2.5 4-5.3 6.4-7.6 1.5-1.7 3.4-3.2 4.9-4.9 0.6 0.4 1.2 0.6 2.1 1-2.1 2.2-4.1 4.5-6 6.6-0.6 0.7 0.5 1.7 1.1 1.1 2.3-2.3 4.9-4.5 7.2-6.8 0.9 0.2 1.7 0.6 2.4 0.8-0.5 0.5-0.9 0.9-1.1 1.3-0.6 0.9-1.7 1.9-2.5 3zm149.7 11.3c-14.5-6.6-28.9-13-45.1-13.9-18.3-1-37.2 10.3-55.1 3.7-7.2 1.9-14.9 2.7-22.3 2.1 11.7 6.8 23.2 4.9 37.4 4 7-0.4 13.8 0.9 20.9 0.9 6.8 0 13.4-1.3 20.2-1.9 11.7-1.3 24.4-2.2 35.7 2.1 2.8 0.8 5.5 1.9 8.3 3zm-156.8 3.4c-2.7 0.2-5.5 0.2-8.5 0-1.7 2.5-2.1 5.7-2.7 8.7-0.3 1.1-0.9 3.4-1.3 5.7 0.4-1.2 0.8-2.5 1.3-4 0.8-2.3 2.7-4.7 3.2-7.2 0-0.7 1-0.5 1 0.2-0.2 2.5-1.5 4-2.3 6.4-0.7 1.5-0.9 2.9-1.1 4.6q3.5-5.4 6.4-11.4c0.2-0.7 1.5-0.3 1.1 0.4-1.5 3.6-2.8 7-4.5 10.4 0.8-1.1 1.7-2.1 2.3-3.4 2.4-3.2 3.6-6.8 5.1-10.4zm20.9 32.3c-0.9 0.4-1.5 1.1-2.1 1.7 12.7-4.7 25.9-8.5 39.5-10.4 3-3 7.9-4.5 11.7-5.3 1.1-0.2 1.5 1.2 0.4 1.5-2.3 0.6-4.6 1.4-6.8 2.7-0.2 0.2-0.4 0.4-0.8 0.4 6.6-0.6 13.2-1 19.5-0.6 4.5-2.5 10-4 14.9-4.7 0.9-0.2 1.3 1.3 0.5 1.5-3.9 0.9-7.3 2.1-10.7 3.6 5.6 0.7 11.3 1.5 16.8 3.2 0.5 0 0.7 0.2 1.1 0.4 5.5-1.9 12.1-2.5 17.9-3.1 0.6 0 0.8 1 0.2 1-4.7 0.9-9.4 2.1-14.3 3.2 13.4 4.3 26.6 10.4 38.9 16.8 2.2 1.1 4.3 2.1 6.4 3.4-1.3-1-2.7-2.1-4.2-3.2-9.6-6.4-19-11.7-30-14.9-0.9-0.2-0.4-1.2 0.4-1.2 12.3 2.3 23.4 8.9 33.8 15.9 9.8 6.4 15.8 16 22.6 25.3 0.4 0.4 0.2 0.9 0 1.3 0.2 0.2 0.2 0.2 0.4 0.4-9.4-44.4-52.8-59.7-94.2-56.3-19.6 1.5-45.3 5.7-61.9 17.4zm140.1 33c3 0.8 6 1.3 8.5 2.1-0.8-0.8-1.7-1.9-2.3-3-4.9-6.8-9.6-12.1-17.2-16.1-13.8-7.5-28.7-14.1-43.8-18.5-29.2-8.8-57-1.5-84.5 7.6 7.1 0.9 14.1 2.6 21.1 3.2 11.3 1.1 22.3 0.4 33.6-0.9 0.6 0 0.6 0.9 0.2 1.1-10.4 1.7-20.8 2.4-31.5 2.1-10.2-0.2-20.2-2.7-30.4-2.9-1.1 0.4-1.9 0.6-3 1-0.8 0.9-1.5 1.5-2.3 2.2 4.5-0.7 9.1-0.7 14.5 0 11 1.2 21.6 3.1 32.9 2.3 9.6-0.6 18.7-2.6 28.3-3.6 18.5-2.2 33.8 0.6 50.2 9.3 8.3 4.5 16.6 11.3 25.7 14.1zm-248.4 120.1q1-0.9 1.9-1.9c10-8.5 24.1-9.5 37.7-8.3 0.2-0.2 0.4-0.4 0.8-0.4 10-1.3 18.1-15.1 25.1-22.1 9.4-9.2 13.6-20 17-32.3 1.1-3.9 2.2-7.7 3.4-11.3-12.1 21.5-32.3 36.6-51.9 50.8-0.4 0.4-1-0.4-0.6-0.8 13.6-10.7 26.6-21.5 37.7-34.5-6.4 6-13.4 11.3-20 16.8-10 8.1-20.2 16.4-30.2 24.5-7.5 6.1-15.1 11.9-20.9 19.5zm36.4-6.5c-9.8-0.3-19.4 0.6-27.2 5.3-9 5.3-12.8 15.3-16 24.6-2.3 6.8-6.6 16.4-5.7 23.6 1.2 0.3 2.5 0.3 3.8 0.7 6.2 1.5 11.7 4.4 16.6 8.3 8.5 6.6 15.3 15.9 20.2 25.9 0.2-6.1 0.4-12.1-0.2-18.3-0.9-9.5-4.1-17.6-7.5-26.5-4.6-12.6-2.9-22.4 6.6-31.9 1.1-1.1 2.8 0.4 1.7 1.6-9.7 12.4-7.6 20.9-2.3 34.3q2.9 6.7 4.5 14c1.7 8.3 2.5 17.3 2.5 26 1.1-5.1 2.8-10 4.7-14.9 1.7-4.3 2.8-8.3 4-12.6-0.4-0.8-0.8-1.7-1.5-2.5-1 3.6-2.5 7.2-3.8 10.6-0.4 1.1-1.9 0.7-1.5-0.4 1.5-4.5 2.6-8.9 3.9-13.4-0.9-1.5-1.5-3.2-1.7-5.1-0.3-1.3 0.8-2.8 1-4.1 1.3-9.7-0.6-11.2-3-15.9-0.4 1.1-1 2.3-1.2 2.8-0.7 1.5-1.5 3.2-2.2 4.9-1 2.9-1.9 6.1-2.5 9.3-0.2 0.7-1.1 0.4-1.1-0.2 0.4-4.9 1.3-9.6 3.2-14.2 0.4-1.3 1.3-4.1 2.3-5.8-0.2-0.4-0.4-0.8-0.6-1.5q-0.3-0.9-0.6-1.9c-0.7 1.3-1.5 2.3-2.1 3.6-1.5 3.2-2.8 6.6-3.9 9.8-0.2 0.9-1.3 0.4-1.3-0.4 1.1-5.3 2.8-12.4 6.2-17-1.7-6.6-0.2-13.6 4.7-18.7zm-2.4 148.4c3.7-3.2 9-3.8 13.2-1.9 0.5-0.9 1.1-1.7 1.7-2.4-1-1.4-2.5-2.7-4.2-3.6-1.7-1-3.6-1.2-5.5-1.5-2.2 3-4.3 5.8-5.2 9.4zm9.8-10.6c2.8 1 5.1 3.2 6.4 5.7q0.7-0.3 1.3-0.6c-0.6-1.3-1.3-2.4-2.6-3.2-0.8-0.7-2.1-1.1-2.9-1.9-0.7 0-1.5 0-2.2 0zm6.2 0c0.2 0 0.2 0.2 0.4 0.2 1.3 1 2.4 2.5 3 4.2 0 0.3 0 0.5 0 0.5 0.2 0 0.2 0 0.4 0 0.2 0 0.5 0 0.5 0.2 0-1.3 0.8-2.6 1.9-3.4-1.7-2.2-3.9-2.2-6.2-1.7zm16.6 8.1c-0.2 0-0.2 0.2-0.4 0.2 0 0.2 0.2 0.2 0.2 0.4q0.3 1 0.6 1.9c2.6 0 4.9 0.4 7.5-0.6 0.6-0.2 1.4-0.7 2.1-1.1 8.1-13.6 22.7-21.7 30.8-35.7 5.8-10 10.2-20.9 17-30.2q-7.3 4.1-15.3 7.6c-8.5 3.9-15.5 7.5-20.8 15.8-3.8 6.1-7 13.2-9.6 20-3 8-4.9 16.6-12.1 21.7zm80.4-78.5c0 0 0 0.2-0.2 0.2-7 8.9-14.3 17.2-19.8 27-0.4 0.6-1.5 0-1.1-0.6 3.9-7.5 8.3-15.1 13.4-21.9-2.5 1.4-4.9 2.9-7.4 4.4-10.4 11.5-15.7 25.8-24.3 38.5-7 10.6-17.8 17.9-25.7 27.7 2.3-1.7 4.7-3.2 7.7-1.5 0 0 0 0 0.2 0 17.6-10.7 28.9-28.5 43.8-42.8 13.6-13.2 31.9-24.9 51.3-25.7-3.2-2.8-6.4-5.5-10.1-7.7-10.2-5.5-18.9-3.4-27.8 2.4zm-78.3 89.1c0 0.6-0.2 1.7-0.4 2.5 16.6-2.7 29.1-10.4 44.2-17.4 11.7-5.5 24.3-8.1 36.8-10 25.3-3.8 49.2-3.2 72.6 7 0.4-2.5 0.6-4.2 0.4-5.9-15.1-6.8-30-11.1-46.8-10-1.1 0-1.1-1.5 0-1.5 15.5-1.5 31.3 0.2 45.5 7-1.1-2.1-2.1-4-2.8-7.4-0.6-3.4-0.4-6-0.4-8.3-15.7-7.3-30.6-10.9-48.1-9.4-17.4 1.5-29.1 8.7-42.7 18.7-18.7 13.4-33.8 33.6-58.3 34.7zm150.4 11c0-0.4 0-1 0-1.4-13.2-6.4-21.3-19.2-36-23.6-12.9-4.1-30.8-2-44 0.8-13.8 2.8-27 7.4-40.2 12.3q-4.4 1.6-8.9 3.2c1.3 0.9 1.9 2.6 0.8 4.1-2.3 3.8-8.5 6.3-12.9 6.6-4.3 0.4-9.8-2-13-4.9-1.1 2.5-4 4.6-6.8 4.4 4 2 8.1 3.4 12.3 4.3 4.3 0.8 8.1 0.4 12.1 0.4 1.5-1.3 3-2.5 4.5-3.6 9.2-6.8 19.4-12.3 30.6-14.9 1.5-0.4 2.6 1.9 1.1 2.6-16 7.2-29.1 15.1-42.8 26.1-0.6 0.5-1.2 1.1-1.6 1.5 2.1 0.2 4.4 0.9 6.5 1.1 2.6 0.2 5.4 0.2 7.3 2.1 1.5 1.5 1.5 3.2 1.5 5.1 18-4 38-5.9 56.5-4 12.8 1.2 25.1 5.5 32.6 16.1 0.2-9.1-2.1-18-6.2-27.4-0.4-0.9 0.9-1.5 1.5-0.9 4.5 5.6 7 12.4 8.1 19.6 0.2 0 0.2 0 0.4 0 11.7 3.6 21.1 0.2 27.4-7-8-8.9-13.8-17-26.3-19.8-6.2-1.3-11.9-2.3-17-5.5 0.8 2.7 1.7 5.7 3.4 8.3 0.6 0.8-0.5 2.3-1.5 1.9-3.6-1.5-4.7-3.8-5.4-6.6-0.2 0.6-0.8 1.1-1.6 0.8-20.5-6.3-38.1-2.1-57.9 4.9-0.4 0.3-0.9-0.6-0.4-0.8 18.1-7.9 40.2-17.2 59.3-6.8l0.2 0.2c-0.2-1.1-0.4-2.1-0.8-3.4-4.3-13.4-28.1-9.1-38.5-7.5-1.3 0.3-1.9-1.6-0.7-1.9 10.5-3.2 24.7-4.6 35.1-0.8 4.9 1.9 6.6 5.1 7.9 8.7 8.9 5.5 19.4 4 28.7 8.3 7.5 3.4 12.8 10.6 17.7 17.2 0.8-1 1.5-2.3 2.1-3.6-2.6-3.2-4.3-7.2-7.2-10.2-4.3-4.3-9.2-7-14.9-8.1-0.7-0.2-0.4-1 0.2-1 5.5 0.6 10.8 2.7 15.3 6.1 3 2.4 6.6 5.8 8.5 9.6 1.7-3.8 2.8-8.1 3-12.6zm-142.9-13.3c-2.6 0.2-5.6 0-7.9-0.7 0.2 0.7 0.2 1.3 0.4 1.9 2.6-0.4 5.1-0.8 7.5-1.2zm78.4 96.9c0.7-6.8-5.5-13.2-9.5-18-5.8-7.1-11.7-12.4-19.2-17.3-0.8-0.4-1.5 0.7-0.6 1.3 11.1 7.9 23.2 21.3 26.8 34.5 0 0.2 0.2 0.2 0.2 0.4-3.6 0.6-6.4 3.4-10.4 3.4-4.9 0-7.7-2.6-11.3-5.3-0.4-0.5-0.8-0.5-1.3-0.2-0.4-5.4-4.6-7.1-7.8-11.3-3.9-5.1-0.9-12.8-5.1-17.5-0.5-0.4-1.1-0.6-1.5-0.4-1.7 0.7-1.9-5.7-2.6-7-1-1.7-1.7-1.9-3.6-2.6-1.1-0.4-1.7 1.1-1.1 1.7 1.1 1.3 1.5 2.4 1.7 3.7-1.4 0-2.9 0.2-4.2 0.4-2.4 0.2-4.5 0.2-6.8 0.4-0.9 0-0.9 1.3 0 1.3 2.3 0.2 4.9 0.4 7.2 0.2 1.3 0 2.8 0 4.1-0.4 0.2 1 0.2 1.9 0.6 3q-2.2 0.3-4.5 0.6c-2.7 0.4-5.7 0.6-8.5 1.3-0.6 0.2-0.4 1.2 0.2 1.2 4.3 0.3 9.8 0.3 14.5-0.6 2.3 2.1 2.5-0.8 3.2 3.6-4.3 0-8.5 0.7-12.6 0.9-1 0-1 1.5 0 1.5 4.3 0 8.8 0.2 13-0.2 0.2 3.1 0.2 6.3 1.7 9.3 0.7 1.3 1.5 2.4 2.6 3.4q-0.7 0-1.3 0c-1.3 0-2.6 0-3.8 0.2-0.9 0.2-0.9 1.3 0 1.5 1.2 0.2 2.5 0.2 3.8 0.2 1 0 2.1 0.2 3.2-0.2 2.5 1.9 5.1 3.8 5.7 7.5 0 0.4 0.4 0.6 0.7 0.6 0 0.2 0 0.2 0 0.4 1.9 4.1 7 6.2 11.2 6.4 5.8 0.4 9.6-2.3 14.1-5.5 0.2-0.2 0.4-0.7 0.4-0.9 0.4-0.6 0.8-1 0.8-1.5zm-66.3-46.8c-1.1-0.8-1.5-2.1-1.9-3.6 0-0.4-0.2-0.6-0.2-1-14.3 8.5-32.8 7-47.9 15.1 7-0.5 14-1.7 20.8-2.2 3.9-1.9 7.7-3.1 12-4.2 5.7-1.3 11.9-1.7 17.2-4.1zm-10.9 15.1c2.4 6.9 3.4 14.3 4.9 21.3 0.5-0.6 0.7-1 1.1-1.7-1.5-5.5-1.9-11-2.6-16.6 0-0.8 1.3-1 1.5-0.2 0.9 4.5 2.2 8.9 3.2 13.2 1.5-2.6 3-5.3 4.3-8.1-4.1-3.8-8.1-6.2-12.4-7.9zm14.5 10.3c-2.8 5.3-6 10.6-9.4 15.7 4.1 0 7.9 0.6 12 1.3 0.8 0.2 0.6 1.5-0.3 1.5-4.2-0.3-8.5 0-12.7-0.3-0.2 0-0.2 0-0.4 0-0.7 1.1-1.3 2-2.2 3 5.3 1.1 10.7 1.1 16.2 1.5 3.2-3 6.4-6.2 9.4-9.6-4.5-4.2-8.3-8.7-12.6-13.1zm-13.4 36.7c-4.2 0.7-8.5 1.1-12.8 0.7-2.7 2.8-5.3 5.7-7.8 8.5 0.8 0.2 1.5 0.4 2.3 0.4 1.5 0.2 3.4 0.2 4.9 0.9 4.5-3.4 8.9-7 13.4-10.5zm-20.2 16c-1.9 0.2-4 0.2-6 0.2-2.1 3-3.8 6-5.1 9.4 3.4-3.6 7.3-6.6 11.1-9.6zm-39.8 61.9c0 0.2-0.2 0.2 0 0 4.1-1.3 8.3-1.9 12.6-2.4 0.6-2.5 4-4.6 5.7-6.3 0.2-0.2 0.2-0.2 0.4-0.5q-0.9 0.4-1.9 0.7c-5.5 2.8-11 6.1-16.8 8.5zm23.6-10.6c-1.2 1-2.3 2.3-3.6 3.6-1.3 1.3-2.5 3-4 4.4q0.9 0 1.9 0c3.8-4.4 8.9-7.6 14.5-9.3-2.8 0.2-5.8 0.6-8.8 1.3zm29.8 1.9c-1.7-0.7-3.4-1.1-5.1-1.5-6.2 2.5-11.9 5.3-17.4 9.1 2.3 0.5 4.4 1.1 6.6 1.7 0-0.4 0.2-0.8 0.6-1 5.7-4.1 12.8-6.6 19.8-6.6-1.5-0.7-3-1.3-4.5-1.7zm50.8 36.8c-0.4-0.7-0.8-1.3-1.2-2.2-9.2-1-18.1-0.4-27 0 2.1 2.4 4 4.9 5.9 7.5 2.1 3 4.3 5.9 6.2 9.1 8.9 0.2 17.8 0.5 26.1 3.9-3.1-6-6.6-12.2-10-18.3zm20.7 83.8c-1.3-3.9-1.9-7.5-2.4-11.3-2.1-0.4-4.2-1.3-6.3-2.1-0.9-0.5-1.8-0.7-2.6-1.1 6 15.5 13.4 30.6 17.7 46.6 4.6-8.7-4.1-24.5-6.4-32.1zm3.2 33.1c-2.4-8.9-5.8-17.6-9.4-26.1 0 6.2-0.4 12.3-0.6 18.5 2.9 3 6.3 5.7 10 7.6zm-11.5-9.1c-0.2-7.4-0.4-14.9 0-22.1-1.3-3.2-2.8-6.6-4.1-9.8 0 9.1 0 18.3 0 27.6 1.3 1.3 2.6 2.8 4.1 4.3zm-12.4-13.6c0.7 0.6 1.3 1.3 2 2.1-0.5-11.3-1.1-23.8 1.4-34.7-1-3.6-2.1-7.4-3.4-11q-0.3-1-0.6-1.9c-0.6 14.2-1.1 28.7-1.5 42.9 0.7 0.9 1.5 1.7 2.1 2.6zm-3.8-4c-0.4-15.2 0-30.3 1.1-45.4 0-0.2 0.2-0.4 0.2-0.6-0.9-1.7-1.7-3.6-2.6-5.3-2.9 10.6-4 21.7-4.2 33 0 0.8-1.3 0.8-1.5 0-0.2-11.3 0-24.5 4.5-35.1-2.4-4.1-4.7-8.1-7.3-12.2-0.6-1-1.5-2.3-2.1-3.4-1.9 17.7-3.4 34.7-3.2 52.4 4.9 5.7 10 11 15.1 16.6zm-32.7-45.8c1.4 2.8 2.7 5.5 4.2 8.3-0.6-17 0-34.9 3.2-51.5-1.5-1.9-3-3.6-4.5-5.3-0.4-0.2-0.8-0.4-0.8-0.8-1.9-1.9-3.8-3.8-6.2-5.6 2.1 14.7-1.5 30.2-1.5 45.1 1.7 3 3.6 6.4 5.6 9.8zm-30.7-68.7c3.2 4.7 3.2 11.7 3 17.7 1.1 1 1.9 2.3 3 3.6-0.6-6.4-1.1-13-1.1-19.6-1.5-0.6-3.2-1.3-4.9-1.7zm15.8 40.2c1.5 3.8 3.2 7.3 4.9 10.7 0.2-6.4-1.5-13.2-1.5-19.6-0.2-7.7-0.2-15.1-1.1-22.6 0-0.2 0-0.4 0.2-0.6-0.4-0.2-1-0.6-1.5-0.8-1-0.7-2.1-1.1-3.4-1.8 2.4 11.3 1.3 23.2 2.4 34.7zm-8.7-37.6c0.6 7 0.8 14 0.8 21q3.5 5.1 5.7 10.9c-1.2-10-1-20-2.3-30-1.5-0.6-3-1.3-4.2-1.9zm17.4 9.3c-1.3-1-2.8-1.9-4.3-2.9 1.5 7.4 0.9 14.6 1.1 22.3 0.2 7.2 1.9 14.7 0.9 21.9 0 0 0 0 0 0.2 0.6 1.1 1.2 2.3 1.9 3.4-1.1-15.1 1.2-30 0.4-44.9zm31.9-1.7c-2.3-2.3-4.7-4.4-7.2-6.3-9 0.2-17.9 1.2-26.4 4q1 0.6 1.9 1.3c0.4-0.5 1.1-0.2 1.3 0.2 0 0.2 0 0.4 0.2 0.6 1.3 0.9 2.5 1.9 3.6 3 0 0 0-0.2 0.2-0.2 7.5-3.8 17.9-3.8 26.4-2.6zm-19.1 9.6c9.3-1.7 18.7-0.6 28 1.1-2.1-3.4-4.6-6.4-7.2-9.2-8.7 0.4-18.1-0.4-26.4 3.2 0.9 0.9 1.7 1.7 2.8 2.6 8.9-1.1 17.6-1.9 26.6-1.9 0.8 0 0.8 1 0 1.2q-12.2 1.3-24.3 3.2l0.2 0.2c0-0.2 0-0.2 0.3-0.4zm7.8 15.5c-1.7-2.5-3.6-5.1-5.3-7.6-1.1 17.4-2.5 34.9-3.4 52.3 1.5 3 3.2 5.7 4.9 8.5 0.2-17.9 1.3-35.9 3.8-53.2zm1.7 2.6c-1.3 17.6-3 35.1-4 52.7 1.3 1.9 2.7 3.9 4.2 5.8-1.5-17.7-0.8-36.2 3-53.4q-1.6-2.9-3.2-5.1zm31.3 6.6c-8.1-3.2-16.8-3.2-25.3-3.2 0.4 0.4 0.6 1 1 1.5 8.8 0.4 17.7 2.3 26 4.7-0.6-0.9-1.1-2-1.7-3zm4.7 9.5q-1-2.2-1.9-4.4c-8.6-1.5-17.1-2.6-25.6-4.1 0.5 0.7 0.9 1.5 1.5 2.2 0.2-0.2 0.4-0.5 0.9-0.5 8.5 0.7 17 3.7 25.1 6.8zm1.9 6.2c-0.4-1.5-0.7-2.8-1.3-4.2-8.5-2.6-17-4.3-25.7-6.4 0.6 1 1.2 2.1 1.9 3.4 5.5 1.3 10.8 2.7 16.1 4.2 3.5 0.5 6.2 1.3 9 3zm-13.6 62.3c1 1.3 2.1 2.6 3.2 3.6-0.5-10-0.7-19.9-0.7-30.2 0-0.2 0-0.4 0.2-0.6-0.4-1.3-0.8-2.5-1.2-4-0.3 10.6-1.5 21-1.5 31.2zm-0.5-46.1c0.5 1 0.9 2.3 1.3 3.6 1.7 0.6 3.4 1.7 5.1 2.3 2.8 1.3 5.6 2.6 8.1 4.3 0-1.1 0-1.9 0.2-3-0.2 0-0.6 0-0.8-0.4-3.2-3.8-9.2-5.3-13.9-6.8zm-2.7-7.3c0.6 1.5 1.3 3 1.7 4.5 5.3 1.9 11.9 3.8 15.7 8.1 0-1.3 0.2-2.3 0.2-3.6-2.7-2.1-5.9-3.4-9.1-4.7-2.8-1.3-5.8-2.8-8.5-4.3zm-1.9-4.2c0.2 0 0.2 0 0.4 0.2 4.2 2.3 8.3 4.7 12.5 6.8 2.6 1.3 4.7 2.6 6.8 4.3 0.3-4.9 0.3-9.6-0.6-14.1-7.2-4-15.9-4.9-24-6.8 1.7 3 3.4 6.4 4.9 9.6zm9.5 24.9c3.2 1.9 6.6 3.2 9.8 4.9-0.2-2.4-0.2-4.5-0.2-6.8h-0.2c-2.8-0.9-5.3-2-7.9-3-1.3-0.4-2.5-1.1-3.8-1.5 0.6 2.1 1.3 4 2.1 6.2-0.2 0 0 0 0.2 0.2zm-49.9-98.9c-8.3 0.4-15.6 2.1-22.6 6.8 6 2.1 11.7 5.1 17.2 8.5 0.2-0.4 0.5-0.7 0.9-0.9 8.5-2.5 17-3.8 25.7-3.2-6.4-4.6-13.6-8.3-21.2-11.2zm-41.3 2.9c2.1 0.3 4.5 0.5 6.6 0.7 4.2-4.5 10.6-7.2 16.8-9.4-2.6-0.4-5.1-0.8-7.7-0.8l-0.2 0.2c-6.1 1.7-11.3 4.9-15.5 9.3zm17.4 22.2q-0.3-2.9-0.6-5.8c-0.4-3.6-1.9-6.6-2.6-10 0-0.2 0-0.4 0.3-0.6-12.8-4-25.8-4.9-39.2 1.3-1 1.2-1.9 2.3-3 3.6 17.3-6.4 33.4-0.6 45.1 11.5zm16-138.7c-1.1 1.9-1.9 3.8-3 5.7 1.1 3 1.5 6.6 1.9 9.6 0.9 3.8 1.5 7.9 2.4 11.7 0.2-0.2 0.4-0.4 0.4-0.6 0-0.7 0.4-1.3 1-1.5 0.5-0.7 0.9-1.3 1.5-1.9-1.9-2.6-2.5-8.1-3.1-10.7-0.9-4-1.5-8.3-1.1-12.3zm-2.8 32.3c0-0.2 0.2-0.4 0.4-0.6 0.7-0.6 1.1-1.3 1.7-2.1 0 0-0.2-0.3-0.2-0.5-1.2-6.6-2.7-13.4-3.8-20q-4.5 9-8.3 17.9c0.4-0.2 1.1-0.2 1.3 0.4 0.6 2.6 1.1 5.4 1.7 7.9 0.2 1.3 0.6 2.8 0.8 4.3 2.2-2.4 4.3-4.9 6.4-7.3zm-8.5 9.4c-1-1.7-1-4.1-1-6-0.3-2.7-0.5-5.3-0.9-8-0.9 2.1-1.9 4.4-2.8 6.8 0.7 1.7 0.7 3.6 1.1 5.3 0.2 1.7 0.6 3.4 0.8 5.1 0.9-1.1 1.8-2.2 2.8-3.2zm-7.2 7.9c0.6-0.7 1.3-1.5 1.9-2.2 0-0.2-0.2-0.2-0.2-0.4-0.7-2.3-0.7-4.7-0.9-6.8 0-0.4 0-0.6-0.2-1.1-2.5 6.6-4.9 13.2-7.2 19.8 1.7-2.8 3.4-5.3 5.5-7.9-0.2-0.6 0-1.4 0.9-1.4 0.2 0 0.2 0 0.2 0zm8.5 3.4c-1.1 0-1.9-0.3-3-0.3-1.5-0.2-2.8-0.2-4.2-0.6-0.7 0.9-1.3 1.5-2 2.3 2.2 0 4.5 0.3 6.6 0.5 1.1-0.7 1.7-1.3 2.6-1.9zm24.7-19.6c-5.1 1.1-10.5 1.1-15.6 0.6-0.2 0.2-0.2 0.5-0.4 0.7-1.3 1.5-2.5 2.9-4 4.7q6.7-0.1 13.4-0.7c2.3-1.7 4.4-3.6 6.6-5.3zm5.7-5.1c-5.3 1-11.1 0.6-16.4-0.6-0.8 1.2-1.9 2.5-2.9 3.8 5.3 0.2 10.6-0.2 16.1-0.4 1.1-0.9 2.1-1.8 3.2-2.8zm-17-34.5c-0.7 1.1-1.3 2.4-1.9 3.4 0.2 0.2 0.2 0.2 0.2 0.5 0 7.8 1.5 15.3 4.5 22.5 0.2-0.4 0.6-0.8 0.8-1.5-1.7-8.1-4-16.6-3.8-24.7 0.2-0.2 0.2-0.2 0.2-0.2zm-41.7-4.2c6.6-5.1 14.5-7.9 22.3-9.8 9.8-2.6 19.4-5.1 29-8.3 0-3.2 0.2-5.3-4.9-6.8-3.9-1.1-8.8-0.4-12.8-0.4-5.9 3.4-12.3 5.1-19.8 2.3-1.5-0.6-0.8-3 0.7-2.3 12.1 3.6 21.2-4.7 29.7-12.6-7.8 0.4-16.8-3-22.5-7.2-0.2 0-0.2-0.2-0.2-0.4-1.3 1-3 1.5-4.7 1.5 2.6 4.8 13 2.9 16.2 7.4 0.6 0.8 0.4 2.8-0.5 3.4-3.4 2.8-9.1 0.8-12.3-1.9-2.1-1.7-5.1-4.3-6.6-7 0.4 4 0.2 8.3-0.4 12.3-0.4 3.6-1.1 8.3-3 11.7-0.8 2.8-1.9 5.5-3.2 8.1 0.2 0 0.2 0 0.4 0 2.2-0.7 3.9-2.1 5.6-3.4 2.5-2.4 5.1-3.8 8.3-5.3 1.2-0.7 2.3 1 1 1.9-2.1 1.2-4.4 2.5-6.3 4.2-1.3 1.3-2.4 2.6-3.9 3.6-1.9 1.5-4.7 2.8-7.2 2.8-1.1 2.1-2.8 4.7-4.9 6.2zm26.4-72.5c-0.7-0.9-1.7-1.3-3-1.5-0.9 0.6-1.1 1.9-1.3 2.9 0 0.5-0.2 0.7-0.4 0.7l0.2 0.2c0.9-1.3 2.6-2.1 4.5-2.3zm5.5 19.1c1.9 0.8 3.6 1.9 6 1.7 1.7 0 3.6-0.4 5.3-0.9 1.7-0.4 3.2-1 4.9-1.9-4.7 0.9-9.4 1.1-14.3 0.2-0.4 0-0.6 0.3-1 0.3-0.5 0.4-0.7 0.4-0.9 0.6zm-7.2 4.5c0.4 0 1-0.3 1.5-0.5 1.5-0.8 1.9-2.1 2.5-3.6 0-0.2 0.2-0.2 0.2-0.2-0.6-1.7-0.8-3.4-1.9-5.1-1.5-1.9-3.4-3.4-5.5-4.5-0.2-0.2-0.4-0.4-0.4-0.6-0.3 0.2-0.5 0.4-0.5 0.6 3.2 2.8 6 9.4 4.1 13.9zm5.5-14.3c-0.2 0-0.2 0-0.4 0-1.3-0.4-1.9-1.5-3.2-1.9-1.3-0.4-2.8-0.6-4.1-0.4q-0.3 0-0.6 0c0 0.2 0 0.2-0.2 0.4 0.2 0 0.2 0 0.4 0 2.6 1.1 4.7 2.5 6.4 4.9 0.6 0.8 1.3 1.7 1.7 2.7 0-0.2 0.2-0.6 0.2-0.8 0.4-1.7 0-3.2-0.2-4.9zm-2.5-7c-0.3 0-0.5 0-0.7-0.2-1.9-0.2-3.4 0.8-4.5 2.3 0 0 0 0.2-0.2 0.2 0 0.2 0 0.5 0 0.9 1.5-0.7 3.2-0.9 4.9-0.2 0.7 0.2 1.5 0.4 2.1 0.8 0-0.4 0-0.6 0-1 0-1.1-1-2-1.6-2.8zm-9.4 23.6c1.3-0.4 1.7-1.5 2.8-2.3 0.2-0.3 0.4-0.3 0.6-0.3 0.2-2.1 0.8-4 0.4-6.1-0.4-2.6-1.7-4.7-3.4-6.4-0.4 0.2-1 0.2-1.5 0.2 1.5 4.3 1.5 11.1-1.5 14.7 0.7 0.4 1.5 0.6 2.6 0.2zm168.2-26.6c-27.6-12.1-56.5-11-85.7-4.7-20.6 4.5-37.6 17.1-57.8 22.2 12.9-1.5 25.1-8.1 37.8-12.2 13-4 25.5-7.2 38.9-8.3 11.7-0.8 22.4-1.9 33.6 2.4 12.4 4.9 20 15.7 31.3 21.7 0.2-7.5 0.4-14.1 1.9-21.1zm-171 4.7c-0.8 0.8-1.7 2.5-0.4 3.4 1.5 1.3 3.4 0.4 4.3-1.3 0.8-1.3 0-2.5-0.7-3.6 0-0.2-0.2-0.4-0.2-0.4-1.1 0.4-2.1 1-3 1.9zm-3 21c0 0 0.3 0 0.3 0.3 0.6-2 1.7-3.7 2.1-5.8 0.6-2.7 0.6-5.7 0.2-8.5v-0.2c-0.2 0-0.6-0.2-0.8-0.4-0.5-0.2-0.7-0.5-1.1-0.7 0 0 0 0-0.2 0.2-4.9 2-8.5 6.2-9.8 11.1 0.8 1.7 1.9 3.2 3.8 3.8 2.1 0.7 4.1-0.4 5.5 0.2zm-10.8-1.2c0-0.2-0.2-0.2-0.2-0.5-2.6-0.2-4.9-3.1-6-5.1v-0.2c-2.5-0.4-4.9-1.2-7.2-2.3q-0.6 0-1.3 0c-4-0.2-9.1-3-10.2-7.2-7.4-5.8-13.8-13.2-20.6-19.6-0.7 5.7-1.7 11.5-3 17.6-0.2 1.3-0.4 2.8-0.6 4.1 6.6 0.4 11.9 3.8 17.4 7.6 4.3 3 8.5 5.1 13 6.4 0.2-1.3 1.3-2.5 2.7-2.5 5.2 0.4 10.1 4 15.2 1.7 0.4 0 0.6 0 0.8 0zm-45.5-47.9c0.4 3.2 0.4 6.4 0.2 9.6 7.2 6.2 13.6 13.6 20.4 19.8 1.1-2.6 4.3-3.9 6.6-1.7 1.9 1.7 2.6 2.9 5.1 3.6 1.1 0.2 6.2 2.5 6.8 1.7 0-0.2 0.2-0.2 0.2-0.2 0 0 0-0.2-0.2-0.2-15.1-9.2-20-25.8-27.2-41.1-3.8-8.3-5.5-17.4-9.6-25.7-4.9-10-12.1-18.3-20.2-25.8-0.4-0.4-0.4-1-0.4-1.5-2.8-0.6-5.5-1.4-7.9-2.9 0 0.8 0 1.9 0.2 2.7 3.9 10.9 11.7 20.7 16.4 30.9 4.9 9.5 8.3 20 9.6 30.8zm-14.5-61c10.7 10.2 19.2 21.7 23.6 35.7 5.8 18.3 13.4 45.1 30 56.2 0-0.9 0.2-2 0.5-2.8-0.5 0.2-0.9 0.2-1.3-0.2-4.5-3-6-7.5-6-12.4-7.2-8.9-10.4-20-13.4-31-4.2-16.6-8.3-30.8-20.2-43.6-4.2-1.1-8.7-1.3-13.2-1.9zm20.7 4.2c-0.9-0.4-1.7-0.8-2.6-1 18.9 16.8 16.4 49.5 28.9 71 0.5-5.1 1.9-10.6 3-15.1 1.1-4.3 2.3-8.5 3.8-12.5-9.5-15.6-15.9-33.4-33.1-42.4zm32.7 94c-1.1 0.9-2.5 1.5-3.8 1.9 1.3 0.7 2.5 1.1 3.8 1.5-0.4-1.2-0.2-2.3 0-3.4zm17-7.8c-4.9-1.3-10 0.6-13.2 4.4 0 0-0.2 0-0.2 0.2-0.4 2.4-0.8 5.4 1.1 7.3 0.6 0.6 1.3 1 1.9 1.5 2.1-4.7 6.2-8.3 11.1-9.8-0.9-1.1-1.1-2.4-0.7-3.6zm-13.4-29.2c0.2-12.9 7.9-24 11.3-36.1-2.6 5.7-6 11.2-7.9 16.1-4.2 11.5-13.4 34.5-5.1 45.3 0 0 0 0 0 0.2 0.9-1.4 1.9-2.7 3-3.8 0 0 0 0-0.2-0.2-2.1-3.6-4.5-7-4.9-11.3-0.6-3.8 0.4-8.3 3.8-10.2zm-1.3-20.2q0.7-1.6 1.3-3.2c3.4-8.3 10.7-17.6 10.4-26.8 0-1.5-0.2-2.7-0.6-4-0.6 2.1-1.5 4.2-2.3 6.4-2.6 6.1-5.6 12.1-7.9 18.5 0 0.2-0.2 0.2-0.4 0.2 0.2 3 0 5.9-0.5 8.9zm-36.3-86.7q-0.3 0-0.7 0c0 0.4 0 0.6 0 1 0.3-0.4 0.5-0.8 0.7-1zm101-68.8c0 0.3 0.4 0.5 0.6 0.7q-0.3 0-0.6-0.7zm49.4 39.6c0 0 0.2 0 0 0 2.1-3 4.2-5.7 6.1-8.7l-0.2-0.2c-1.1-3.9-1.7-7.9-2.3-11.7-2.2 6.4-3.4 13.2-3.6 20.6zm22.9-52.1c0.9 4 1.9 8.1 3 12.3 1.9-3.4 3.8-6.8 5.7-10.4-0.8-1.5-0.8-3.4-0.8-5.1-0.2-1.7-0.2-3.4-0.2-5.1q-4.2 4.2-7.7 8.3zm15.8-16.6c0.2 0.6 0.4 1.1 0.4 1.7 0.2-0.6 0.6-1.5 0.8-2.1 0.2-0.4 0.5-0.9 0.5-1.5-0.5 0.6-1.1 1.3-1.7 1.9zm-21.7 51.9c-0.5 0-0.7-0.2-0.9-0.2 0 0 0 0-0.2-0.2-0.8 1.3-1.7 2.3-2.5 3.6q0 0.3 0 0.6c1.2-1.2 2.5-2.5 3.6-3.8zm88.9-24.7c-0.2 0.2-0.5 0.7-0.7 0.9 1.3-1.1 2.6-2.4 3.9-3.4-1.1 0.6-2.4 1-3.4 1.7 0.2 0 0.4 0.4 0.2 0.8zm-18.5 16.2c0.6-0.6 1.2-1.1 2.1-1.7-6.2 3.8-12.8 6.8-19.1 8.9-0.7 0.2-1.1-0.8-0.5-1 6.4-3 12.8-6 18.5-10 5.6-3.9 10.2-8.3 15.3-12.4-7.6 3.4-15.7 6-23.8 8.3 3 0.2 6.2 0.7 9 1.1 0.6 0.2 0.4 1.3-0.3 1.3-5.5-0.7-10.6 0-16.1 0 0 0 0 0-0.2 0-6.4 1.9-12.6 3.8-18.5 5.9 0 0 0 0 0.2 0 5.1 0.2 10 1.1 14.9 2.4 1 0.2 0.6 1.9-0.5 1.7-6.1-1.5-14.2-2.8-20.8-1.5-2.1 0.8-4 1.9-6.2 2.7 3.9 0.3 7.5 0.7 10.9 1.7 1 0.5 0.6 2-0.5 1.7-3.6-0.4-7.4-0.8-11.2-0.6-1.9 0-3.6 0.4-5.6 0.9-4.8 2.9-9.5 6.6-13.8 11 10-3.8 20.2-6.2 31.3-7.4 13-2.2 24.2-4.7 34.9-13zm-70.9 21.9c-0.2-0.2-0.2-0.4-0.2-0.4-0.6 0.4-1.2 1-2.1 1.5 0.9-0.5 1.5-0.7 2.3-1.1zm-13.8 10.4c4.7 1.7 9.4 3.6 13.8 5.6 3.9-1.7 7.9-3.7 11.9-4.7-8.5-0.7-17.2-0.5-25.7-0.9zm62.5 10.7q-1.6-1-3.1-2c-0.3 0.3-0.5 0.7-0.9 0.7-7.9 2.3-15.7 3.8-23 8.1 0.7 0.4 1.5 1 2.2 1.5 3.2-2.6 7.8-3.4 11.7-4.7 4.4-1.5 8.9-3.2 13.6-3.4-0.2 0-0.2-0.2-0.5-0.2zm3.7 2.5c-5.4 0.2-10.2 1.3-15.4 2.8-3.8 1.3-8.2 2.1-11.7 4.2 3.7 2.8 7.3 5.8 10.7 9 3.4 3.4 7.2 6.6 11 9.7 7.1-0.6 13.9-0.6 20.7 0-2.6-9.9-6.8-19.1-15.3-25.7zm18.9 53.2c-0.2-2.1-0.4-4.3-0.4-6.4-0.2 0-0.7 0-0.9-0.2-2.1-1.1-4.2-2.1-6.6-2.8 0.9 1.5 1.7 3 2.4 4.5 0 0 0 0 0.2 0 1.9 1.3 3.8 2.8 5.3 4.9zm-5.1 2.3c-1.3-5.1-3.6-9.8-6.8-13.8 0 1.1 0 2.1 0.2 3.4 0.2 1.9 1.1 3.8 1.1 6 2.1 1.2 4 2.7 5.5 4.4zm-9.2-6.8c0.5 0.2 0.7 0.4 1.1 0.7-0.2-1.5-0.4-3-0.4-4.5 0-1.5 0-3 0.2-4.5 0-0.2 0-0.6 0-0.8-1.7-2.2-3.4-4.1-5.3-5.8 0.2 2.2 0.4 4.1 0.8 6.2 0.5 2.1 1.3 4.3 0.9 6.4 0 0.2-0.2 0.4-0.4 0.6 1 0.4 2.1 1.1 3.1 1.7zm-25.9-34c-0.2-0.2-0.6-0.6-0.9-0.9 1.1 7.1 3.2 13.7 5.6 20.2v0.3c1.5 1 2.9 2.3 4.4 3.4-1.9-6.4-3.6-12.8-5.3-19.4v-0.2c-1.5-1.1-2.7-2.1-3.8-3.4zm5.7 5.3c2.4 6.8 4.7 13.6 6.8 20.4 0.7 0.5 1.3 0.9 2.2 1.5-1.1-5.3-1.9-10.8-2.6-16.4-2.1-1.9-4.2-3.6-6.4-5.5zm9 7.5q1.6 8.2 3.8 16.5 0.9 0.7 1.9 1.3c-0.6-1.7-0.6-3.6-0.8-5.3-0.3-2.8 0-5.3 0.2-8.1q-2.6-2.2-5.1-4.4zm22.3 0.6c-6.6-0.6-13.2-1.1-19.8-0.9 1.1 0.9 2.1 2 3.2 2.8 6-0.2 11.9 0.4 17.4 2.6-0.2-1.5-0.4-3-0.8-4.5zm1.7 10.6c-0.2-1.3-0.2-2.3-0.4-3.6q-0.3 0-0.7 0c-5.3-1.7-10.4-3-15.7-3.6q1.9 1.9 3.8 3.8c4.3 0.2 9.2 1.3 13 3.4zm-11.5-1.5c0 0 0.2 0 0 0 0.2 0 0 0 0 0zm4.1 4.7c2.7 0.2 5.7 1.1 8 2.6-0.2-1.1-0.2-2.4-0.4-3.4-2.3-0.7-4.4-1.7-6.8-2.4-1.5-0.4-3-0.8-4.2-1.3 0.2 0.3 0.6 0.7 0.6 1.1 0 0.2 0 0.2 0 0.4 0.8 1.1 1.7 2.2 2.3 3.2 0.2-0.2 0.2-0.4 0.5-0.2zm-30.7-10.8c-1.7-6-2.5-11.9-3.2-18.1 0-0.2 0-0.2 0.3-0.4-2.8-2.6-5.8-4.9-8.8-6.8 1.5 4.8 2.2 10.6 2.2 15.5 0.2 0.2 0.2 0.4 0.4 0.6 2.7 3.2 5.9 6.4 9.1 9.2zm-18.9-23c0-0.2 0-0.2 0-0.4-0.2-2.2 0-4.1 0-6.2-1.1-0.6-2.3-1.3-3.4-1.9 0.2 0.8 0.2 1.7 0.4 2.5 0 0.7 0.2 1.5 0.2 2.2 0.9 1.2 1.9 2.5 2.8 3.8zm-5.3-7q0-1.3 0-2.6c-1.9-0.8-3.8-1.9-5.8-2.7 2.2 1.7 4.1 3.4 5.8 5.3zm32.7-7.9c-0.6-0.2-1.5-0.6-2.1-0.8 0 0.4-0.2 0.6-0.6 0.8-8.7 1.5-17.3 3.4-26 4.9 0.7 0.4 1.3 0.8 1.9 1.1 0.5 0 0.7 0.2 0.9 0.4 0.2 0.2 0.6 0.4 0.8 0.6 4.7-1.7 9.8-2.5 14.7-4 3.8-1.1 7-3 10.4-3zm-19.7 10.4c2.3-1.9 5.1-3.4 8-4.7-0.6 0.3-1.2 0.5-1.9 0.5-3.2 0.8-6.1 1.7-9.3 2.1 1.2 0.6 2.3 1.3 3.2 2.1zm-2.6 0.9q-1.6-1-3.2-1.9c0.2 1.7 0.2 3.4 0.4 5.1 0.3 1.5 0.5 3.2 0.5 4.6 1.2 2 2.5 3.9 3.8 5.6-0.2-1.5-0.2-3-0.4-4.5-0.5-3-1.1-5.9-1.1-8.9zm12.6-14.5c-8.1 1.3-15.8 3-23.7 5.5 0.9 0.5 1.7 0.9 2.8 1.5 7.9-3.2 17.5-4.9 26-5.5-1.7-0.6-3.4-1.1-5.1-1.5zm-10.9-1.7c-3.2 1.5-6.8 2.1-10.2 3q-3.5 1-7 1.9c0.8 0.4 1.7 0.9 2.5 1.1 6-2.4 12.2-4.5 18.5-5.8-1.7 0-2.7-0.2-3.8-0.2zm-31.3 2.4c-2.1-0.9-4.2-1.5-6.3-2.2-0.7 0.7-1.1 1.3-1.7 1.7 2.7-0.2 5.5 0 8 0.5zm7.5-22.8c0.2-0.2 0.2-0.2 0.4-0.4 0 0 0 0-0.2 0 0 0.2 0 0.2-0.2 0.4zm-5.3-16.8q-1 2.2-1.9 4.5c0.8 4.2 1.9 8.5 3.1 12.5 0.7-1.1 1.5-2.1 2.2-3-1.5-4.6-2.6-9.3-3.4-14zm2.9-5.5c-0.4 0.8-1 1.7-1.4 2.7 1 4.7 2.3 9.2 3.8 13.9 0.6-1.1 1.3-2.2 2.1-3.2 0 0 0-0.2-0.2-0.2-1.5-4.5-3-8.8-4.3-13.2zm7.5-11.1c-0.7 1.1-1.5 1.9-2.1 3 1.4 4.2 2.7 8.7 4.2 13.2 0.7-0.9 1.1-1.9 1.7-2.8-0.8-2.1-1.5-4.5-1.9-6.6-0.6-2.3-1.5-4.5-1.9-6.8zm6.6 8.5c-1.1-4.5-1.9-9.1-2.6-13.6-0.8 1.1-1.9 2.3-2.7 3.4 1 2.3 1.7 4.7 2.5 7 0.7 1.5 1.3 3.2 1.7 4.9 0.4-0.6 0.7-1.1 1.1-1.7zm-1.3 13.8c-0.8 0.5-1.7 0.7-2.5 0.5-0.3 0-0.3-0.3-0.5-0.3-0.8 1.3-1.5 2.4-2.3 3.7 0.4 0 0.8 0 1.3-0.2 0.4 0 0.6-0.3 1-0.3 1.1-1 1.9-2.1 3-3.4zm5.3-6.3c-1.5 0.2-2.7 0.2-4 0.2-0.9 1.5-1.7 2.7-2.8 4.2 0.9-0.2 1.7-0.4 2.4-0.6 0.6-0.2 1-0.2 1.7-0.2 1-1.3 1.9-2.6 2.7-3.6zm-2.7-2c1.5 0 2.7 0 4.2 0 2.4-3.1 4.3-6.3 6.2-9.7-1.9 0.4-3.6 0.8-5.5 0.8-1.5 3-3.2 6-4.9 8.9zm5.9-11.2c1.7-0.5 3.6-0.5 5.3-0.7q0.7-1.2 1.3-2.5c-1.7 0.2-3.4 0.2-4.9 0.2h-0.2c-0.4 0.8-0.8 1.9-1.5 3zm2.4-5.1c1.7-0.2 3.4-0.2 5.1-0.2 0.4-1.1 0.6-2 1-3q-2.5 0.3-5.1 0.6c-0.4 0.9-0.6 1.7-1 2.6zm1.9-4.7c1.7-0.2 3.2-0.4 4.9-0.4 0.2-0.9 0.4-2 0.6-2.8-0.6 0-1.3 0.2-1.7 0.2-0.8 0-1.9 0.2-2.8 0.2-0.4 0.9-0.8 1.7-1 2.8zm-0.5-12.8c0.3 1.9 0.9 3.9 1.3 6 0-0.2 0.2-0.2 0.2-0.4 0.2-0.5 1.1-0.3 0.9 0.4-0.2 0.6-0.4 1-0.4 1.7 1.5-0.2 2.9-0.2 4.2-0.2 0.6-3.4 0.9-6.8 0.9-10.2 0 0 0 0.2-0.3 0.2-0.6 1.5-1.4 2.7-2.5 3.6-0.2 0.6-1.3 0.6-1.5 0-0.6-0.9-0.6-1.9-0.8-3q-1 1-2 1.9zm-1.7 11.7c0.5-0.8 1.1-1.9 1.5-2.7 0-0.5 0-0.9 0.5-1.1-0.5 0-0.7-0.2-0.9-0.6-0.6-1.7-0.8-3.7-1.1-5.6-0.4 0.5-1 1.1-1.4 1.5 0.4 2.1 0.8 4.1 1 6.2 0.2 0.6 0.2 1.5 0.4 2.3zm-22.3 17.2c1.9 4.1 3.4 8.3 4.9 12.4 0.6-0.9 1.1-1.7 1.7-2.6q-2.2-7-3.8-14c-0.9 1.5-1.9 2.8-2.8 4.2zm-99.5 361.6c25.1-9.8 50-17.4 73.8 0.7 17 12.9 33.2 16.3 54.2 17.6 9.2 0.7 16.8-1.3 25.7-2.5 7.9-1.1 15.6-0.5 23.2 0.2 1.9 0 3.9 0 5.8 0.2-16.4-8.3-32.6-12.6-51.3-11.5-14.7 0.9-27.6 2.3-41.5-3.6-11-4.7-20.6-11.1-31.2-14.7 10.8 4.9 21.2 12.6 30.6 17.7 0.9 0.4 0 1.7-0.6 1.2-12.4-6.6-25.3-15.5-38.7-19.5-13.9-4.1-30.9 1.5-43.4 7.8h-0.3c-2.3 2.4-4.2 4.3-6.3 6.4zm161.6 18.3q-0.6 0-1.3 0-0.3 0.3-0.6 0.7c-20.2 5.1-47.2 27-68.1 11.2-0.6-0.6-0.2-1.7 0.7-1.3 14 7.1 27.8 1.8 41.7-3.1 4-1.5 8-3.9 11.9-5.8-5.3 0.9-10.2 1.5-15.8 1.3-7.8-0.4-16.1-0.9-24.2-2.3 1.7 1.4 3.4 2.9 5.3 4.2 0.4 0.4 0 1.1-0.4 0.9-2.8-2-6.2-3.7-8.9-6-3.9-0.8-7.5-1.9-11.1-3.4-7.2-2.8-13.2-7.4-19.4-11.9 0.9 1 1.5 2.3 2.4 3.4 4 5.5 8.1 10.8 14 14.5 0.4 0.2 0 1-0.4 0.6-4.9-2.6-8.7-6.2-12.1-10.6-2.6-3.4-5.1-7.7-8.1-11.1-4.5-3-9.2-5.3-14.7-6.6-3.2-0.6-6.6-1.1-10-1.3 4.5 2.4 8.5 6 11.1 9.8 0.2 0.4-0.5 0.9-0.7 0.4-2.5-3.2-5.9-5.9-9.8-7.6-4-1.7-7.8-1.5-12.1-1.9-11.2 1.5-22.3 5.5-32.5 10 8.1-0.7 15.7-0.3 23.8 1 7.9 1.3 16 0 23.6 2.6 15.1 5.3 27.7 17.4 42.1 24.4 11.1 5.4 24.1 8.5 36.2 5.4 8.9-2.2 16.1-7.7 23.8-12.4 4.7-1.7 9.2-3.6 13.6-5.1zm-243.1 207.4c3.8 14.2 7.5 28.7 11.7 42.7 10.4 33.6 23 66.4 36 99.1q0.9-0.9 1.2-1.9c0.7-1.2 2.4-0.2 2.2 0.9-0.3 1-1.1 3-2.2 4 0 0.2 0.2 0.5 0.2 0.7 1.3-1.5 2.6-3 3.9-4.7 0.2-0.2 0.2-0.2 0.4-0.4-0.2-0.5-0.6-0.7-0.6-0.9-2.4-5.7-6.2-11.1-9-16.8-4.4-9.6-8.3-19.6-11.7-29.6-10.6-31-21.7-62.1-32.1-93.1zm54.7 142.3c0-0.2 0-0.5-0.2-0.5-1.3 2.4-2.8 4.3-4.3 6.2 0.2 0.7 0.4 1.3 0.9 1.9 0.6-2.5 3.6-7 3.6-7.6zm-87.7-246.5c-1-9-0.6-18.3-0.8-27.3-0.2-10.8 0.8-19.9 4.5-30.2 5.9-17 10.6-38.2 21-54-3.4 1.7-6.6 3.6-9.3 6.4-3 3-5.6 6.6-8.8 9.1-5.9 4.7-13.8 6.2-20.8 4.3-7.2 10.8-15.7 22.5-16.2 35.5 0 0.2 0 0.4-0.2 0.7 5.5 9.5 11.5 18.7 16.8 28.5 3.6 6.5 6 13.8 9.4 20.4 1 2.5 2.7 4.7 4.4 6.6zm-121.6-163.4c-4.7-1.2-9.6-2.5-14.3-3.6 6.2 2.1 11.9 4.9 17.5 9.2 7.8 5.9 14.7 7.4 23.2 11.2 3.4 1.5 5.7 3.4 8.3 6.2 0.2 0.4-0.3 0.8-0.5 0.4-7-8.1-18.7-7.6-27.4-13.6-6.4-4.5-11.3-8.9-18.7-11.7-4.7-1.7-9.6-3-14.5-4.2-0.2 0-0.2-0.3-0.2-0.5-1.7-0.4-3.2-0.8-4.9-1.2 12.1 7.6 23.6 16.8 35.1 25.3 5.5 4 11.3 7.8 16.6 12.1-0.2-2.4-0.6-4.5-1.1-6.8-0.2-0.7 0.7-0.9 0.9-0.2 0.8 2.7 1.5 5.3 1.9 8.3 3.4 2.5 6.6 5.1 9.6 7.8 0.8 0.9 1.7 1.7 2.5 2.4-0.8-4.1-1.7-7.9-2.3-11.9 0-0.7 0.6-0.9 0.8-0.2 1.3 4.4 2.2 9.1 3.2 13.6 0 0 0 0 0 0.2 4.1 3.8 7.7 7.8 11.3 12.1-1.1-5.3-2.4-10.4-4.3-15.7-0.2-0.9 0.9-1.1 1.3-0.5 2.1 6.2 4.3 12.6 5.5 19 9.4 11 17.9 23.1 26.2 34.8-0.6-1.2-1.1-2.5-1.7-3.8-3.4-8.3-6.4-16.6-9.1-25.1-4.5-7.4-10.5-14.7-14.1-21.5-6.2-11.9-11.3-23.8-24.2-29.3-9.2-3.6-16.8-9.8-26.6-12.8zm51.5 87.4c5.5 1.7 11.4 2.4 17 3.9-15.6-17-29.8-35.1-47.2-50.7-0.5-0.4 0.2-0.8 0.6-0.6 16.2 13.6 31.7 29.1 45.1 45.7-5.3-7.2-10.7-14.6-16.4-21.9v0.2c0 0.9-1.3 1.1-1.5 0.3-0.2-1.1-0.4-2-0.6-3-6-7.5-12.4-14.5-19.6-20.7-18.3-15.7-39.6-27.8-58.3-43.1 7.1 6.8 14.3 13.8 19.2 22.1 8.1 13.2 12.1 28.1 21.7 40.4 10.2 13.4 24.2 22.8 40 27.4zm-23-3.8c0.4-0.4 0.8-0.8 1.5-1.3-0.9-0.4-1.5-1-2.2-1.5-0.8 0.9-1.9 1.7-2.7 2.4q-1 0.9-1.9 1.9c1.2 0 2.5 0.2 3.8 0.2 0.4-0.6 1.1-1.1 1.5-1.7zm-7.5 1.3c1.5-1.9 3.2-3.8 4.9-5.3-0.6-0.7-1.5-1.1-2.1-1.7-1.3 1.5-2.8 2.7-4 4.2-0.9 0.9-1.9 1.9-2.8 2.8 1.5 0 2.8 0 4 0zm-31.2 8.9c2.7-0.4 5.1-1.5 7.6-2.7 4.7-6.2 9.8-12.4 15.6-17.5q-1.3 0-2.6 0c-5.5 4.3-9.8 9.6-13.8 15.3-0.4 0.7-1.5 0-1.1-0.6 3.6-5.3 7.2-10.6 12.4-14.7q-2 0-3.9 0c-2.5 1.7-4.4 4.5-6.6 6.6-2.7 3-5.5 5.8-8.1 8.7-0.6 0.7-1.4-0.2-0.8-0.8 3-3.4 6-7 9.1-10.4 1.3-1.5 2.4-3 3.9-4.3-3.9 0-7.7-0.2-11.5-0.4-6 4.7-11.7 8.9-16.6 14.9-0.4 0.6-1.3-0.3-0.9-0.9 4.1-5.3 9.4-10.8 15.4-14.2-1.1 0-2.4-0.2-3.4-0.2 0 0 0 0.2-0.3 0.2-5.7 3.6-9.9 8.3-14.2 13.4-1.5 1.7-3.8 5.3-6.4 7.2 8.5 2.8 17 2.1 26.2 0.4zm-69.1-8.5c1.9-3.8 4.6-7.6 7.8-10.8-1 0.4-2.3 0.8-3.4 1.4q-2.2 1.3-4.4 2.6c0 0.4-0.3 0.6-0.5 0.9-5.3 3.1-8.9 8.7-13.2 13.1 2.6-1 4.9-2.5 7.3-4 1.2-1.9 3-3.6 4.2-5.3 1.9-2.4 4.1-5.3 6.8-7 0.5-0.3 0.9 0.2 0.7 0.6-1.5 2.6-4.1 4.7-6.2 6.8q-1.3 1.6-2.5 3.2c0.4-0.2 0.6-0.4 1-0.4 0.7-0.4 1.5-0.7 2.4-1.1zm-14.9 7.7c-0.2-0.2-0.5-0.5-0.2-0.7 1.2-2.1 2.9-4 4.4-5.7-2.7 2.3-5.5 4.9-8.3 7.2 1.5 0 2.8-0.4 4.1-0.8zm-1.5-4.1c6.4-5.1 12.5-10.8 19.5-14.6 7.3-3.9 15.1-4.9 23.2-5.6 2.4-0.2 4.5-0.2 6.8-0.4-1-1.1-1.9-2.3-2.7-3.2-2.4-2.5-4.5-5.1-6.4-8.1-16.4 5.3-30 18.5-40.4 31.9zm43.6-32.7c-0.4 0.2-0.9 0.2-1.3 0.4 1.9 2.3 4 4.7 6.2 6.8 1.5 1.5 3.6 3 5.3 4.7 2.5-0.2 5.3-0.2 7.9-0.2-5.6-3-10.5-7.7-14.3-12.4q-1.9 0.4-3.8 0.7zm5.7-0.9c5.3 5.3 11.7 8.7 18.1 12.6q2.5 0 5.1 0c-1.9-1.3-3.6-2.8-5.3-4.1-3.4-2.7-6.6-5.9-10-9.1-2.6 0-5.1 0.2-7.9 0.6zm-22.3 18.5q-2.6 2.9-5.1 5.8c-1.3 1.7-2.6 3.4-3.6 5.1 1.2-0.5 2.5-0.7 3.6-0.7 0.8-2.5 2.5-4.9 4.2-6.8 1.1-1.3 2.4-2.9 3.9-4.2-0.9 0.2-1.9 0.4-3 0.8 0.2-0.2 0 0 0 0zm-1.3 10c1.9-2.5 4-4.9 6.6-7.2 1.9-1.7 4-4 6.6-4.9-1.7 0-3.4 0.2-5.1 0.4-1.9 2.2-4.5 4.1-6.2 6.6-1.2 1.5-2.1 3.4-3.2 5.1q0.7 0 1.3 0zm5.3 0.9c4.9-4.1 9.8-8.3 14.1-13-1.7 0-3.7 0-5.3 0.2-1.5 2.6-4.3 4-6.4 6-2.2 1.9-4.1 4-5.8 6.1 1.1 0.2 2.4 0.5 3.4 0.7zm13.4 4.2c1.3-0.8 2.8-1.7 4.1-2.7 1.9-1.5 3.4-3.4 5.1-5.4 3-3.1 6.6-6.5 10.6-8.7-2.8-0.2-5.3-0.2-8.1-0.4-0.2 0.2-0.4 0.4-0.8 0.4-0.5 0-0.9-0.2-1.3-0.4-2.3 0-4.7-0.2-7-0.2 0 0 0 0.2-0.2 0.2q-5.8 7.3-13.4 13.4c3.8 1.1 7.4 2.3 11 3.8zm6.2 2.4c5.5-6 11.3-14.3 18.3-18.7-0.7 0-1.5 0-2.1-0.3 0 0.3 0 0.5-0.3 0.7-4 3.4-8.2 6.1-11.9 10-1.2 1.2-2.5 2.7-4 3.8-1.5 1.1-3 1.9-4.7 2.8 1.5 0.4 3 1 4.7 1.7zm10.4-2.8c1.9-2.1 3.8-4.5 5.8-6.6 2.9-3.4 6.1-6.6 9.7-9.1-1.2 0-2.5-0.2-3.8-0.2-4 2.9-7.9 5.7-11.5 9.3-2.9 3.2-5.9 6.6-9.1 9.8 1.5 0.6 3 1.1 4.5 1.5 1.7-1.3 3.1-3.4 4.4-4.7zm-1.3-34c2.8 2.1 5.6 4.4 8.3 6.6 3 2.3 6.4 4.2 9.4 6.8 2.5 0 5.1 0.2 7.6 0.2-6.5-3.6-12.7-9.2-16.3-14.5-3.2 0.4-6.2 0.9-9 0.9zm43.2 31.7c2.1-2.6 4.1-5.1 6.2-7.7 1.3-1.7 2.8-3.4 4-4.9 0 0 0-0.2 0.2-0.2q-0.9 0-1.9 0c-4.7 5.3-9.8 10.2-14.4 15.5 1.2-0.6 2.5-1.3 4-1.9 0.4-0.4 1.3-0.6 1.9-0.8zm7.5-1.3c1.2-1.3 2.3-2.6 3.6-3.8 1.3-1.5 2.7-3 4.2-4.5-0.8-0.9-1.9-1.5-2.7-2.3-1.1 1.4-2.8 2.9-3.9 4.2-2.1 2.3-4.2 4.9-6.3 7.2 1.7-0.6 3.4-0.8 5.1-0.8zm-17.9-42.8c-7.9 3.2-13.8 9.2-22.1 11.1 3.8 3.6 7.6 7.2 12.1 10 3.6 2.3 7.9 3.6 11.7 5.3 1.7 0.2 3.4 0.2 5.1 0.4-2.8-1.2-5.5-2.7-8.1-4.2-4-2.6-7.8-6.8-12.3-8.5-0.7-0.2-0.4-1.3 0.2-1.1 4.3 1.3 7.2 4.3 10.8 6.6 4.7 2.8 10 4.3 14.7 7 0.2 0.2 0.4 0.4 0.4 0.7 2.2 0.2 4.3 0.4 6.2 0.6-1.9-1.9-3.6-3.8-5.3-6q-2.6-3.5-5.1-7c-1.7-0.8-3.2-2.1-4.5-3.2-2.1-1.5-4-2.9-5.9-4.6-0.7-0.7 0.2-1.7 1-1.3 2.2 1.5 4.1 3.2 6.2 4.7 0.2 0 0.2 0.2 0.4 0.2-1.7-3.4-3.8-7.1-5.5-10.7zm38.1 43.2q-1.6-0.9-3.2-1.9c-0.7 0.4-1.3 1.1-1.7 1.5-0.2 0.2-0.4 0.2-0.7 0.4 2 0.2 3.7 0.2 5.6 0zm-12.2-105.5c0.9 0.7 2 1.1 2.8 1.5 1.7-0.4 3.8-1.1 5.8-1.3-1.1-1-2.2-2.3-3.5-3.4-1.9 0.4-3.8 0.2-5.5 0.2-1 0-2.1 0.2-3.2 0.5 1.3 1 2.6 1.9 3.6 2.5zm-14.6-10.4c0.4 0.2 0.6 0.4 1 0.6 3.2-1 6.8-1.9 10.2-1.9-0.6-0.4-1-1-1.7-1.5-3.6-3.2-7.6-5.7-11.9-8.1-0.2 0.3-0.2 0.3-0.4 0.5-5.1 1.9-9.8 4-14.7 6.4 2.8 0.4 5.8 0.8 8.8 1.4 3.6-1.9 7.6-2.9 11.9-2.9 1.4 0 1.2 2.1 0 2.1-3 0.2-6 0.6-8.8 1.5 2 0.4 3.7 1 5.6 1.9zm-41.5-9.4c0.6 0.3 1.3 0.5 2.1 0.7 3-2.2 6.2-3.6 9.4-5.3 3.4-1.7 6.8-4.1 10.4-5.6-3.8-1.7-7.9-3.4-11.7-4.9-3.2 1.5-6.6 2.6-9.8 3.9-3.8 1.5-7.4 3.2-11 4.2 2.5 3 5.7 5.5 10.6 7zm-11.9-26.3c1.1 0.4 2.1 0.6 3.2 1h0.2c0.2 0 0.4 0.2 0.6 0.5 6 1.9 11.7 4 17.5 6.3-1.7-4.6-2.6-9.7-1.5-14.6-0.9 0.2-1.7 0.4-2.6 0.8-6.4 2.1-12.3 4.1-19.1 2.6-6.4-1.3-12.4-5.1-17.2-9.4-2-1.7-3.9-3.6-5.4-5.5-0.8-1.1-5.9-12.2-9.5-11.7 0 0 0 0 0.2 0.2 9.1 11.9 18.3 24.7 33.6 29.8zm40.4-9c-1.3 0-2.6 0-3.8-0.2 1.5 4.7 1.9 9.8 2.7 14.5 0.7 4.2 2.6 7.6 3.6 11.5 0.9 0.4 1.5 0.6 2.4 1 0.2 0 0.6-0.2 0.8-0.2 0.2 0 0.5 0 0.5 0-3.9-8.1-5.4-17.2-6.2-26.6zm-1.5 24.1c-1.1-2.2-1.7-4.7-2.1-7.1-1.1-5.5-1.9-11.4-1.7-17-2.1 0-4.5 0.2-6.6 0.5 0.2 2.5 0.6 5.3 0.8 7.8 0.5 3.6 0.5 9.6 2.8 12.6 0.2 0.2 0.2 0.4 0.2 0.6 2.1 0.6 4.5 1.7 6.6 2.6zm-13.8-5.8c1 0.5 1.9 0.9 3 1.3-0.5-1.3-0.5-2.8-0.7-4-0.6-4.9-0.8-9.8-1-14.7-1.5 0.2-2.8 0.4-4.3 0.8 0 5.6 0.6 10.7 3 15.8 0 0.2 0 0.4 0 0.8zm-4.1 19.4c4.9-1.3 9.2-3.2 13.4-6 2.2-1.3 4.3-2.5 6.6-3.4-1.5-0.6-2.9-1.3-4.2-1.9-6.4 4.3-14.3 6.2-20.9 10.2 1.7 0.4 3.4 0.7 5.1 1.1zm12 2.1c5.1-3 10.2-5.3 15.7-7.4-1.5-0.9-3.2-1.7-4.9-2.6-3.8 1.5-7.4 3.4-11.1 5.3-2.5 1.5-5.3 2.4-8.3 3.2 3 0.4 5.8 0.9 8.6 1.5zm27.2-4c0.4 0.2 0.8 0.6 1.3 0.8-2.2-7.4-2.4-14.7-1.3-22.3q-1.6-2.2-3.2-4.5c-0.4 9 0 17 3 25.5 0.2 0.3 0.2 0.5 0.2 0.5zm31.5-85.1c-1.8 5.5-2.8 11-3.4 16.6 4.8 0.8 10.4 5.3 12.7 9.8 0-0.7 0.2-1.3 0.4-1.7 0-0.3 0-0.7 0.2-0.9 0.9-4.7 2-9.1 3.2-13.6 0.3-0.6 0.5-1.1 0.7-1.7-0.4 0-1.1-0.2-1.3-0.9-2.6-5.5-6.2-9.7-9.4-14.6-1.4 2.1-2.3 4.4-3.1 7zm11.2-21.9c4.1 3.6 7 8.9 9 14.2 2.3-4.9 4.6-9.5 6.6-14.6-0.3-0.3-0.5-0.5-0.7-0.9-1.7-4.3-3.8-8.3-5.7-12.5-3 4.6-6 9.1-9.2 13.8zm16.6-28.9q1.6 2.8 3.2 5.7c0.4 0.8 1.1 1.7 1.5 2.6 1.1-6.4 1.5-13 1.5-19.6-0.4-7.5-0.4-14.7-0.9-22.1-3.2 11.2-2.3 22.3-5.3 33.4zm7.5 4.4c-1.1 7.3-3 14.5-5.4 21.5 2.6-1.7 5.4-3.2 8.3-3.8q-0.6-3.5-1.2-7c-0.7-3.4-1.3-7.1-1.7-10.7zm4.9 66.2c-0.5 1.7-1.1 3.6-1.5 5.3 7.6 8.9 18 11.7 28.5 16.8 2.3 1.1 4.6 2.3 6.8 3.6-5.3-4.3-11.3-7.9-17.5-10.8-1.2-0.7-0.2-2.4 1.1-1.7 8.3 3.8 17 8.9 24.7 15.1-0.9-3.2-1.7-6.2-3-9.2-0.7-1.3 1-2.3 1.9-1.1 2.6 4.3 4.7 9.4 5.5 14.3 3.6 3.4 6.6 7.2 9.2 11.5 0-2.1 0.2-4.3 0.2-6.4 0-1.1 1.5-1.1 1.7 0 0.2 3.6 0.8 7.7 0.8 11.3 0 0.2 0.3 0.2 0.3 0.4 0.2 0.2 0.2 0.4 0 0.8 2.5 4.3 4.6 8.6 6.3 13 0.2-2.7 0.9-5.3 1.3-7.8 0.2-1.1 1.9-0.9 1.9 0.2 0 4.9 0.4 10-0.4 14.9 0 0.2-0.2 0.6-0.4 0.6 1.5 5.1 2.3 10.4 2.9 15.7 16.6-18-2.7-44.4-13.4-61.2-7.8-12.6-16.8-22.4-32.5-23.4-8.7-0.7-16.6 0.4-24.4-1.9zm-36.6 83.6c0.2 1.7 0.4 3.1 0.6 4.8 1.7-8 4.1-16.1 6.8-23.8-2.1 1.5-4 3-5.9 4.7-0.3 4.3-0.5 8.5-0.7 12.5 0 0.9-0.4 1.5-0.8 1.8zm-4.3-30.9c0.7 5.3 1.3 10.4 2.1 15.8 0.5-3.7 0.7-7.3 1.1-10.7-0.2 0-0.4 0-0.6-0.2-1.3-1.3-1.7-3.4-2.6-4.9zm9.4-43.2c-0.4 0-0.7 0-1.1-0.4-1.9-2.1-3.2-4.7-5.5-6.6-1.9-1.5-3.9-2.5-6-3.6-0.2 1.3-0.2 2.8-0.2 4 0.2 0 0.2 0 0.4 0 4.5 1.5 9.2 5.4 12 9.6 0-0.8 0.2-1.9 0.4-3zm5.1-9.7c3.6-3.5 7.2-6.8 11.3-9.6 4-3 8.7-6.8 13.8-7.9 0.4-3.6 0.6-7 0.8-10.6-8.5 7.2-18.5 13.6-24.4 23.2-0.2 0.2-0.2 0.4-0.5 0.4-0.4 1.5-0.8 3-1 4.5zm3-11.5c2.3-2.4 4.8-4.5 7.6-6.6 5.1-4.1 10.2-8.1 15.3-11.9q0-1.9 0-3.9c-6.6 4.5-13.4 8.8-19.5 13.7-1.5 2.7-2.6 5.7-3.4 8.7zm21.9-4.7c-5.4 2.1-10.2 6.4-14.5 10-4 3.4-7.9 7-11.3 10.8-0.2 1.3-0.4 2.8-0.6 4.1 7.2-7.7 15.7-14.1 25.3-18.1 0.4-2.1 0.9-4.5 1.1-6.8zm-1.5 9.1c-9.6 6-18.3 12.6-25.8 21.3v0.2c6.8-5.5 15.6-9.6 23.4-12.7 0.2 0 0.2 0 0.5 0 0.4-3 1.2-5.8 1.9-8.8zm-2.8 10.7c-8.3 4.4-15.5 10.2-23.6 14.9-0.4 2.9-0.9 6.1-1.3 9.3 3.2-2.3 6.4-4.2 10-6.2 0.7-0.4 1.3 0.7 0.7 1.1-4.1 2.4-7.7 5.3-11.1 8.7-0.2 1.1-0.2 2.2-0.4 3.4 5.7-4.4 12.1-7.8 18.7-10.6 2.5-6.8 4.9-13.6 7-20.6zm77.6 94.8c-0.8-1.5-0.8-3.2-1.2-4.7-0.3-0.6-0.5-1-0.5-1.6-0.6 0.4-1.5 0.6-2.1 0.2-0.2 0-0.2-0.2-0.2-0.2-19.6-3.7-29.4-10.5-37.6-29-5.4-11.9-10-20.2-22.2-26.6-6.8-3.6-12.9-6.8-15.1-14.2-9.8 25.9-22.7 51-25.3 79.3 0 0.4-0.2 0.7-0.2 1.1 7.2 33.2 15.7 67 30.4 97.8-1.3-22.9-6.1-47.2-0.6-69.3 5.5-21.9 21.9-41.1 33-60.4 0-0.2 0.2-0.4 0.4-0.4 0.2-0.3 0.4-0.3 0.6-0.3 0.4 0 1.1 0.5 1.1 0.9-0.7 7.9 6.8 14.5 10 21.3 1.7 4 3 8.3 3.6 12.5 0.4 2.3 0.6 4.9 0.6 7.2 1.5-1.2 3.2-1.7 5.3-2.3 5.1-1.7 10-3.6 14.7-6.2 2.4-1.2 4.5-2.7 6.4-4.2-0.6-0.2-0.8-0.4-1.1-0.9zm-88.7-64.8c-5.7 3.2-11 7.2-16.1 11.2-0.2 2.6-0.7 5.3-0.9 7.9 3.2-3.6 7.3-6 11.9-6.8 1.7-4 3.4-8.1 5.1-12.3zm-25.7 2.7c1.5 1.3 3 2.8 4.1 4.5 0.6 0.8 1.7 2.1 2.5 3.6 0.2-2.3 0.6-4.9 0.9-7.2 0.2-2.1 0.4-4.1 0.8-6.2-0.4 0-0.8-0.2-1.1-0.6-2.7-5.8-5.1-11.1-8.9-16 0.2 7.2 0.9 14.7 1.7 21.9zm10-19.3c-0.2 0-0.6-0.2-0.8-0.7-1.7-2.3-3.2-4.4-5.1-6.6-1.7-1.7-3.9-3.2-5.8-4.6 0 1.9 0 3.6 0 5.5 4.5 4.2 8.3 9.6 10.6 15.3 0.3-3 0.7-6 1.1-8.9zm-8.7 31.5c1.1 1 1.9 2.1 2.8 3.3 0.4 0.9 1 1.8 1.4 2.6q0.4-2.9 0.7-5.7c-1.9-1.3-2.4-4.3-3.4-6-0.7-1.1-1.5-1.9-2.2-2.8 0 2.8 0.3 5.6 0.7 8.6zm18.5-0.5c-4.3 1.7-7.7 4.5-10.4 8.1-0.2 0.4-0.7 0.6-1.1 0.6 0 0.9-0.2 1.5-0.2 2.4 0.2-0.2 0.4-0.4 0.6-0.4 2-1.5 4.3-3 6.4-4.1 0.9-0.4 1.7 0.9 0.9 1.3-2.2 1.3-4.3 2.8-6 4.5-0.8 0.6-1.5 1.4-2.1 2.3 0 1.1-0.2 2.1-0.2 3.2 1.9-1.5 4-2.8 6.1-3.6 0.2 0 0.2 0 0.5 0 1.9-4.9 3.6-9.6 5.5-14.3zm61.5-15.1c-12.6-9.5-30.5-12.1-41.1-24-1.1 3.4-2.1 6.8-3.4 10 0.4 0 0.9 0.4 1.1 0.8 3.8 12.8 17 13.4 25.5 21.5 4.2 4.1 7.2 9.4 9.8 14.7 3.2 6.8 5.7 14.5 10.8 20 3 3.4 6.6 5.3 10.4 6.8-2.3-1.5-4.4-3.2-6.1-4.9-6.2-6.2-9-15.3-11.3-23.4-0.4-1.3 1.5-1.7 1.9-0.4 3 7.8 5.8 15.3 12.1 21 5.4 4.9 11.7 5.8 17.7 8.8-4-20-10-37.5-27.4-50.9zm-56.8-58c5.5-4.1 11.2-7.7 17.4-10.5 0-1.9-0.2-3.6-0.4-5.5-2.1 1.3-4.3 2.6-6.4 4-1.5 1.1-3.2 2.4-4.7 3.7-0.8 0.8-2.9 2.3-4 3.4-0.4 1.7-1.1 3.4-1.9 4.9zm4-9.4c0.4-0.6 1.1-1.1 1.5-1.5 1.1-0.8 2.1-1.7 3.2-2.3 2.5-1.9 5.3-3.4 8.3-4.7-0.2-1.3-0.2-2.6-0.4-3.8q-4.8 2.2-9 5.1c-0.2 0.2-0.4 0.2-0.6 0.2-1.1 2.3-2.1 4.7-3 7zm5.8-24.7c-1.3-1.5-2-3.4-2.8-5.1q-1-2.2-1.9-4.4c-0.4 1.4-1.1 3.1-1.9 4.6 1.7 3.2 4 6.6 5.3 10 0.6-1.7 0.8-3.4 1.3-5.1zm-7.5-2.7c-0.8 1.4-1.7 3.2-2.8 4.6 2.8 3.4 4.7 7.5 6.9 11.3 0.4-1.3 1-2.8 1.2-4.2-2.5-3.4-3.8-8.1-5.1-12.2-0.2 0.3-0.2 0.5-0.2 0.5zm-16.6 25.9c4.7 3 8.3 8.1 10.4 13.2 0.3-0.6 0.5-1.1 0.9-1.7-0.4-0.2-0.6-0.4-0.9-0.9-1.7-5.5-4.4-10-7.6-14.8-1.1 1.4-1.9 2.7-2.8 4.2zm-4 7.2c4.7 3.7 8.3 9.4 10.8 14.5 0.7-1.7 1.3-3.4 1.9-4.9 0 0 0-0.2-0.2-0.2-2.3-5.7-5.5-10.2-9.5-14.9-1.1 1.7-2.2 3.6-3 5.5zm-16.8 116c-0.9 0-1.7 0-2.6 0.2-0.8 0-1.9 0.2-2.7 0.4 3.6 1.7 7.4 3 11 4.7-1.9-1.7-3.8-3.4-5.7-5.3zm3.8-1.1c1.3 1.3 2.6 2.3 3.8 3.6-2.5-5.1-5.3-10.2-8-15.1 0.2 3 0.6 5.8 1 8.7 0.9 0.9 1.5 1.5 2.4 2.2 0.2 0 0.2 0 0.4 0 0.2 0.2 0.4 0.4 0.4 0.6zm-6.6-6.4c-0.2-3 0-5.9 0.4-8.9-1.7-3-3.2-6-4.9-8.7 0.3 2.1 0.7 4.2 1.1 6.3 0.9 3.9 2.8 7.5 3 11.1 0.2 0 0.4 0 0.4 0.2zm-10-10.2c0 0.2 0 0.2 0 0.4 1.7 1.5 3.4 3.2 5.1 4.7-1.9-5.3-2.5-12.1-2.1-17.4-2.1-3.6-4.5-7.5-6.8-10.9-0.4 8.1 1.1 16 3.8 23.2zm-3.2 11.5c1.5-0.4 3.2-0.9 4.7-1.1 1.3-0.2 2.6-0.4 3.8-0.4q-2.2-2.2-4.4-4.5c-2.2 0.2-4.5 0.5-6.6 0.7q-1.6 0.3-3.2 0.6c1.9 1.7 3.8 3.2 5.7 4.7zm55.5-55.3c-6.6 3.6-12.5 8.1-18.5 12.7-0.2 0.9-0.2 1.8-0.4 2.8 5.1-3.6 10.4-6.6 16-9.6 0.2 0 0.2 0 0.4 0 1.1-1.9 1.7-3.8 2.5-5.9zm92.3 100.4c-6.8 2.5-14.6 3.2-21.9 4-3.4 4.3-6.8 9.4-10.2 14.1 7.1 0.4 14.3 0.4 21.5 1 4.9-5.1 8.3-11.9 10.6-19.1zm-18 24.6c-6 0.5-12.4 0.9-17.9-1-0.2 0-0.2-0.2-0.4-0.2-0.9 1-1.9 2.1-2.8 3 4.5 1.2 9.8 1.4 14.7 1.7 1.9-1.1 4.2-2.2 6.4-3.5zm-9.6 5.2c-4.3 0.2-8.7 0.2-12.6-0.9-0.4-0.2-0.8-0.4-0.8-0.8-1.5 1.2-3 2.3-4.5 3.4 4.5 1 9.2 1 13.6 1.9 0.5-0.5 0.7-0.9 1.1-1.1 1.1-1.1 2.1-1.7 3.2-2.5zm-5.7 5.3c-4.7-0.2-9.4 0.2-13.9-1.3-0.8 1.3-1.5 2.5-2.3 3.8v0.2c0.2 0.9 8.9 0.9 13.4 0.9 0.8-1.3 1.7-2.4 2.8-3.6zm-38.8 29.1c2-3.4 4.3-7 6.4-10.4 1.3-2.1 2.8-4.3 4.1-6.2 0.2-0.4 0.4-0.8 0.6-1 6-9.2 12.1-18.5 16.6-28.5 6.6-14.7 10.6-31.5 5.5-47.3-1-3.4-3.2-6.6-5.3-10 1.3 3 2.8 6 3.6 9.2 1.9 5.9 1.5 11.5 1.3 17.6 0 0.5-0.6 0.5-0.6 0 0-6.8-0.7-13.8-3.7-20.2-1.7-3.8-4-7.4-5.1-11.7-1.9 11.3-4 22.6-6.5 33.9 0.8-1.1 1.6-2 2.5-3 1.7-2.1 3.4-4.5 4.7-6.8 0.4-0.5 1 0 0.8 0.4-2.1 4-5.1 8.9-8.7 11.9-1.5 7.2-3.2 14.3-4.9 21.3-0.2 0.8-0.4 1.9-0.6 2.7 5.1-4.6 9.3-9.7 14-15.1 0.4-0.4 1.1 0.3 0.7 0.7-4.7 5.7-9 12.7-15.4 17-1 4.5-2.3 9.1-3.6 13.6 2.6-1.3 4.7-3 6.6-5.1 0.7-0.6 1.5 0.2 0.9 0.9-1.9 2.3-4.5 4.2-7.1 5.7-0.2 0.2-0.6 0-0.8 0-1.9 10-4.5 20-6 30.4zm16.9-17.6c2.1 0.2 4 0.2 5.9 0h-0.2c-1.7-0.3-3.4-0.3-4.9-1.3-0.2 0.4-0.6 0.8-0.8 1.3zm18.5-29.4c0.2-2.3 0.2-4.7 0.4-7 0 0.2 0 0.2-0.2 0.4-1.7 4.9-3.9 9.8-6.2 14.5 2.1-2.2 4.2-4.5 6.2-7 0-0.3-0.2-0.5-0.2-0.9zm24.6 3.2c-3.8 0.2-7.6 0.2-11.7 0.2-3.2 0-7 0.9-9.8-0.8-0.4 0.4-0.8 0.8-1 1.5 6.6 1 12.9 1.4 19.8 1.4 0.8-0.6 1.7-1.4 2.7-2.3zm-15.5-13.6c0.8-7.5 2.3-15.3 5.1-22.3-1.3 0.2-2.5 0.6-3.8 1 0 0 0 0.2 0 0.4-0.5 4.7-1.1 9.2-1.5 13.9-0.2 2.7-0.4 5.7-0.7 8.5 0.3-0.7 0.7-1.1 0.9-1.5zm10.2-23.6c-1.1 0.4-2.3 0.8-3.8 1 0 0.3 0.2 0.3 0 0.5-1.7 6.1-2.1 12.3-3.2 18.5 1.1-1.3 2.1-2.6 3.4-3.6 0.2-0.3 0.2-0.3 0.4-0.5-0.4-5.1 1.3-11 3.2-15.9zm7.9-3.9c-2.1 1.1-4.1 2.2-6.4 3-1.3 4.7-1.5 9.4-2.1 14.1 2.5-2.6 5.1-4.9 7.6-7.5-0.8-1.7-0.2-3.6 0-5.5 0.2-1.1 0.4-2.6 0.9-4.1zm3.6-2.1c0 0.2-0.2 0.2 0 0-0.6 0.5-1.3 0.7-1.7 1.1-0.4 2.1-0.7 4.2-0.9 6.4 0 0.8 0 1.9-0.2 2.7 0.9-0.8 1.5-1.5 2.4-2.3 0 0 0 0 0-0.2-0.2-2.4 0-5.1 0.4-7.7zm4-2.5c-0.8 0.6-1.7 1-2.5 1.7 0 1.9 0 3.8 0.2 5.7 0.2 0 0.6-0.2 0.8-0.2 0.5-0.4 0.9-0.9 1.3-1.5-0.2-0.8 0-1.9 0-2.7 0-0.9 0-2 0.2-3zm9.4-5.6c-1.1 2.4-2.3 4.5-3.6 6.6 0 0.2 0 0.5-0.2 0.7-0.3 0.4-0.5 0.4-0.7 0.6-1.3 1.7-2.5 3.4-4 5.1q0.3 0 0.6 0c1.5 0 3.2 0.2 4.7 0.2h0.2c1.1-4.4 2.1-8.9 3-13.2zm-1.7 0c-0.4 0.5-0.9 0.9-1.5 1.3q0 0.7 0 1.3c0.4-0.9 1.1-1.7 1.5-2.6zm-1.3 14.5c-1.5 0-3.2 0.2-4.7 0.2-0.6 0-1.5 0.2-2.3 0.2-0.6 0.7-1.3 1.3-1.9 2.2 0.4 0 0.6 0 1 0 2.2 0 4.5 0.2 6.6 0.2 0.2 0 0.2 0 0.5 0.2 0.4-1.1 0.6-2.1 0.8-3zm-12.8 6.4c3.9 0 7.5 0 11.3 0 0.2-0.9 0.4-1.5 0.7-2.4-2.2 0-4.3 0-6.2 0.3-1.1 0-2.3 0.4-3.4 0.2-1.1 0.6-1.7 1.2-2.4 1.9zm10.9 1c-4 0.5-8.1 0.9-12.1 0.9-0.2 0-0.5 0-0.5-0.2-1 1-2.1 2.1-3.4 3.2 5.1-0.5 10.3-0.7 15.1-0.7 0.5-1 0.7-2.1 0.9-3.2zm-1.1 4.3c-5.5 0.6-10.8 1.5-16.3 1.9-0.3 0-0.5 0-0.7-0.2-0.4 0.4-1 1.1-1.5 1.5-0.4 0.4-1 1.1-1.5 1.5v0.2c-0.2 0.4-0.4 0.6-0.8 0.6 6.8-0.8 13.6-1 20.2-2.9 0-0.5 0.4-1.5 0.6-2.6zm-1.7-21.7c0.2 1.3 0.2 2.8 0.2 4.1q1-1.3 2-2.6c0-1.1 0.2-2.1 0.4-3.4h-0.2c-0.9 0.8-1.5 1.3-2.4 1.9zm-32.3 15.3c0 3.8-0.4 7.5-1.1 11.3 0.3 0.2 0.3 0.4 0.3 0.6-0.3 4.7-0.3 9.2-0.5 13.9 0.9-1.1 1.7-2.2 2.4-3.2 0 0 0 0 0-0.3-0.9-7.8 1.7-17.4 2.9-25.3-1.4 0.7-2.7 1.3-3.6 2.4 0 0.4-0.2 0.6-0.4 0.6zm-5.3 51.9c-4.5 0.7-9.4 0.9-13.2-0.8q-1 1.6-1.9 3.2 0.6 0.3 1.3 0.6c2.3 0.6 5.1 1.1 7.8 1.3 1.9-1.1 4.1-2.6 6-4.3zm-37.4 21.7c-0.7-3-1.1-5.9-1.5-8.9 0.4 3.6 0.8 7.4 1 11 0.2-0.8 0.5-1.5 0.5-2.1zm25.1-108.9c-7.7 17.5-22.4 31.7-27.1 50.6-4 15.6-1.7 31.3 0.2 46.8-1.6-15.1-0.6-30.6 2.4-45.3 0-0.4 0.8-0.4 0.8 0.2-1.7 17-1.7 33 0 49.4 2.8-12.8 6.6-25.3 10-38.3 5.4-21.1 9.4-42.3 13.7-63.4zm-116.6 215.9c0.2 0-0.2 0 0 0zm-30.8 1.9q0 0.3 0 0c0 0.2 0 0 0 0zm-7.5-27c0-0.2 0-0.2 0-0.2 0 0 0 0 0 0.2zm25.5-29.1q0.4 0 0 0c0.3 0 0 0 0 0zm-0.2-0.5c0-0.2 0-0.2 0.2-0.4-0.2 0.2-0.2 0.2-0.2 0.4zm15.3-249.9c2.4 0.9 4.5 1.5 6.6 2.6-0.2-0.4-0.4-0.7-0.6-1.1-15.5-6.6-30.8-17.9-40.8-31.5-13.7-18.7-18.8-45.1-22.2-67.4 0-0.4 0.5-0.6 0.7-0.2 4.4 20.6 8.9 44.2 20.2 62.3 9.8 15.8 24.9 24.3 40.2 33.2-4.7-9.1-8.5-18.7-12.1-28.5-2.4-1.7-5.1-2.1-7.7-3.4-1.9-0.9-3.6-2.1-5.3-3.4-3.8-3-7.7-6.4-11.3-9.6-0.4-0.4 0.2-0.8 0.6-0.6 4.5 3.4 8.6 7.4 13.4 10.4 3 1.9 6.6 2.6 9.6 4.3-4.7-13-8.9-26-14.7-38.3-6.3-13.9-15.9-22.8-25.5-34.1-6.4-7.6-12.3-15.9-17.6-24.4 9.5 24.7 7.8 52.3 18.9 77.2 6.2 13.8 13.6 28.5 24.7 39.1 6.6 6.6 14.2 10.2 22.9 13.4zm-71.2-139.1q0-0.3 0 0c0-0.2 0 0 0 0zm34.4 20.2c-9.5-5.7-19.5-11-29.1-16.8 5.7 6 10.4 13.4 16.4 19.4 8.9 8.7 16.8 18.7 24.9 28.3 0.4 0.4-0.2 1-0.7 0.6-7.8-9.8-15.9-19.1-25.1-27.9-5.1-4.8-9.5-10.8-14.4-16.1 7.6 11 15.1 22.1 24.6 31.9 8.5 8.5 14.1 16.1 19.2 27 0.8 1.7 1.5 3.4 2.3 5.1 0.4-3.6-0.2-8.1-0.4-11.5-0.4-4.9-1.1-9.8-1.9-14.9-0.2-0.6 0.8-0.8 1-0.2 0.9 4.9 2 10 2.4 15.1 0.4 4.5 1.7 10 0.2 14.3 3.2 7.6 6.4 15.3 9.4 22.9 0.2-8.7 0.4-17.2 0-25.9 0-0.7 0.8-0.7 0.8 0 1.1 10.2 1.7 20.6 1.1 30.8 2.5 6.4 5.1 12.8 7.6 19.4 0.4-6 1.5-11.9 2.6-17.5 0.2-0.8 1.3-0.4 1.3 0.5-1.3 7.2-1.5 14.4-2 21.7 2.6 5.9 5.4 11.9 8.1 17.8 1.5-14.6 4.1-28.9 2.8-43.6-1.7-17.4-9.6-31.9-19.2-46.3-8.7-14.1-17.6-25.6-31.9-34.1zm210 199.1c2.1-4.2 4.6-8.1 7.8-11.7-2.7-1.5-5.3-3.2-7.6-5.5 0.4 5.3 0.2 10.6 0 15.7-0.2 0.4-0.2 0.9-0.2 1.5zm-111.3-362.6c-1.7 6.1-1.9 12.5-2.1 18.9 5.7-7 10.9-14 15.3-21.5 0.4-3.2 1.1-6.4 1.3-9.5 0.2-3.2-0.4-6.6-0.4-9.8-1.7 1.5-3.6 2.9-4.9 4.6-4.5 4.9-7.5 10.9-9.2 17.3zm-12.9-26c-0.3-0.2-0.3-0.4-0.3-0.8 0.5-8.1 1.7-18.1-1.7-25.8-3.2-7.4-10-10.8-15.5-16.3-0.6 1.2-1.5 2.5-2.7 3.6-1.3 1.5-3.2-0.7-2.2-2.2 3.9-4.6 4.9-10.2 1.9-15.7-1.2-2.1-2.9-4-3.4-6.6-0.2-2.3 0.9-4.5 1.3-6.8 0.6-3.2 1.3-5.7-4-5.5-1.7 0-3.6 1.3-5.1 2.3-0.5 0.2-0.9-0.2-0.7-0.6 1.7-2.8 5.8-4.9 9.2-4.1 3.2 0.9 3 4.1 3 7.1-0.5 5.1 0.2 8.7 2.5 13.4 0.9 1.7 1.3 3.4 1.5 5.3 0.2 2.7 0 5.5-1.1 7.8 0.2 0 0.2 0 0.5 0 6.8 3.2 13.6 9.8 16.8 16.8 3.1 7.3 2.3 16 2.5 23.9 1.9-2.2 3.8-4.1 6-5.8-2.6-16.8-12.6-31-14.5-48-2.3-19.4-2.1-39.2-3-58.5-5.5-1.7-13.2 1.7-18.5 1-3-0.4-5.7-1.5-8.3-2.9-4.7-2.8-8.3-7.1-12.5-7.5 2.3 4.5 3 9.6 4.4 14.5 2.2 7.6 4.9 15.1 7.5 22.5 0.2 0.9-1.1 1.3-1.3 0.7-2.5-6-4.9-12.4-7.2-18.6-2.2-5.9-3-13.1-6.4-18.7-1.5 0.5-3.2 1.5-4.9 3.2-0.4 0.5-0.6 0.9-1.1 1.3 12.4 25.9 19 53.2 20.7 81.7 0 0.4-0.9 0.4-0.9 0-2.1-27.5-9.8-53.8-21.5-78.5-0.6 1.1-1.5 2.1-2.5 3-2.6 2.1-6.2 2.9-8.7 5.1-2.2 1.7-3.2 3.6-4.1 5.7 0.7 2.1 0.9 4.7 1.3 6.8q1 4.5 2.6 9c0.2 0.8-1.1 1.2-1.3 0.6-1.3-3-2.6-5.7-3.4-8.9-0.2-0.7-0.4-1.5-0.7-2.4-0.4 1.5-1 3-1.7 4.5-0.2 0.2-0.4 0.6-0.6 0.8 3.8 13.2 6.4 27.9 14.7 39.2 0.4 0.4-0.4 1-0.9 0.6-8.7-10-12.7-23.4-16.1-36.1-2.8 3.8-5.4 7.6-6 12.5-0.8 7.2 2.3 14 4.9 20.6 7.7 1.7 15.5 4.5 22.1 9 17 8.7 20.4 28.9 19.8 46.3 1.3-1.9 2.3-3.8 2.5-5.9 0.5-7.3-0.2-14.7 2.6-20.7 0-0.4 0.2-1 0.6-1.2 1.7-3 4.5-5.6 9-7.3 0.8-0.2 1.2 0.9 0.6 1.3-0.8 0.4-1.7 1.1-2.3 1.5 7 1.5 13.6 7.7 17.6 12.8 0.4 0.4-0.2 1.2-0.6 0.6-4.9-5.1-11.9-10.8-19.4-11.1-0.2 0-0.2 0-0.4 0-0.6 0.7-1.1 1.3-1.7 2 4.3 0.4 8.9 3.1 12.1 5.3 0.7 0.4 0 1-0.4 0.8-2.6-1-5.3-1.9-7.9-2.3-1.7-0.4-3.6-0.4-5.3-0.9-1.7 4.3-1 9.2-0.8 14.3 8 3.6 15.9 11.7 19.1 19.8 0.2 0.6-0.8 1-1.1 0.4-2.1-4.3-4.6-8.1-8.3-11.1-2.9-2.3-6.1-4-9.5-5.5 0 0.8 0 1.7-0.2 2.6-0.2 1.2-0.5 2.1-0.7 2.9 6 2.6 11.3 7.3 15.1 12.4 0.2 0.2-0.2 0.6-0.4 0.4-2.1-2.6-4.7-5.1-7.7-6.8-2.7-1.7-5.5-2.4-8.7-3-0.4 0.6-0.8 1.3-1.5 1.9 0.5 0.5 0.9 0.9 1.3 1.1 1.3 1 2.8 2.1 4.3 2.5 0.6 0.3 0.4 1.5-0.5 1.3-1.7-0.4-3.6-0.8-5.3-1.7-0.6-0.2-1.3-0.6-1.9-1.1-3.6 5.2-4.7 8.6-5.7 13.2 2.9 2.4 6.1 4.3 9.7 5.4 0.7 0.2 0.5 1-0.2 1-3.6-0.6-7-1.9-10-3.8-0.2 0.6-0.2 1.1-0.4 1.7 1.7 0.8 3.2 2.1 4.9 3 2.3 1.2 4.7 2.3 7.2 3.6 4.3-1.9 8.3-4.1 12.4-6.4 9.3-5.7 14.9-12.8 21.5-21.5zm-36.4 29.2c-2.1-0.7-4.1-1.3-6.2-2.2-1.3-0.6-3-1-4.2-1.9-0.9 3.8-2.2 6.8-4.7 9.8 1.7-0.4 3.2-0.8 4.7-1.5 3.6-1.5 7-2.8 10.4-4.2zm-27.2 8.3c2.7-0.7 5.5-1.1 8-1.7-0.4-0.7-0.6-1.5 0-2.4-8.9-6.4-15.1-14.4-26.8-14.4 7.3 4.8 14.5 10.6 18.8 18.5zm-19.8-22c0 0.3 0 0.5-0.2 0.5 6.3 0.4 12.7 1.5 18.3 4.4 3.8 2.2 9.7 5.8 12.1 10 1.9-2.7 2.5-5.9 3.2-9.3-4.3-2.4-8.5-5.1-13-6.8-6-2.2-10.6-0.9-16.6 0-0.6 0-1.5-0.9-0.8-1.5 1.9-1.5 3.8-2.4 5.9-3-0.4-0.2-0.8-0.2-1.5-0.4-3.8-0.4-7.2 1.7-7.4 6.1zm25.7-2.5c1.5 0.6 3 1.5 4.5 2.1-0.2-1.7 0-3.2-0.2-4.9-0.2-2.1-1.3-4-1.9-5.9-1.3-3.6-3.4-7.9-2.6-11.7 0.4-1.7 2.8-2.4 4-1.1 2.8 2.8 3.7 8.1 4.3 12.1 0.6 4.5-1.3 8.5-1.1 13 0.5 0.2 1.1 0.4 1.5 0.9 0.4-2.4 0.7-4.7 1.3-6.8v-0.3c-1.1-23.1-12.6-39.1-27.2-56.3 0 0 0 0 0-0.2-4.1 0.4-7.9 1.7-11.9 2.9 16.8 13 25.3 35.6 29.3 56.2zm14.3-12.6c0.8-16.8-1.5-37.8-19.2-45.3-3.6-1.4-7.2-1.9-10.6-1.7 13.8 14.1 27 31.9 27.4 52.2 0.9-1.3 1.9-2.6 3-3.9q-0.6-0.3-0.6-1.3zm-65.8 68.5c6-9.1 7.7-18.7 18.3-24q-0.3-0.6-0.6-1.3c0 0 0 0-0.2 0-2.1 0.5-3.6 2.4-5.8 3-1.7 0.6-3.6 0.8-5.5 1.1-3.8 0.2-8.3-1.3-8.1-5.8 0-1.3 0.9-2.3 1.9-2.5 3-1.1 5.4 0.6 8.3 1 1.5 0.2 3.4 0.5 4.9 0.5 1.1 0 2.2-0.3 3-0.3-0.4-1-0.6-2.3-0.8-3.4-7.5 2.4-16.2 1.3-19.4-7-0.8-2.5 2.3-4.7 4.3-3.4 4.6 3 8.9 7.5 14.6 8.1 0-0.6-0.2-1.3-0.2-2.1h-0.2c-1.7-1.3-1.5-3.4-1.7-5.3q0-0.4 0-0.7c-4.5 0-12.5-2.5-17-6.8-0.2 0.2-0.4 0.4-0.6 0.2-7.1-2.7-14.5-5.9-22.2-6.3q-0.9 0-1.9 0c4.3 1.6 8.1 4.8 11.5 7.2 5.7 4 9.8 8.9 14 14.4 0.3 0.5-0.2 0.9-0.4 0.5-8.7-10-18.9-16.6-31.5-21.1-0.2 0-0.4-0.2-0.6-0.4-3.4 0.6-6.6 1.3-10 1.9-7.6 1.1-14.9 0.6-21.5-3.8-5.7-4.1-10-10.7-10.6-17.7 0-0.6 0-1.3-0.2-1.9-5.1-0.6-10.2-1.7-15.3-1.7-6-0.2-12 0.4-17.9 0.6 0 0 0 0-0.2 0-0.2 0.5-0.4 0.9-0.4 1.3 6.1-0.4 13.1 1.1 18.7 3 0.6 0.2 0.4 1.3-0.2 1.1-3.7-1.1-7.3-1.3-11.1-1.3-2.8 0-5.5 0.4-8.3 0.4-1.9 7.2-1.3 15.1-1.5 22.6 21.7 0 42.8 2.7 63 10.8 17.8 7 38.3 9.8 52.7 23.6 0.4 0.4-0.2 0.9-0.4 0.4-15.7-13.4-37.7-16.8-56.6-23.4-19.1-6.6-38.9-8.3-58.9-8.3 0 0.9-0.2 1.5-0.2 2.4-1.1 7-7 13-7.4 19.8 14 0.4 28.2 0.4 42.3-1.5 0.6 0 0.6 0.8 0.2 1-14.1 2.4-27.9 4.3-41.9 3.9 0.4 1.5 0.8 3.2 1.1 4.4 0 0 0 0 0.2 0 20.2 3.2 40.2-2.5 60.6-1.5 18.5 0.9 37 4.9 55.3 8.8 0.6 0.2 0.4 1-0.2 1-21.1-3.6-42.4-7.4-63.8-6.8-17.1 0.4-35.1 6.4-51.7 1.5 0 8.3-1.3 15.3 9.8 19.4 8.7-7.9 21.9-12.4 32.9-15.1 26-6.6 53.4-3.2 77.4 9.5zm-109.1-80.8c10-1.3 22.4-1.9 31.3 2.8 0.2-3.4 1.1-6.6 1.9-9.8-11.7-6.4-25.9-3.6-33.2 7zm125.3 37.7c0.6-2 1.5-3.7 2.6-5.4 0.2-0.2 0.4-0.4 0.6-0.4-1.1 0.2-1.7-0.4-2.3-1-1.9 1-1.5 4-0.9 6.8zm206.5 102c0.2 0 0.5 0 0.7 0.3-0.2-0.9-0.5-1.7-0.9-2.6-0.2 0.2-0.6 0.4-1 0.2-14.5-0.6-25.1-10-32.4-21.9-7.2-12.1-15.7-28.5-12.5-43 0.2-0.8 1.5-0.6 1.3 0.3-1.7 12.9 4.8 25.5 11 36.5 7 12.8 17 23.9 32.3 24.5-4-10.4-10.2-20.4-14.4-30.4-5.1-12.1-9.4-24.5-13.6-36.8-6-17.4-11.5-34.7-13.4-52.3-0.2 1.7-0.7 3.6-1.1 5.3-3 10.8-5.3 18.5-3.8 30.2 0.4 4 1.3 8.1 0.4 12.1-1.7 7.9-4.9 13.2-2.6 21.9 2.4 8.3 5.6 16.4 9.6 23.8 8.3 15.6 21.1 31.9 40.4 31.9zm-38.3-159.5c-1 2.4-1.7 4.7-2.3 7.1 3 14.4 5.3 28.9 9.4 42.9 4 14.7 9.8 28.7 13.6 43.2 0.2 0.8-0.9 1.3-1.3 0.6-11.9-22.7-19.1-51.9-22.1-78-0.7 25.3 7.6 50.2 16.1 73.6 4.9 13.4 9.6 27.2 15.4 40.4 3.6 8.5 9.1 17.2 12.1 26.1 6.2-17.4 5.3-35.1-1.5-52.1-0.2-0.6 0.6-0.8 1.1-0.4 7.4 16.2 8.9 33.6 4.4 50.6 7.7-11.5 5.1-29.5 1.3-41.5-4.3-13.4-11.7-25.7-18.1-38-12.5-23.8-17.2-50-28.1-74.5zm77 109.4c0-3 0-6.2 0.3-9.2-1.7-0.4-2.8-2.5-3.9-3.8 0-0.2-0.2-0.2-0.2-0.4q1.9 6.7 3.8 13.4zm-7.8-75.1c1.9 1 3.6 2.5 5.3 3.8 0.4 0.4 1.1 0.6 1.5 1.1-0.9-6.4-1.9-12.8-3-19.2-1.1 4.9-2.6 9.6-3.8 14.3zm5.1-18.1c0 0.2 0 0.2 0 0.4 0.2 0 0.4 0.2 0.4 0.7q2.6 10.5 4.5 21c0.4-0.4 0.6-0.8 1-1 0.5-0.7 0.9-1.3 1.5-1.5-2.1-6.8-4.4-13.4-7.4-19.6zm-8.7 44.4c0 3.5 0.4 7.1 1.2 10.5 0 0.2 0.2 0.4 0.2 0.8 2.2 2.6 4.3 5.3 6.6 7.9 1.5 1.7 3.2 3.4 4.7 5.1 0.2-3.2 0.4-6.4 0.4-9.6-0.4 0-0.6-0.2-1-0.4-4.5-4.5-8.5-9.4-12.1-14.3zm1.4-16.3c-0.8 4.2-1.2 8.7-1.4 12.9 4.4 4.5 8.7 9.4 12.9 14.1 0-0.4 0-0.7 0-1.1 0-4.2 0-8.5-0.4-12.7-4.3-3.9-7.9-8.6-11.1-13.2zm18.3 8.7c-0.8-5.3-1.9-10.6-3.4-15.7-0.2 0.2-0.4 0.4-0.6 0.8-0.6 0.9-1.3 1.7-1.9 2.8 0.8 6.1 1.5 12.1 1.9 18.5 0.4-0.7 0.8-1.3 1.3-1.7 0.8-1.3 1.5-2.6 2.3-4.1 0-0.4 0.2-0.6 0.4-0.6zm-3.8 54.7c2.1-6.4 3.4-13 4.3-19.6-1.1 1.3-2.2 2.7-3.4 4-0.3 0.2-0.5 0.2-0.7 0.2 0.2 5.1 0.2 10.2-0.2 15.4zm5.3-33c-1.7 2.1-3.4 4-5.1 5.9 0 2.8 0 5.4 0.2 8.1 0.7-0.8 1.5-1.5 2.2-2.3 0.8-0.9 1.4-1.7 2.3-2.6 0.2-2.9 0.4-5.9 0.4-9.1zm-1-19.4c-0.5 1.1-0.9 2.2-1.5 3.2-0.7 1.3-1.5 2.8-2.6 3.6-0.2 0-0.2 0-0.4 0 0 1.3 0 2.4 0 3.7 0 3.8 0.2 7.8 0.2 11.7 1.7-2 3.4-4.1 5.3-5.8 0-5.3-0.2-10.8-1-16.4zm-18.3-13.6c3.4 3.6 7 7.5 10.2 11.1-0.4-3.4-0.7-6.8-1.3-10.4-1.1-0.7-2.1-2-3.2-2.8-1.5-1.3-3.2-2.6-4.7-3.8-0.2 2.1-0.6 4-1 5.9zm3.6 47.2c1.3 2.2 3 4.1 4.5 6 0.4 0.6 1.2 1.3 1.7 1.9 0.2-2.5 0.2-5.1 0.4-7.6-2.6-2-4.7-5.2-6.6-7.7-1.1-1.5-2.1-2.8-3.2-4.3 1.1 3.9 2.1 7.9 3.2 11.7zm43.4-98.4c0.6 0.2 1.3 0.2 1.7 0.4-0.7-0.4-1.3-0.9-1.9-1.5-12.8-10.6-11.5-27-16.6-41.1-3.4-9.9-10.7-17.8-20.2-22.3-2.8-1.3-5.8-2.5-8.5-3.6 8.7 8.3 15.1 18.7 20.4 29.8 3.6 7.4 6.1 15.3 9.8 22.7 3.6 6.4 7.8 13 15.3 15.6zm-28.7-4.9c0 0 0.2 0 0 0zm83.6 441.1c0.4-0.2 0.4-0.9 0-1.1-0.9-0.4-1.5-0.2-2.4-0.2-1.1 0-2.1-0.2-3.2-0.2-0.8-0.2-1.3 1.1-0.4 1.3 1.1 0.4 2.1 0.4 3.2 0.6 0.8 0 1.9 0.2 2.8-0.4zm180.9-432.2c-2.5-8.5-1-14.5-1.7-22.8-0.6-7.8-4.8-14.8-11.2-19.3-3.2-2.4-6.8-3.6-10.7-4.7-3.4-0.8-11.9-0.4-15.5-2.5-0.2-0.5-0.4-0.7-0.8-0.7-0.3-0.2-0.5-0.6-0.7-1-0.4-1.5-2.5-0.9-2.3 0.6 0 0.2 0 0.4 0 0.4-9.2 0.9-17.2 5.1-25.5 9.4-9.8 5.1-19.6 10.6-27.7 18.1-0.6 0.6 0.2 1.4 0.9 0.8 13.8-11.1 35.7-24.7 53.8-25.3 0.4 0.4 0.8 0.6 1.7 1.1 0.4 0.2 1 0.4 1.5 0.4-2.8 0.8-5.6 1.9-8.3 2.8-10 3.3-20 7.4-29.4 12.5-0.6 0.4-0.2 1.5 0.4 1.1 14.7-5.8 34.9-17.1 50.9-13.9q0.3 0 0.6 0c0.2 0 0.4 0.3 0.4 0.3-6.1 0.6-12.1 2.5-17.2 5.9-0.4 0.4 0 1.3 0.4 0.9 6.6-3.9 13.6-4.1 20.9-4.7 1 0.6 2.1 1.2 3.2 2.1 10.4 8.3 8.9 16.8 9.1 28.3 0 4.5 3.6 11.3 3 15.9-25.3-17.6-55.5-18.7-85.7-20.2-1.1 0-1.1 1.5 0 1.7 15.7 2 32.1 2.2 47.6 5.1 13.6 2.8 24.9 9.8 36.8 16.2-0.4 0.4-1.3 0.9-2.1 1.3-3.4-2.1-6.6-4.1-10.2-5.3-6.6-2.4-13.6-4.5-20.4-6.2-0.9-0.2-1.3 1.1-0.5 1.3 6.4 2.3 12.8 4.2 19.2 6.6 3 1 5.7 2.9 8.5 4.4-1.1 0.9-0.9 3 1 3.2 5.2 0.2 10.9 0.2 11.7-5.7 0.9-3-1-5.5-1.7-8.1zm-246.5-174.6c12-3.8 25.1-4.1 34.5 5.3 11.7 11.9 20.4 29.1 27.2 44.7 0.7-1.7 1.5-3.6 2.1-5.4 3.5-7.6 9-19.1 17.5-22.3 4.5-1.7 7.4-0.2 11.9 0.4 5.3 0.9 9.8 2 15.5 0.3 3.4-0.9 6.4-2.6 9.8-3.2 9.8-1.5 13 3.8 18.5 10.4 0.9-0.2 1.7 0.4 1.5 1.3-4.7 13.4-15.5 25.1-23.8 36.5-8.3 11.5-16.4 23-26.4 33.2-0.6 0.7-1.3-0.2-0.8-0.8 17.2-21.3 31.6-44.9 47.2-67.2-1.9-1.3-1.7-2.4-4.1-3.9-11.9-7.4-12.1-4.6-20.6-2.3-8.3 10.6-16.2 20.4-22.1 32.7-0.4 0.9-1.9 0.3-1.5-0.6 2.8-6.6 5.9-13 9.8-19.1 2.3-3.7 5.1-8.8 8.7-12.2-1.7 0.3-3.4 0-4.9-0.2v0.2c-6 10-12.5 19.4-17.9 29.8-5.7 11.1-9.5 22.8-13.8 34.5 1.5 0.6 2.4 1.9 1.9 3.8-0.6 2.3-2.1 4.5-3.8 6.4 0 0.2 0.2 0.2 0.2 0.4 2.8 6.2 1.5 16.4-2.8 22.3q1.6-0.3 3.2 0c0.3 0 0.5 0.3 0.5 0.3 0.8-2.8 2.1-5.6 2.3-8.6 0.4-4-0.6-8.7 0.4-12.7 0.7-1.9 2.8-2.8 4.5-1.7 4.7 2.7 4 8.9 3.4 13.6-0.6 4.9-3.4 8.1-5.7 11.9 0.2 0.2 0.4 0.2 0.6 0.4 0.4 0.7 1.1 1.3 1.5 1.7 1.5-5.1 4.5-9.7 5.5-15.1 0.6-2.7 1.5-10 6.2-7.4 4.4 2.3 0.8 11.1-0.4 14.5-1.5 4-4.3 8.7-8.1 11.2 0.8 0.7 1.5 1.3 2.3 1.9 0.2 0 0.2 0 0.4 0.2 0.9-2.7 3-5.5 4.7-7.2 2.8-2.7 7.2-6.4 11.1-6.4 3-0.2 4.9 3.4 3.4 6-1.9 3-6 4.7-8.7 6.6-1.5 1-3 1.9-4.3 3.2l-0.2 0.2c1.5 0.4 2.8 1.1 4.2 1.5 4.5 1.5 9 3 13.7 4.2 13.8-4.9 21.2-17.2 31.4-26.8 7.1-6.6 15.3-10.6 24.9-12.3 1.9-0.4 3.9-0.6 6-0.9 2.3-8.9 2.1-17.4-0.7-25.3-15.3 26.2-41.7 41.1-65.9 58.1-0.8 0.6-1.7-0.9-0.8-1.3 24.8-17.6 47.2-34.9 64.8-59.7 0-0.3 0.2-0.3 0.2-0.3-1.9-4-4.4-8-7.6-11.6-0.9-1.1-1.7-2-2.6-2.8-5.9 11.7-17.2 21.7-26.3 30.2-0.5 0.4-1.3-0.2-0.9-0.9 4.7-5.5 9.6-10.8 14.3-16.6 4-4.8 7.2-10.2 11-15.3-0.4-0.4-0.6-1-0.8-1.7-14.3 20.7-34.3 38.5-52.6 55.1-0.6 0.7-1.5-0.2-0.8-0.8 18.1-19.2 35.3-38.5 52.7-58.1 0.2-0.8 0.4-1.9 0.4-2.8q0.4-1.6 0.7-3.1c2.1-5.8-1.3-9.2-10.4-10.3-1.7 0.7-3-1.7-1.5-2.3 17.2-7.4 13.2 18.9 18.1 25.7 5.3 7.5 10.8 12.6 13.4 21.7 1.9 7.5 1.4 14.9-0.3 22.1 13.7-0.6 28.8 2.6 34.5 15.8 0.8 1.9-2.1 2.8-3 1.3-6.4-9.2-17-13.2-28.1-13.4-0.2 0.2-0.2 0.2-0.4 0.2-22.3 9.3-33.2 34.2-57 40.6-0.6 0.2-0.8-0.9-0.2-1.1 21.5-5.9 30.2-30.4 49.4-39.3-10.5 1.3-20.9 5.5-27.9 11.7-10.4 8.9-17.7 20.2-30 25.9 3.8 1.3 7.7 2.8 11.5 4.7 7.6-1.5 14.9-5.1 20.6-10.4 0.4-0.4 1.3 0.2 0.9 0.8-4.7 4.7-10.7 9.4-17.1 11.5 7.9 1.1 14.9-0.8 22 3.6 2.9 2 7.6 5.8 4.4 9.2-0.4 0.4-1 0.2-1.3-0.2-1.2-2.1-1.9-4.3-4-5.8-0.6-0.4-1.1-0.8-1.7-1.2 0.2 0.2 0.2 0.6 0 1-0.8 1.3-2.3 1.9-3.8 2.6-1.5 0.6-3 1-4.7 1.5-0.8 0.2-1.1-1.1-0.4-1.3 1.5-0.7 2.7-1.5 4-2.4 1.1-0.6 2.1-1.6 3.4-1.9 0.2 0 0.2 0 0.4 0-1.4-0.8-3.1-1.7-4.9-2.1-4.8-1.3-9.9 0-14.8-0.8-1.1-0.3-1.1-1.3-0.5-1.7-0.8 0.2-1.5 0.2-2.3 0.4-0.4 0.6-1.1 1-1.9 0.8-1.1-0.2-2.1-0.4-3-0.6-1.3 2.8-4 4.9-6.8 6.4-0.9 0.4-1.5-0.7-0.6-1.3 2.1-1.5 3.4-3.6 4.8-5.7-1.2-0.5-2.7-0.7-4-1.1-1.7 2.8-4.2 5.1-6.4 7.2-2.5 2.6-5.3 4.7-8.3 6.6-0.8 0.7-1.7-0.8-0.8-1.3 2.8-2.1 5.5-4.4 8.1-7 1.9-1.9 3.4-4.2 5.1-6.1-1.3-0.5-2.6-0.9-4.1-1.3q-1.6 1.6-3.2 3.2-2.5 2.5-5.1 5.1c-0.4 0.4-1.5-0.2-1-0.9 1.5-1.9 3-3.6 4.4-5.5 0.7-0.9 1.5-1.9 2.2-2.8q-6.7-2.5-13.4-5.1c-1.5 4.1-4.3 7.5-6.8 10.9-0.5 0.6-1.5-0.2-1.1-0.9 2.1-3.4 3.8-7.2 5.5-11-0.6-0.3-1.3-0.7-1.9-0.9-0.8-0.4-1.5-0.6-2.1-1.1-2.6 5.8-7.2 10.9-11.1 15.8-0.6 0.6-1.7-0.2-1.2-0.9 3.6-5.1 6.1-11 9.7-16.3-1.7-1.1-3.2-2.4-4.9-3.7-0.4-0.4-1.2-0.8-1.9-1.4-1 3.1-3.4 6.5-5.3 9.1-0.2 0.4-1.1 0-0.8-0.4 1-1.7 1.9-3.4 2.7-5.1 0.7-1.5 1.1-3.2 1.9-4.7-1.9-1.3-3.8-2.4-5.1-2.8-1-0.4-2.3 0.4-3.4 0-6.6-2.5-9.1-8.3-15.1-11.2-0.8 2.5-1.9 4.8-2.3 7.6-0.6 3.4-0.6 6.8-0.4 10.2 0 0.9-1.3 1.1-1.5 0.2-0.9-5.9-0.7-13.4 2.1-18.9-0.8-0.2-1.9-0.6-3.2-0.6-1.1-0.3-1.9-0.3-3-0.5-0.2 0.7-0.4 1.5-0.6 2.2q-0.3 1.9-0.6 3.8c0 0.8-1.3 0.8-1.3 0 0-1.5 0-2.8 0.2-4 0.2-0.7 0.2-1.5 0.4-2.2-1.5-0.2-3-0.4-4.2-0.8 0 2.7-0.5 5.5-0.5 8.3 0 3.2 0.3 6.3 0.3 9.3 0 0.7-1.1 0.9-1.3 0.2-1.5-5.5-2.2-12.9-0.4-18.7-1.1-0.4-2.2-1-3-1.9 0 0.2-0.2 0.6-0.2 0.9-0.5 1.4-0.9 2.7-1.1 4.2-0.2 0.9-1.3 0.4-1.3-0.4q0.3-2.2 0.7-4.5c0-0.8 0-1.9 0.6-2.5 0.2-0.7 1.3-1.1 1.9-0.5 0.4 0.5 1.1 0.9 1.5 1.3-0.4-4.9-0.9-9.5-0.6-14.4 0-0.5 0.6-0.5 0.6 0 1.3 5.3 1.9 10.6 2.6 15.9 3.8 1.5 8 1.3 12.1 1.7-0.4-5.5 1.3-10.6 3.8-15.3q1.3-2.2 3.2-5.1c2.8-13.4 6.2-27.4 10.8-40.4-5.9-11.5-12.5-23-19.7-33.6-4.9-7-9.8-15.1-18.5-17.5-5.6-1.5-11.3-1-17.1 0.5 4.1 4.2 7.1 10.2 10 15.1 0.5 0.6-0.6 1.2-1 0.6-1.9-3-4.1-5.7-6.2-8.3-1.7-2.3-3.8-4.3-5.5-6.6q-1 0.3-1.9 0.6c-1.5-0.8-2.4-3.8-0.5-4.4zm58.7 123.3c0.3-2.7 0.9-5.5 1.1-8.3 0-1.2 0-2.7 0-4-2.1 3-3.8 6.4-4.2 9.8 0.8 1.1 2.1 1.7 3.1 2.5zm4.7-69.7c0 0.2 0 0.2 0.2 0.4 0.2 0.6-0.2 1.1-0.6 1.3-0.4 1.3-0.9 2.7-1.3 4-3.2 9.8-5.5 19.8-7.6 29.8 1.5-1.3 3.4-1.9 5.1-1.7 1.2 0.2 2.1 0.9 2.3 2.3 0.4 4.5-4.9 8.8-7.2 12.2-2.8 4-4.9 8.5-7.9 12.5 0.9 0.2 1.7 0.4 2.6 0.9 1.7 0.6 2.1 1.2 3.1 2.1 0.3-4.5 0.9-8.7 3-12.8 2.2-4.2 6.4-10.8 11.5-11.9h0.2c4.9-22.3 16-47 30.4-64.6-7-1.1-13.8-2.8-20.2 1.9-6.8 4.9-10.8 15.1-13.6 23.6zm-270.5 114.8c-0.2-4.2-0.7-8.5-1.7-12.7-1.3-4.7-1.5-9.6-3-14.1-0.2-0.8-1.5-0.8-1.7 0-2.6 8.5 4.9 18.1 5.3 26.6 0.2 0.7 1.1 0.9 1.1 0.2zm-0.9 1.3c-0.6 0.9-0.6 1.9-0.8 2.8-0.2 1.2-0.4 2.3-0.7 3.6-0.2 0.8 0.9 1.1 1.1 0.2 0.4-1.3 0.6-2.3 1.1-3.6 0.2-1.1 0.8-1.9 0.4-3-0.2-0.2-0.6-0.4-1.1 0zm-126.5 181.6c-2.8 2.8-5.8 4.7-9.4 6-6.8 2.3-16.8 3.2-21.9-3-4.9-5.7-1.7-13.2-9.8-18.1-4.6-2.7-11.2-0.6-16.1-3.4-6-3.4-7.7-10-6-16.1 0.4-1.7 3.2-1.1 2.6 0.6-0.3 1.1-0.5 2.1-0.3 3 10-7 18.1-12.8 31.1-13 0.9 0 0.6 1.1 0 1.1-6.6 0.6-13.2 2.7-18.7 6.4-4.1 2.5-7.2 6.1-11.1 8.9 0.4 0.4 0.9 1.1 1.3 1.5 4-1.7 8.1-3.4 11.9-5.5 0.9-0.5 1.5 0.6 0.7 1.2-2.6 1.5-4.9 3.4-7.5 4.9-0.6 0.4-1.3 0.9-2.1 1.3 3.8 1.7 8.9 2.8 13.2 3.8 0.2 0 0.2-0.2 0.4-0.2 9.1-2.3 18.1-13 25.1-19.1 4.9-4.3 9.6-8.3 14.7-12.1 12.1-8.8 25.7-10.9 40-13.9 0.4 0 0.6 0.7 0.2 0.9-8.3 2.1-17.3 3.6-25.1 6.8-8.3 3.4-15.1 9.1-21.9 15.3-8.3 7.4-17.9 19.6-28.7 24.2 0.4 0.3 0.8 0.5 1 0.7 1.5 1.3 2.3 2.3 3 3.6 9.1-4.7 18.3-14.9 25.9-21.3 6.2-5.1 12.2-10.6 18.5-15.1 12.2-8.3 26.6-11.5 41.1-9.8 0.4 0 0.4 0.7 0 0.7-22.1-1.3-36.6 8.1-52.8 21.9-7.2 6.2-14.4 12.3-21.4 18.7-3.4 3-6.2 5.7-10 7.9 0.6 1.9 1.2 4 2.5 6.1 1.1 1.7 2.1 3.2 3.2 4.3 9.2-1.5 14.5-10.2 23.2-12.8 0.6-0.2 1.1 0.7 0.4 1.1-5.1 2.6-8.1 7.2-12.7 10.4-2 1.5-4.5 3.2-7.1 4.1 9 3.8 19.2-7.7 25.6-13.7 4.6-4.2 10-6.5 15.9-8.2h0.2c0-0.5 0-0.7 0-0.9 0.2-8.7-0.8-15.1 3.4-23.4 3.4-6.4 8.5-11.7 15.3-14.5 0.5-0.2 0.9-0.2 1.1 0 0.2-0.2 0.6-0.4 1.1-0.4 7-0.6 14 0.4 20.8 2.8 0.7 0.2 0.4 1.3-0.2 1-6.2-1.7-12.3-1.7-18.5-0.8 3.4 0.4 6.6 1.1 10 1.5 0.8 0.2 0.6 1.5-0.2 1.5-5.6-0.2-11.9-0.7-17.5 0.2-6.6 5.3-10.6 12.1-11.4 20.8 2.3-1.2 5.3-1 8-1.9 3.6-1 6.6-2.5 9.6-5.1 0.6-0.6 1.7 0.4 1.1 1.1-4.1 4.4-12.4 11-18.7 8.5 0 0.2 0 0.4 0 0.4q0 1.3 0 2.6c1.9 0 4 0.2 5.9-0.7 2.1-0.8 3.8-2.1 5.7-3 0.7-0.2 1.3 0.9 0.5 1.3-2.6 1.3-4.3 3.6-6.8 4.9-1.5 0.6-3.4 0.9-5.3 0.9 0.2 2.3 0.2 4.6 0.2 7.2 0-0.6-3 11.5-0.2 9.4 1.7-1.3 3.6 1.4 2.1 2.7-2.4 2.1-4.9 3.4-7.7 0.9-2.5-2.4-1.5-7-0.2-11.1-7.2 3-11 7.9-17.2 14z"/>
					</g>
				</g>
			</g>
		</g>
	</g>
</svg>